<?xml version="1.0" encoding="utf-8"?>
<!-- Generator: Adobe Illustrator 25.3.1, SVG Export Plug-In . SVG Version: 6.00 Build 0)  -->
<svg version="1.1" id="Capa_1" xmlns="http://www.w3.org/2000/svg" xmlns:xlink="http://www.w3.org/1999/xlink" x="0px" y="0px"
	 viewBox="0 0 123.64 149.79" style="enable-background:new 0 0 123.64 149.79;" xml:space="preserve">
<style type="text/css">
	.st0{fill:#1E1E1E;}
	.st1{fill:#FFFFFF;}
	.st2{fill:#F5F5F5;}
</style>
<g>
	<path class="st0" d="M122.05,82.33L122,82.19c-0.07-0.2-0.14-0.39-0.25-0.64l-0.01-0.03c-0.63-1.44-1.47-2.84-2.5-4.16
		c-0.08-0.11-0.17-0.22-0.24-0.31l-0.14-0.17c-0.55-0.66-1.12-1.26-1.72-1.83c-0.11-0.1-0.22-0.2-0.34-0.3
		c0.23-0.2,0.47-0.41,0.69-0.63c7.04-6.72,8.15-17.23,2.79-26.17c-0.7-1.23-1.49-2.36-2.37-3.37c-0.31-0.35-0.63-0.7-0.98-1.05
		c-0.26-0.27-0.53-0.52-0.81-0.77c-2.8-2.51-6.21-4.18-9.82-4.88c-1.07-9.92-5.24-17.19-12.67-22.12c-2.67-1.77-5.59-3.07-8.69-3.85
		c-0.83-0.29-1.68-0.56-2.55-0.79c-0.24-0.68-0.53-1.34-0.88-1.99C78.26,3,70.88-0.78,63.96,0.14c-0.69,0.09-1.38,0.22-2.05,0.39
		c-1.21-0.31-2.47-0.48-3.74-0.53c-5.83-0.2-13.39,3.15-16.59,9.94c-0.19,0.39-0.35,0.79-0.5,1.2c-0.92,0.25-1.81,0.53-2.69,0.85
		c-2.63,0.7-5.13,1.78-7.45,3.2c-7.99,4.91-12.51,12.36-13.72,22.68c-2.58,0.5-5.08,1.49-7.32,2.94c-0.17,0.11-0.34,0.23-0.5,0.34
		c-2.24,1.61-4.12,3.56-5.6,5.78c-0.07,0.1-0.13,0.21-0.19,0.3c-0.07,0.11-0.13,0.21-0.2,0.33c-1.05,1.71-1.85,3.56-2.36,5.45
		c-0.04,0.12-0.08,0.24-0.11,0.36c-0.01,0.04-0.02,0.07-0.03,0.11l-0.05,0.22c-0.31,1.31-0.49,2.56-0.56,3.83L0.29,57.7
		C0.19,59.5,0,63.23,1.55,67.34c0.02,0.04,0.03,0.08,0.05,0.12l0.06,0.15C1.72,67.8,1.79,68,1.9,68.25l0.01,0.03
		c0.63,1.44,1.47,2.84,2.5,4.16c0.08,0.11,0.17,0.22,0.24,0.31l0.14,0.17c0.55,0.66,1.12,1.26,1.72,1.83c0.11,0.1,0.22,0.2,0.34,0.3
		c-0.23,0.2-0.47,0.41-0.69,0.63c-7.04,6.72-8.15,17.23-2.79,26.17c0.7,1.23,1.49,2.36,2.37,3.37c0.31,0.35,0.63,0.7,0.98,1.05
		c0.26,0.27,0.53,0.52,0.81,0.77c2.8,2.51,6.21,4.18,9.82,4.88c1.07,9.92,5.24,17.19,12.67,22.12c2.67,1.77,5.59,3.07,8.69,3.85
		c0.83,0.29,1.68,0.56,2.55,0.79c0.24,0.68,0.53,1.34,0.88,1.99c3.24,6.13,10.62,9.91,17.54,8.99c0.69-0.09,1.38-0.22,2.05-0.39
		c1.21,0.31,2.47,0.48,3.74,0.53c0.16,0.01,0.33,0.01,0.49,0.01c5.75,0,12.99-3.35,16.1-9.95c0.19-0.39,0.35-0.79,0.5-1.2
		c0.92-0.25,1.81-0.53,2.69-0.85c2.63-0.7,5.13-1.78,7.45-3.2c7.99-4.91,12.51-12.36,13.72-22.68c2.58-0.5,5.08-1.49,7.32-2.94
		c0.17-0.11,0.34-0.23,0.5-0.34c2.24-1.61,4.12-3.56,5.6-5.78c0.07-0.1,0.13-0.21,0.19-0.3c0.07-0.11,0.13-0.21,0.2-0.33
		c1.05-1.71,1.85-3.56,2.36-5.45c0.04-0.12,0.08-0.24,0.11-0.36c0.01-0.04,0.02-0.07,0.03-0.11l0.05-0.22
		c0.31-1.31,0.49-2.56,0.56-3.83l0.01-0.15c0.09-1.8,0.29-5.53-1.26-9.64C122.08,82.41,122.07,82.37,122.05,82.33z"/>
	<g>
		<path class="st1" d="M85,36.44c0.42-1.44-0.22-2.93-0.63-3.69c-1.67-3.02-5.09-4.35-8.14-3.17c0.01,0.05,0.07,0.15,0.1,0.16
			c2.66-0.52,5.15,0.08,6.81,1.67c1.21,1.17,2.36,3.67,0.97,5.34c-0.25,0.3-0.51,0.51-0.83,0.67l-0.18,0.09l0.05-0.19
			c0.01-0.04,0.02-0.09,0.01-0.14l0-0.02l0.01-0.02c0.47-1.5,0.2-2.95-0.77-4.2c-1.51-1.93-4.65-3.21-7.47-3.04
			c-2.27,0.13-4.44,1.1-6.17,2.61c0.78,0.13,1.55,0.29,2.31,0.46c0.73-0.51,1.54-0.93,2.45-1.24c0.76-0.27,1.57-0.42,2.38-0.44
			l0.02,0l0.02,0c1.53,0.53,3.05,1.06,4.58,1.58l0.03,0.02c0.54,0.46,1.69,2.59,1.42,3.79c-0.04,0.17-0.11,0.3-0.2,0.42
			c0.6,0.34,1.19,0.69,1.78,1.06c0.07-0.03,0.14-0.05,0.21-0.09C84.32,37.76,84.79,37.15,85,36.44z"/>
		<path class="st1" d="M19.78,54.2c0.09,0.01,0.23,0.01,0.27,0.01l0.01,0l0.01,0l0.07,0c1.17,0.05,2.34,0.11,3.51,0.16l0.03,0
			L24.53,55c0.19,0.17,0.38,0.37,0.56,0.58c0.09-0.19,0.17-0.39,0.26-0.57c-0.84-0.74-1.81-1.32-2.76-1.52
			C21.52,53.25,20.58,53.49,19.78,54.2z"/>
		<path class="st1" d="M45.52,30.37c-0.72,0.24-1.49,0.6-2.21,1.04l-0.13,0.06c-0.39,0.19-0.81,0.52-1.23,0.95
			c-1.06,0.94-2.69,2.86-1.69,5.12l0.08,0.18l-0.18-0.06c-0.23-0.07-0.41-0.16-0.53-0.26l-0.02-0.03c-0.32-0.74-0.65-1.48-0.97-2.22
			l-0.01-0.02l0-0.02c0.04-0.43,0.14-0.85,0.3-1.25c0.37-1.01,1.06-1.95,1.99-2.72c1.63-1.36,3.9-1.87,6.22-1.4
			c-0.02-0.06-0.06-0.12-0.08-0.13c-1.89-0.69-4.06-0.51-5.81,0.46c-1.52,0.85-2.55,2.23-2.89,3.88c-0.2,0.95,0.33,3.16,1.35,4.1
			c0.14,0.13,0.28,0.21,0.42,0.28c0.26-0.17,0.51-0.34,0.77-0.5l-0.39-0.07L40.5,37.7l0.04-0.02l-0.04,0l-0.04-0.25l0.17,0.13
			c0.03,0.02,0.06,0.04,0.09,0.07l0.24,0.17c0.21-0.13,0.42-0.24,0.64-0.37c-0.22-0.11-0.35-0.3-0.38-0.55
			c-0.19-1.42,2.76-4.51,3.13-4.71c2.27-1.25,3.79-0.68,6.1,0.19l0.12,0.04c0.38,0.14,0.72,0.26,1.02,0.37
			c0.32,0.11,0.6,0.21,0.85,0.31c0.9-0.22,1.82-0.4,2.74-0.56c-0.64-0.59-1.35-1.1-2.15-1.51C50.69,29.78,48.02,29.56,45.52,30.37z
			 M52.3,31.81c-1.28-0.62-2.7-1.02-4.11-1.15l0.01-0.17c0.53,0.04,1.1,0.12,1.74,0.26c0.83,0.18,1.65,0.49,2.43,0.91L52.3,31.81z"
			/>
		<path class="st1" d="M29.71,38.97l0.17,0.01c0,0.14,0,0.29,0.01,0.43c0.04,1.06,0.2,2.03,0.51,2.98c0.2,0.62,0.52,1.24,0.87,1.89
			c0.19,0.36,0.38,0.72,0.55,1.08c0.07-0.07,0.13-0.15,0.2-0.22c-0.09-0.2-0.19-0.4-0.29-0.6c-0.09-0.19-0.19-0.38-0.27-0.57
			c-1.46-3.15-1.59-6.32-0.41-9.69c0-0.01,0-0.05,0-0.09l-0.12-0.06c0.87-2.21,2.12-4.03,3.81-5.58c5.7-5.22,14.64-5.63,20.79-0.95
			c1.59,1.21,2.96,2.73,4.02,4.41c0.3-0.02,0.61-0.03,0.91-0.04c-1.11-2.08-2.67-3.9-4.63-5.37l-0.23-0.17l0.29,0.02
			c2.04,0.11,4.18-1.28,5.24-2.71c0.19-0.25,0.36-0.53,0.52-0.83l0.08-0.15l0.08,0.15c0.13,0.24,0.25,0.44,0.37,0.62
			c1.08,1.59,3.4,3.14,5.6,2.91l0.32-0.03l-0.25,0.19c-1.91,1.43-3.48,3.29-4.62,5.38c0.16,0,0.32,0.01,0.48,0.01
			c1.76-2.85,4.44-5.15,7.62-6.44c6.95-2.84,15.17-0.41,19.53,5.77c0.6,0.85,1.12,1.79,1.55,2.78l0.01,0.03l-0.01,0.03
			c-0.02,0.06-0.03,0.16-0.02,0.18c1.11,3.37,1.06,6.41-0.15,9.27c-0.14,0.34-0.31,0.67-0.48,0.99c-0.04,0.09-0.09,0.17-0.13,0.25
			c0.03,0.03,0.05,0.05,0.08,0.08c0.19-0.48,0.4-0.97,0.61-1.45c0.55-1.26,1.11-2.56,1.2-3.68c0.03-0.3,0.04-0.61,0.04-0.93
			l0.17-0.01c0.44,2.82,0.4,5.77,0.21,8.71c0.11,0.14,0.21,0.27,0.32,0.4c0.57-8.38,0.21-17.07-7.34-22.08
			c-1.68-1.12-3.53-1.9-5.5-2.32c-1.5-0.59-3.18-1.01-5.01-1.26c-0.55-0.07-1.15-0.13-1.79-0.18c-3.01-0.26-6.75-0.59-8.08-3.3
			l-0.09-0.19l0.2,0.07c1.11,0.37,2.84,0.16,3.63-0.73c1.13-1.26,0.9-2.42,0.5-3.17c-0.86-1.62-3.33-2.87-5.2-2.62
			c-1.49,0.2-2.8,0.95-3.7,2.11l-0.07,0.1l-0.07-0.1c-0.62-0.94-1.82-2.07-3.96-2.14c-1.76-0.06-4.35,1.2-5.18,2.98
			c-0.48,1.02-0.29,2.06,0.54,3c0.84,0.95,2.64,0.97,3.79,0.39l0.21-0.11l-0.09,0.22c-1.21,2.97-5.12,3.28-8.27,3.54
			c-0.81,0.07-1.57,0.13-2.23,0.23c-1.6,0.25-3.11,0.65-4.49,1.2c-1.68,0.39-3.27,1.04-4.73,1.94c-8.25,5.07-8.68,14.21-8.11,23.06
			c0.14-0.19,0.27-0.38,0.41-0.56C29.39,44.98,29.31,41.91,29.71,38.97z M62.26,15.3c0.72-1.49,1.98-2.56,3.27-2.78
			c1.06-0.18,2.1,0.2,3.01,1.11c0.71,0.71,1.37,1.92,1.14,2.91l-0.01,0.02c-0.76,1.29-1.39,1.89-1.91,1.83
			c-0.38-0.04-0.67-0.41-0.89-1.12c-0.05-0.38-0.07-0.75-0.05-1.11c0,0,0-0.02-0.04-0.03c-0.23-0.07-0.84,0.13-0.9,0.22
			c-0.58,0.87-0.53,1.6,0.16,2.07l0.03,0.02l0.01,0.03c0.39,1.86,1.74,3.24,3.9,3.99c1.5,0.52,3.13,0.64,4.7,0.76l1.2,0.09
			l-0.69,0.12c-1.61,0.27-3.17,0.78-4.64,1.5l-0.02,0.01l-0.02,0c-2.3-0.22-6.4-1.06-8.07-4.24l-0.01-0.03l0.01-0.03
			c0.12-0.61,0.18-1.26,0.18-1.92c0.18-1.17,0.06-2.32-0.34-3.36l-0.01-0.04L62.26,15.3z M48.21,23.23
			c0.26-0.02,0.51-0.04,0.77-0.06c1.66-0.12,3.37-0.25,4.9-0.91c1.88-0.81,3.11-2.23,3.47-4.01l0.01-0.03l0.02-0.02
			c0.65-0.55,0.7-1.28,0.13-2.04c-0.05-0.07-0.38-0.09-0.68,0.01c-0.17,0.06-0.25,0.13-0.24,0.17c0,0.96-0.36,1.74-0.9,1.93
			c-0.31,0.11-0.82,0.08-1.46-0.7c-0.63-0.77-0.69-1.91-0.16-3.03c0.59-1.26,1.6-1.97,2.84-1.99c0.01,0,0.03,0,0.04,0
			c1.63,0,3.44,1.19,4.24,2.79l0.02,0.04l-0.02,0.04c-0.55,1.2-0.68,2.59-0.36,3.9c0.03,0.46,0.09,0.9,0.18,1.34l0.01,0.03
			l-0.01,0.03c-0.09,0.19-0.18,0.35-0.27,0.5c-1.15,1.88-3,3.03-5.65,3.52c-0.37,0.03-0.8,0.07-1.23,0.17
			c-0.24,0.03-0.46,0.05-0.69,0.06l-0.02,0l-0.02-0.01c-1.56-0.76-3.21-1.29-4.91-1.55l-0.72-0.11L48.21,23.23z"/>
		<path class="st1" d="M19.65,57.14c-1.09-0.09-2.15,0.23-2.92,0.89c-0.69,0.59-1.09,1.39-1.15,2.31c-0.02,0.26,0,0.55,0.05,0.86
			c-0.02,0.32,0.01,0.75,0.32,1.06l0.02,0.02c0.22,0.45,0.63,0.97,1.3,0.96c0.01-0.07-0.03-0.22-0.05-0.26l-0.27-0.25l0.01-0.05
			c0.27-1.52,1.21-2.27,2.79-2.23l0.04,0l0.03,0.04c1.42,2.01,1.89,3.46,1.45,4.43c-0.32,0.7-1.12,1.12-2.38,1.25
			c-0.15,0.02-0.29,0.02-0.44,0.02c-1.15,0-2.35-0.47-3.36-1.33c-0.46-0.38-0.85-0.8-1.13-1.25L14,63.59
			c-0.21-0.32-0.39-0.66-0.54-1.01c-0.05-0.17-0.09-0.34-0.13-0.55l0-0.01l0-0.01c0.09-0.61,0.11-1.23,0.07-1.85l0-0.01l0-0.01
			c0.09-0.41,0.22-0.82,0.4-1.25c-0.16-0.55-0.26-1.09-0.29-1.61l0-0.02l0.01-0.02c0.34-0.81,0.82-1.56,1.39-2.24
			c-0.48,0.54-0.9,1.14-1.24,1.77l-0.18,0.34l0.02-0.39c0.06-1.48,0.75-2.72,2.03-3.7c1.37-1.2,3.04-1.9,4.83-2.03
			c2.72-0.19,4.37,0.85,5.82,2.36c0.18-0.33,0.36-0.65,0.55-0.97c-0.66-0.76-1.39-1.46-2.31-1.92c-2.49-1.27-5.55-0.99-7.93,0.56
			c-0.81,0.59-1.79,1.46-2.59,2.65c-0.53,0.85-0.95,1.81-1.23,2.85c-0.12,0.52-0.22,1.06-0.25,1.64c-0.07,1.44-0.21,3.33,0.6,5.2
			l0.01-0.02l0.09,0.2c0.27,0.58,0.61,1.1,0.99,1.58c0.21,0.25,0.43,0.49,0.69,0.73c0.99,0.86,2.28,1.33,3.64,1.29
			c1.4-0.04,2.64-0.61,3.4-1.56l0.06-0.07l0.07,0.06c0,0,0.01,0.01,0.02,0.01c0.35-2.02,0.84-3.99,1.48-5.9
			C22.77,58.28,21.32,57.28,19.65,57.14z M17.74,60.39c-0.19,0.19-0.35,0.42-0.48,0.66l-0.2,0.38L17.1,61
			c0.02-0.27,0.05-0.49,0.1-0.68l0.02-0.07l0.08,0.01c0.15,0.02,0.31-0.01,0.37-0.02l0.26-0.04L17.74,60.39z"/>
		<path class="st1" d="M87.55,40.93l0.02-0.02c1.18-0.87,1.98-2.4,2.11-4.02c0.4-5.16-3.96-10.52-9.36-11.57
			c0,0,0.01,0.01,0.01,0.01c2.56,0.9,4.63,2.37,6.06,4.24c0,0,0.01,0,0.01,0.01c0.01,0.01,0.02,0.03,0.03,0.04
			c0.97,1.29,1.65,2.76,1.97,4.37c0.24,1.21,0.37,2.99-0.34,4.55c-0.38,0.83-0.81,1.36-1.45,1.76c0.31,0.24,0.62,0.48,0.92,0.72
			c0.01-0.02,0.01-0.05,0.02-0.07L87.55,40.93z"/>
		<path class="st1" d="M36.46,38.03l-0.03-0.05c-0.43-0.78-0.68-1.78-0.74-2.99c-0.07-1.39,0.21-2.82,0.82-4.24
			c1.39-2.2,3.51-3.9,6.65-5.35c-0.06-0.04-0.16-0.09-0.2-0.1c-3.12,0.43-6.28,2.64-8.05,5.64c-1.42,2.41-1.71,4.99-0.82,7.27
			c0.33,0.84,0.9,1.64,1.61,2.25l0.02,0.03c0.11,0.27,0.18,0.56,0.25,0.86c0.13-0.11,0.27-0.22,0.41-0.33l-0.02-0.07l0.06,0.04
			c0.12-0.1,0.25-0.19,0.37-0.29c-0.55-0.34-1.12-0.96-1.59-2.07c-0.94-2.23-0.13-4.86,0.45-6.23c0.01-0.02,0.02-0.05,0.03-0.07
			l0.03-0.06l0.16,0.06c-0.73,2.44-0.41,4.77,0.86,6.22c0.45,0.52,1.05,0.84,1.68,0.93c0.09-0.07,0.18-0.13,0.27-0.2
			c-0.68-0.06-1.36-0.23-1.63-0.44C36.81,38.66,36.61,38.3,36.46,38.03z"/>
		<path class="st1" d="M103.36,54.21c0.03,0.01,0.17,0,0.26-0.01c-0.95-0.83-2.56-0.74-3.76-0.37c-0.54,0.17-1.05,0.44-1.52,0.77
			c0.11,0.22,0.21,0.44,0.32,0.66C99.95,54.07,101.58,53.67,103.36,54.21z"/>
		<path class="st1" d="M102.98,51c1.93,0.13,3.96,1.23,5.51,2.83c0,0,0,0,0,0c0,0,0,0,0,0l0,0c0,0,0,0,0,0
			c5,5.37,0.51,10.54-0.13,11.05l0,0c-1.11,0.87-2.27,1.33-3.38,1.33c-0.14,0-0.28-0.01-0.42-0.02c-1.26-0.13-2.07-0.55-2.39-1.25
			c-0.45-0.97,0-2.42,1.38-4.44l0.03-0.04l0.04,0c1.3-0.04,2.18,0.47,2.61,1.51c0.05,0.28,0.1,0.46,0.18,0.61l0.02,0.06l0.01,0.05
			l-0.03,0.03c-0.09,0.09-0.18,0.17-0.26,0.26c-0.02,0.04-0.01,0.24,0.03,0.27c0.4,0.01,0.75-0.13,1.03-0.43
			c0.53-0.58,0.67-1.65,0.57-2.46c-0.01-0.46-0.14-0.88-0.4-1.25c-0.72-1.36-2.18-2.11-3.81-1.97c-1.4,0.12-2.62,0.85-3.37,1.89
			c0.8,2.27,1.41,4.63,1.79,7.07c0.68,0.6,1.6,0.97,2.65,1.04c1.69,0.12,3.25-0.66,4.45-1.81c3.74-3.57,2.57-8.18,0.67-11.26
			c-0.3-0.55-0.65-1.07-1.04-1.52c-0.16-0.19-0.34-0.37-0.52-0.54c-0.01-0.01-0.02-0.03-0.03-0.04c0-0.02,0-0.01,0,0
			c-2.2-2.09-5.37-2.87-8.13-1.94c-1.22,0.41-2.17,1.2-3.02,2.11c0.16,0.28,0.33,0.56,0.48,0.84C98.9,51.68,100.54,50.84,102.98,51z
			"/>
		<path class="st1" d="M93.74,98c0.38,4.27,0.77,8.68,0.2,12.82l-0.17-0.01c0-0.14,0-0.29-0.01-0.43c-0.04-1.06-0.2-2.03-0.51-2.98
			c-0.2-0.62-0.52-1.24-0.87-1.89c-0.65-1.23-1.32-2.5-1.12-3.85c-0.15,0.52-0.17,1.02-0.08,1.6c0.11,0.71,0.43,1.36,0.74,1.99
			c0.09,0.19,0.19,0.38,0.27,0.57c1.46,3.15,1.59,6.32,0.41,9.69c0,0.01,0,0.05,0,0.09l0.12,0.06c-0.87,2.21-2.12,4.03-3.81,5.58
			c-5.7,5.22-14.64,5.63-20.79,0.95c-2.88-2.19-5.04-5.35-5.93-8.68c-0.03-0.11-0.05-0.22-0.08-0.33l-0.02-0.07l0-0.02
			c0-0.01,0-0.02,0-0.03c-0.05,0-0.1,0-0.15,0c-0.13,0-0.26-0.01-0.38-0.01c0.02,0.09,0.02,0.19,0.04,0.29
			c0.03,0.16,0.06,0.32,0.1,0.47l0,0.02l-0.01,0.02c-0.18,0.72-0.42,1.42-0.71,2.08c-1.63,3.72-4.78,6.76-8.63,8.33
			c-6.95,2.84-15.17,0.41-19.53-5.77c-0.6-0.85-1.12-1.79-1.55-2.78l-0.01-0.03l0.01-0.03c0.02-0.06,0.03-0.16,0.02-0.18
			c-1.11-3.37-1.06-6.41,0.15-9.27c0.14-0.34,0.31-0.67,0.48-0.99c0.34-0.65,0.66-1.27,0.78-1.99c0.12-0.68,0.08-1.22-0.12-1.79
			c0.28,1.46-0.48,3.21-1.21,4.91c-0.55,1.26-1.11,2.56-1.2,3.68c-0.03,0.3-0.04,0.61-0.04,0.93l-0.17,0.01
			c-0.67-4.29-0.24-8.89,0.17-13.33c0-0.01,0-0.01,0-0.02c-0.11-0.14-0.22-0.28-0.33-0.42c-0.02,0.21-0.03,0.41-0.05,0.63
			c-0.82,9.51-1.75,20.28,7.02,26.1c1.68,1.12,3.53,1.9,5.5,2.32c1.5,0.59,3.18,1.01,5.01,1.26c0.55,0.07,1.15,0.13,1.79,0.18
			c3.01,0.26,6.75,0.59,8.08,3.3l0.09,0.19l-0.2-0.07c-1.11-0.37-2.84-0.16-3.63,0.73c-1.13,1.26-0.9,2.42-0.5,3.17
			c0.86,1.62,3.33,2.87,5.2,2.62c1.49-0.2,2.8-0.95,3.7-2.11l0.07-0.1l0.07,0.1c0.62,0.94,1.82,2.07,3.96,2.14
			c1.76,0.06,4.35-1.2,5.18-2.98c0.48-1.02,0.29-2.06-0.54-3c-0.84-0.95-2.64-0.97-3.79-0.39l-0.21,0.11l0.09-0.22
			c1.21-2.97,5.12-3.28,8.27-3.54c0.81-0.07,1.57-0.13,2.23-0.23c1.6-0.25,3.11-0.65,4.49-1.2c1.68-0.39,3.27-1.04,4.73-1.94
			c9.51-5.85,8.63-17.12,7.8-27.1c-0.14,0.19-0.29,0.37-0.44,0.56C93.72,97.8,93.73,97.9,93.74,98z M61.38,134.5
			c-0.72,1.49-1.98,2.56-3.27,2.78c-1.06,0.18-2.1-0.2-3.01-1.11c-0.71-0.71-1.37-1.92-1.14-2.91l0.01-0.02
			c0.76-1.29,1.39-1.89,1.91-1.83c0.38,0.04,0.67,0.41,0.89,1.12c0.05,0.38,0.07,0.75,0.05,1.11c0,0,0,0.02,0.04,0.03
			c0.23,0.07,0.84-0.13,0.9-0.22c0.58-0.87,0.53-1.6-0.16-2.07l-0.03-0.02l-0.01-0.03c-0.39-1.86-1.74-3.24-3.9-3.99
			c-1.5-0.52-3.13-0.64-4.7-0.76l-1.2-0.09l0.69-0.12c1.61-0.27,3.17-0.78,4.64-1.5l0.02-0.01l0.02,0c2.3,0.22,6.4,1.06,8.07,4.24
			l0.01,0.03l-0.01,0.03c-0.12,0.61-0.18,1.26-0.18,1.92c-0.18,1.17-0.06,2.32,0.34,3.36l0.01,0.04L61.38,134.5z M61.94,127.02
			l-0.08-0.15c-0.13-0.24-0.25-0.44-0.37-0.62c-1.08-1.59-3.4-3.14-5.6-2.91l-0.32,0.03l0.25-0.19c2.12-1.59,3.85-3.68,5-6.05
			c0.37-0.76,0.68-1.59,0.92-2.47l0.08-0.31l0.09,0.3c0.95,3.4,3,6.34,5.91,8.51l0.23,0.17l-0.29-0.02
			c-2.04-0.11-4.18,1.28-5.24,2.71c-0.19,0.25-0.36,0.53-0.52,0.83L61.94,127.02z M75.44,126.56c-0.26,0.02-0.51,0.04-0.77,0.06
			c-1.66,0.12-3.37,0.25-4.9,0.91c-1.88,0.81-3.11,2.23-3.47,4.01l-0.01,0.03l-0.02,0.02c-0.65,0.55-0.7,1.28-0.13,2.04
			c0.05,0.07,0.38,0.09,0.68-0.01c0.17-0.06,0.25-0.13,0.24-0.17c0-0.96,0.36-1.74,0.9-1.93c0.31-0.11,0.82-0.08,1.46,0.7
			c0.63,0.77,0.69,1.91,0.16,3.03c-0.59,1.26-1.6,1.97-2.84,1.99c-0.01,0-0.03,0-0.04,0c-1.63,0-3.44-1.19-4.24-2.79l-0.02-0.04
			l0.02-0.04c0.55-1.2,0.68-2.59,0.36-3.9c-0.03-0.46-0.09-0.9-0.18-1.34l-0.01-0.03l0.01-0.03c0.09-0.19,0.18-0.35,0.27-0.5
			c1.15-1.88,3-3.03,5.65-3.52c0.37-0.03,0.8-0.07,1.23-0.17c0.24-0.03,0.46-0.05,0.69-0.06l0.02,0l0.02,0.01
			c1.56,0.76,3.21,1.29,4.91,1.55l0.72,0.11L75.44,126.56z"/>
		<path class="st1" d="M20.66,98.8c-1.93-0.13-3.96-1.23-5.51-2.83c0,0,0,0,0,0c0,0,0,0,0,0l0,0c0,0,0,0,0,0
			c-5-5.37-0.51-10.54,0.13-11.05l0,0c1.11-0.87,2.27-1.33,3.38-1.33c0.14,0,0.28,0.01,0.42,0.02c1.26,0.13,2.07,0.55,2.39,1.25
			c0.45,0.97,0,2.42-1.38,4.44l-0.03,0.04l-0.04,0c-1.3,0.04-2.18-0.47-2.61-1.51c-0.05-0.28-0.1-0.46-0.18-0.61l-0.02-0.06
			l-0.01-0.05l0.03-0.03c0.09-0.09,0.18-0.17,0.26-0.26c0.02-0.04,0.01-0.24-0.03-0.27c-0.4-0.01-0.75,0.13-1.03,0.43
			c-0.53,0.58-0.67,1.65-0.57,2.46c0.01,0.46,0.14,0.88,0.4,1.25c0.72,1.36,2.18,2.11,3.81,1.97c2.09-0.18,3.8-1.69,4.08-3.59
			c0.09-0.65,0.04-1.69-0.24-2.42l-0.01-0.03c0-0.04-0.01-0.07-0.02-0.11c-0.28-0.77-0.54-1.54-0.77-2.33
			c-0.22,0.07-0.43,0.14-0.63,0.25c-0.01,0.01-0.03,0.02-0.06,0.04l-0.07,0.05l-0.05-0.08c-0.67-1.03-1.87-1.68-3.3-1.78
			c-1.69-0.12-3.25,0.66-4.45,1.81c-3.74,3.57-2.57,8.18-0.68,11.26c0.3,0.55,0.65,1.07,1.04,1.52c0.16,0.19,0.34,0.37,0.52,0.54
			c0.01,0.01,0.02,0.03,0.03,0.04c0,0.02,0,0.01,0,0c2.2,2.09,5.37,2.87,8.13,1.94c1.94-0.65,3.2-2.25,4.43-3.79
			c0.15-0.19,0.3-0.37,0.45-0.56c-0.16-0.24-0.32-0.47-0.47-0.71C26.11,97.1,24.25,99.03,20.66,98.8z"/>
		<path class="st1" d="M70.6,118.79c2.36,1.22,5.03,1.45,7.52,0.63c0.72-0.24,1.49-0.6,2.21-1.04l0.13-0.06
			c0.39-0.19,0.81-0.52,1.23-0.95c1.06-0.94,2.69-2.86,1.69-5.12l-0.08-0.18l0.18,0.06c0.23,0.07,0.41,0.16,0.53,0.26l0.02,0.03
			c0.32,0.74,0.65,1.48,0.97,2.22l0.01,0.02l0,0.02c-0.04,0.43-0.14,0.85-0.3,1.25c-0.37,1.01-1.06,1.95-1.99,2.72
			c-1.63,1.36-3.9,1.87-6.22,1.4c0.02,0.06,0.06,0.12,0.08,0.13c1.89,0.69,4.06,0.51,5.81-0.46c1.52-0.85,2.55-2.23,2.89-3.88
			c0.2-0.95-0.33-3.16-1.35-4.1c-0.41-0.38-0.86-0.51-1.32-0.37l-0.16,0.05l0.05-0.16c0.51-1.48,1.7-2.5,2.96-2.55
			c0.71-0.03,2.04,0.26,2.97,2.45c0.94,2.23,0.13,4.86-0.45,6.23c-0.01,0.02-0.02,0.05-0.03,0.07l-0.03,0.06l-0.16-0.06
			c0.73-2.44,0.41-4.77-0.86-6.22c-0.5-0.58-1.19-0.93-1.89-0.97c-0.42-0.02-0.83,0.07-1.19,0.26c0.86-0.17,2.33,0.08,2.75,0.41
			c0.25,0.19,0.45,0.56,0.6,0.82l0.03,0.05c0.43,0.78,0.68,1.78,0.74,2.99c0.07,1.39-0.21,2.82-0.82,4.24
			c-1.39,2.2-3.51,3.9-6.65,5.35c0.06,0.04,0.16,0.09,0.2,0.1c3.12-0.43,6.28-2.64,8.05-5.64c1.42-2.41,1.71-4.99,0.82-7.27
			c-0.33-0.84-0.9-1.64-1.61-2.25l-0.02-0.03c-0.24-0.63-0.39-1.34-0.42-2.05c0.03-0.27,0.03-0.53,0.03-0.81l0-0.16
			c0.03-0.28,0.07-0.54,0.13-0.77c0.38-1.57,1.28-2.51,2.19-3.29l0.47-0.4l-0.02,0.03c0.19-0.15,0.38-0.3,0.58-0.45l0.13-0.1
			c-0.06-0.01-0.12-0.02-0.14-0.02c-0.19,0.05-0.37,0.12-0.56,0.2c-1.39,1.36-2.88,2.62-4.45,3.77c-0.21,0.29-0.38,0.6-0.56,0.95
			c-0.04,0.08-0.09,0.17-0.14,0.26c-0.3,0.56-0.66,1.14-1.13,1.83l-0.02,0.02l-0.03,0.01c-0.08,0.02-0.15,0.05-0.22,0.08l-0.22,0.09
			l0.11-0.21c0.15-0.28,0.29-0.57,0.44-0.85c0.26-0.51,0.51-1,0.78-1.48c-0.13,0.09-0.27,0.18-0.4,0.27
			c-0.07,0.15-0.14,0.3-0.21,0.45c-0.18,0.42-0.37,0.85-0.58,1.26c-0.11,0.21-0.23,0.44-0.37,0.68l-0.03,0.03
			c-0.6,0.39-0.99,0.97-1.11,1.63l-0.02,0.04c-1.22,1.51-2.75,2.71-4.8,3.75l-0.09-0.15c1.42-0.99,2.44-2.72,2.73-4.64
			c0.02-0.16,0.04-0.33,0.05-0.49c-0.06,0.03-0.12,0.06-0.18,0.09c0,0.26,0,0.51-0.03,0.76c-0.24,1.66-1.31,2.91-3.21,3.71
			c-1.64,0.69-4.08,0.57-5.4-1.01c-0.09-0.11-0.17-0.22-0.25-0.32c-0.23,0.05-0.46,0.11-0.69,0.16c0.12,0.37,0.28,0.71,0.51,1.02
			c0.68,0.9,1.76,1.43,3.21,1.57c0.71,0.07,1.41-0.01,2.07-0.25l0.27-0.09l-0.17,0.23c-0.01,0.01-0.01,0.02-0.02,0.03
			c1.94-0.53,3.77-1.66,5.29-3.25l0.27-0.28l-0.3,0.91c0,0.05,0.23,0.17,0.38,0.2c0.37,0.09,0.59,0.3,0.63,0.64
			c0.19,1.42-2.76,4.51-3.13,4.71c-2.27,1.25-3.79,0.68-6.1-0.19l-0.12-0.04c-0.38-0.14-0.72-0.26-1.02-0.37
			c-1.72-0.61-2.44-0.86-3.42-2.78c-0.27-0.53-0.47-1.08-0.62-1.65c-0.75,0.11-1.5,0.2-2.26,0.27c0.02,0.08,0.04,0.16,0.07,0.25
			C66.57,115.57,68.27,117.59,70.6,118.79z M83.13,112.04l0.01,0.06l-0.04,0.02l0.04,0l0.04,0.25l-0.17-0.13
			c-0.03-0.02-0.06-0.04-0.09-0.07l-0.34-0.23L83.13,112.04z M86.82,108.43c0.07-0.02,0.15-0.05,0.2-0.08l0.11-0.07l0.03,0.12
			c0.02,0.08,0.04,0.17,0.06,0.25l0.05,0.2l-0.18-0.1c-0.1-0.05-0.19-0.1-0.29-0.15l-0.23-0.11L86.82,108.43z M86.08,108.08
			l0.04,0.04c0.02,0.02,0.03,0.04,0.05,0.05l0.29,0.25l-0.37-0.11c-0.04-0.01-0.09-0.03-0.14-0.04l-0.31-0.08L86.08,108.08z
			 M84.9,108c0.07-0.1,0.14-0.2,0.21-0.31l0.16-0.23l0,0.28c0,0.08,0.01,0.16,0.01,0.23l0.01,0.07l-0.54,0.16L84.9,108z
			 M82.03,111.21c-0.05-0.02-0.11-0.03-0.16-0.04l-0.16-0.02l0.1-0.12c0.04-0.04,0.07-0.08,0.11-0.12l0.19-0.22l0.01,0.22
			c0,0.07,0.01,0.14,0.02,0.22l0.02,0.14L82.03,111.21z M71.34,117.98c1.28,0.62,2.7,1.02,4.11,1.15l-0.01,0.17
			c-0.53-0.04-1.1-0.12-1.74-0.26c-0.83-0.18-1.65-0.49-2.43-0.91L71.34,117.98z"/>
		<path class="st1" d="M32.92,101.29c0.27,0.2,0.5,0.37,0.71,0.53l0.04,0.03l0,0.03c0.82,1.38,1.15,2.71,1,3.93
			c0.24-1.16,0.1-2.39-0.63-3.44l-0.4-0.57l0.52,0.45c1.05,0.91,1.69,1.84,2.01,2.93l0.02,0.08c0.01,0.06,0.02,0.12,0.03,0.17
			c0.11,0.6,0.16,1.07,0.18,1.51c-0.01,0.64-0.11,1.27-0.31,1.88l-0.01,0.03l-0.02,0.02c-1.18,0.87-1.98,2.4-2.11,4.02
			c-0.4,5.16,3.96,10.52,9.36,11.57c0,0-0.01,0-0.01-0.01c-2.56-0.9-4.63-2.37-6.06-4.24c0,0-0.01,0-0.01-0.01
			c-0.01-0.01-0.02-0.03-0.03-0.04c-0.97-1.29-1.65-2.76-1.97-4.37c-0.24-1.21-0.37-2.99,0.34-4.55c0.38-0.84,0.82-1.36,1.46-1.77
			c0.53-0.33,1.38-0.33,2.27,0c1.08,0.41,1.93,1.18,2.16,1.97l0.04,0.15l-0.15-0.05c-0.49-0.15-1-0.09-1.46,0.16
			c-0.58,0.32-1.05,0.93-1.26,1.64c-0.42,1.44,0.22,2.93,0.63,3.69c1.67,3.02,5.08,4.35,8.14,3.17c-0.01-0.05-0.07-0.15-0.1-0.16
			c-2.66,0.52-5.15-0.09-6.81-1.67c-1.21-1.17-2.36-3.67-0.97-5.34c0.25-0.3,0.51-0.51,0.83-0.67l0.18-0.09l-0.05,0.19
			c-0.01,0.04-0.02,0.09-0.01,0.14l0,0.02l0,0.02c-0.47,1.5-0.2,2.95,0.77,4.2c1.51,1.93,4.65,3.21,7.47,3.04
			c3.84-0.22,7.46-2.81,9-6.45c0.08-0.18,0.13-0.38,0.19-0.58c-0.73-0.07-1.45-0.16-2.17-0.27c-0.23,0.7-0.54,1.38-0.95,2.01
			c-1.04,1.58-2.65,2.78-4.67,3.46c-0.76,0.27-1.57,0.42-2.38,0.44l-0.02,0l-0.02,0c-1.53-0.53-3.05-1.06-4.58-1.58l-0.03-0.02
			c-0.54-0.46-1.69-2.59-1.42-3.78c0.1-0.42,0.35-0.68,0.75-0.79c0.02-0.01,0.03-0.01,0.03-0.01l-0.2-0.64l0.24,0.23
			c1.47,1.41,3.26,2.39,5.16,2.84c0.01-0.01,0.04-0.04,0.07-0.08l0.04-0.05l0.06,0.02c1.44,0.41,2.94,0.14,4.11-0.74
			c0.62-0.46,1.1-1.06,1.43-1.74c-0.15-0.03-0.3-0.07-0.46-0.11c-0.33,0.54-0.85,1.03-1.63,1.4c-2.02,0.96-4.38-0.01-5.66-1.47
			c-0.87-0.99-1.41-2.03-1.6-3.09c-0.11-0.05-0.22-0.11-0.33-0.17c-0.14,1.37,0.1,2.61,0.74,3.6l0.28,0.43l-0.41-0.32
			c-1.87-1.45-3.25-3.19-4.22-5.3l-0.17-0.38c-0.04-0.1-0.09-0.19-0.13-0.29c-2.19-1.43-4.23-3.07-6.09-4.88
			c-0.23-0.11-0.46-0.21-0.7-0.28C32.98,101.29,32.95,101.29,32.92,101.29z"/>
		<path class="st1" d="M101.04,96.31c1.07,0.23,2.02-0.01,2.82-0.72c-0.09-0.01-0.23-0.01-0.27-0.01l-0.01,0l-0.01,0l-0.07,0
			c-1.17-0.05-2.34-0.11-3.51-0.16l-0.03,0l-0.86-0.63c-0.26-0.23-0.52-0.51-0.78-0.84c-0.39-0.49-0.72-1.06-1-1.66
			c-0.16,0.29-0.33,0.59-0.5,0.87C97.82,94.59,99.46,95.97,101.04,96.31z"/>
		<path class="st1" d="M110.6,86.44l-0.09-0.2c-0.27-0.58-0.61-1.1-0.99-1.58c-0.21-0.25-0.43-0.49-0.69-0.73
			c-0.99-0.86-2.28-1.33-3.64-1.29c-1.4,0.04-2.64,0.61-3.4,1.56l-0.06,0.07l-0.07-0.06c-0.21-0.18-0.5-0.25-0.82-0.25
			c-0.11,0.37-0.22,0.73-0.34,1.1c0.07-0.01,0.14-0.03,0.21-0.04l0.22-0.05l-0.13,0.18c-0.06,0.08-0.11,0.16-0.16,0.24l-0.07,0.11
			c-0.04,0.07-0.07,0.13-0.1,0.2l-0.04,0.08l-0.08-0.04c-0.02-0.01-0.05-0.02-0.08-0.03c-0.01,0.03-0.02,0.05-0.03,0.08c0,0,0,0,0,0
			l0.21,0.02l-0.16,0.13c-0.07,0.06-0.12,0.13-0.17,0.21c-0.12,0.35-0.26,0.69-0.39,1.04c-0.12,0.8-0.01,1.72,0.14,2.23
			c0.53,1.77,2.18,3.07,4.1,3.24c1.09,0.09,2.15-0.23,2.92-0.89c0.69-0.59,1.09-1.39,1.15-2.31c0.02-0.26,0-0.55-0.05-0.86
			c0.02-0.32-0.01-0.75-0.32-1.06l-0.02-0.02c-0.22-0.45-0.63-0.97-1.3-0.96c-0.01,0.07,0.03,0.22,0.05,0.26l0.27,0.25l-0.01,0.05
			c-0.27,1.52-1.21,2.27-2.79,2.23l-0.04,0l-0.03-0.04c-1.42-2.01-1.89-3.46-1.45-4.43c0.32-0.7,1.12-1.12,2.38-1.25
			c0.15-0.02,0.29-0.02,0.44-0.02c1.15,0,2.35,0.47,3.36,1.33c0.46,0.38,0.85,0.8,1.13,1.25l-0.05,0.04
			c0.21,0.32,0.39,0.66,0.54,1.01c0.05,0.17,0.09,0.34,0.13,0.55l0,0.01l0,0.01c-0.09,0.61-0.11,1.23-0.07,1.85l0,0.01l0,0.01
			c-0.09,0.41-0.22,0.82-0.4,1.25c0.16,0.55,0.26,1.09,0.29,1.61l0,0.02l-0.01,0.02c-0.34,0.81-0.82,1.56-1.39,2.24
			c0.48-0.54,0.9-1.14,1.24-1.77l0.18-0.34l-0.02,0.39c-0.06,1.48-0.75,2.72-2.03,3.7c-1.37,1.2-3.04,1.9-4.83,2.03
			c-3.7,0.25-5.44-1.76-7.36-4.14c-0.18,0.28-0.36,0.55-0.55,0.82c0.11,0.14,0.21,0.27,0.32,0.41c1,1.31,2.03,2.67,3.54,3.44
			c2.49,1.27,5.55,0.99,7.93-0.56c0.81-0.59,1.79-1.46,2.59-2.65c0.53-0.85,0.95-1.81,1.23-2.85c0.12-0.52,0.22-1.06,0.25-1.64
			c0.07-1.44,0.21-3.33-0.6-5.2L110.6,86.44z M105.91,89.4c0.19-0.19,0.35-0.42,0.48-0.66l0.2-0.38l-0.03,0.42
			c-0.02,0.27-0.05,0.49-0.1,0.68l-0.02,0.07l-0.08-0.01c-0.15-0.02-0.31,0.01-0.37,0.02l-0.26,0.04L105.91,89.4z"/>
		<path class="st1" d="M20.28,95.58c-0.03-0.01-0.17,0-0.26,0.01c0.95,0.83,2.56,0.74,3.76,0.37c1.33-0.41,2.48-1.38,3.32-2.74
			c-0.18-0.31-0.36-0.62-0.54-0.94C25.22,95.15,22.9,96.39,20.28,95.58z"/>
	</g>
	<path class="st2" d="M42.05,60.56c0,1.14,0.93,2.07,2.07,2.07h35.67c1.14,0,2.07-0.93,2.07-2.07s-0.93-2.07-2.07-2.07H44.12
		C42.98,58.5,42.05,59.43,42.05,60.56z"/>
	<path class="st2" d="M79.78,70.43H44.12c-1.14,0-2.07,0.93-2.07,2.07c0,1.14,0.93,2.07,2.07,2.07h35.67c1.14,0,2.07-0.93,2.07-2.07
		C81.85,71.36,80.92,70.43,79.78,70.43z"/>
	<path class="st2" d="M81.85,84.43c0-1.14-0.93-2.07-2.07-2.07H44.12c-1.14,0-2.07,0.93-2.07,2.07c0,1.14,0.93,2.07,2.07,2.07h35.67
		C80.92,86.5,81.85,85.57,81.85,84.43z"/>
</g>
</svg>
