<?xml version="1.0" encoding="utf-8"?>
<!-- Generator: Adobe Illustrator 25.3.1, SVG Export Plug-In . SVG Version: 6.00 Build 0)  -->
<svg version="1.1" id="Capa_1" xmlns="http://www.w3.org/2000/svg" xmlns:xlink="http://www.w3.org/1999/xlink" x="0px" y="0px"
	 viewBox="0 0 357.79 526.89" style="enable-background:new 0 0 357.79 526.89;" xml:space="preserve">
<style type="text/css">
	.st0{fill:url(#SVGID_1_);}
	.st1{fill:#FFFFFF;}
	.st2{filter:url(#Adobe_OpacityMaskFilter);}
	.st3{filter:url(#Adobe_OpacityMaskFilter_1_);}
	.st4{mask:url(#SVGID_2_);fill:url(#SVGID_3_);}
	.st5{fill:url(#SVGID_4_);}
	.st6{filter:url(#Adobe_OpacityMaskFilter_2_);}
	.st7{filter:url(#Adobe_OpacityMaskFilter_3_);}
	.st8{mask:url(#SVGID_5_);fill:url(#SVGID_6_);}
	.st9{fill:url(#SVGID_7_);}
	.st10{filter:url(#Adobe_OpacityMaskFilter_4_);}
	.st11{filter:url(#Adobe_OpacityMaskFilter_5_);}
	.st12{mask:url(#SVGID_8_);fill:url(#SVGID_9_);}
	.st13{fill:url(#SVGID_10_);}
	.st14{fill:none;stroke:#1A1A1A;stroke-width:2;stroke-miterlimit:10;}
</style>
<g>
	<g>
		<radialGradient id="SVGID_1_" cx="-183512.1562" cy="-44.4321" r="176967.8125" gradientUnits="userSpaceOnUse">
			<stop  offset="0.0988" style="stop-color:#FFFFFF"/>
			<stop  offset="1" style="stop-color:#ABABAB"/>
		</radialGradient>
		<path class="st0" d="M343.94,0h-0.74c0,0,0.02,0,0.06,0H185.64h-13.47H13.86c0,0-13.85,0.39-13.85,19.68l0,18.52
			c0-0.04-0.01-0.09-0.01-0.13v454.32c0-0.02,0.01-0.03,0.01-0.05v14.87c0,19.28,13.85,19.67,13.85,19.67h0.74h157.57h0h13.47h0
			h158.3c0,0,0.01,0,0.04,0c0.03,0,0.07,0,0.13-0.01c0.79-0.06,4.19-0.47,7.4-3.1c3.23-2.64,6.28-7.53,6.28-16.57V375.79V151.1
			V19.68C357.79,0.4,343.94,0,343.94,0z"/>
	</g>
	<g>
		<g>
			<path class="st1" d="M343.94,0h-158.3h-13.47H13.86c0,0-13.85,0.39-13.85,19.68l0,131.42v111.77v21.57v91.34v131.43
				c0,19.28,13.85,19.67,13.85,19.67h158.3h13.47h158.3c0,0,13.85-0.4,13.85-19.67V375.79v-91.44v-21.34V151.1V19.68
				C357.79,0.4,343.94,0,343.94,0z"/>
			<g>
				<defs>
					<filter id="Adobe_OpacityMaskFilter" filterUnits="userSpaceOnUse" x="6.6" y="0" width="351.19" height="526.89">
						<feFlood  style="flood-color:white;flood-opacity:1" result="back"/>
						<feBlend  in="SourceGraphic" in2="back" mode="normal"/>
					</filter>
				</defs>
				<mask maskUnits="userSpaceOnUse" x="6.6" y="0" width="351.19" height="526.89" id="SVGID_2_">
					<g class="st2">
						<defs>
							<filter id="Adobe_OpacityMaskFilter_1_" filterUnits="userSpaceOnUse" x="6.6" y="0" width="351.19" height="526.89">
								<feFlood  style="flood-color:white;flood-opacity:1" result="back"/>
								<feBlend  in="SourceGraphic" in2="back" mode="normal"/>
							</filter>
						</defs>
						<mask maskUnits="userSpaceOnUse" x="6.6" y="0" width="351.19" height="526.89" id="SVGID_2_">
						</mask>
						
							<radialGradient id="SVGID_3_" cx="-177.5198" cy="24.3717" r="612.4113" gradientTransform="matrix(0.941 0 0 0.9898 151.7522 -24.3614)" gradientUnits="userSpaceOnUse">
							<stop  offset="0.0988" style="stop-color:#000000"/>
							<stop  offset="1" style="stop-color:#FFFFFF"/>
						</radialGradient>
						<path class="st4" d="M357.06,19.65v131.24v224.36l0,131.23c0,19.25-13.86,19.65-13.86,19.65H184.74h-13.49H12.79
							c0,0-2.99-0.09-6.19-2.1c3.57,2.75,7.26,2.87,7.26,2.87h158.31h13.47h158.3c0,0,13.85-0.4,13.85-19.68V375.79V151.1V19.68
							C357.79,0.4,343.94,0,343.94,0h-0.74C343.2,0,357.06,0.4,357.06,19.65z"/>
					</g>
				</mask>
				
					<radialGradient id="SVGID_4_" cx="-177.5198" cy="24.3717" r="612.4113" gradientTransform="matrix(0.941 0 0 0.9898 151.7522 -24.3614)" gradientUnits="userSpaceOnUse">
					<stop  offset="0.0988" style="stop-color:#FFFFFF"/>
					<stop  offset="1" style="stop-color:#ABABAB"/>
				</radialGradient>
				<path class="st5" d="M357.06,19.65v131.24v224.36l0,131.23c0,19.25-13.86,19.65-13.86,19.65H184.74h-13.49H12.79
					c0,0-2.99-0.09-6.19-2.1c3.57,2.75,7.26,2.87,7.26,2.87h158.31h13.47h158.3c0,0,13.85-0.4,13.85-19.68V375.79V151.1V19.68
					C357.79,0.4,343.94,0,343.94,0h-0.74C343.2,0,357.06,0.4,357.06,19.65z"/>
			</g>
			<defs>
				<filter id="Adobe_OpacityMaskFilter_2_" filterUnits="userSpaceOnUse" x="0.01" y="0" width="351.19" height="526.89">
					<feFlood  style="flood-color:white;flood-opacity:1" result="back"/>
					<feBlend  in="SourceGraphic" in2="back" mode="normal"/>
				</filter>
			</defs>
			<mask maskUnits="userSpaceOnUse" x="0.01" y="0" width="351.19" height="526.89" id="SVGID_5_">
				<g class="st6">
					<defs>
						<filter id="Adobe_OpacityMaskFilter_3_" filterUnits="userSpaceOnUse" x="0.01" y="0" width="351.19" height="526.89">
							<feFlood  style="flood-color:white;flood-opacity:1" result="back"/>
							<feBlend  in="SourceGraphic" in2="back" mode="normal"/>
						</filter>
					</defs>
					<mask maskUnits="userSpaceOnUse" x="0.01" y="0" width="351.19" height="526.89" id="SVGID_5_">
					</mask>
					
						<radialGradient id="SVGID_6_" cx="-57.402" cy="179.5266" r="521.6085" gradientTransform="matrix(0.941 0 0 0.9898 151.7522 -24.3614)" gradientUnits="userSpaceOnUse">
						<stop  offset="0" style="stop-color:#000000"/>
						<stop  offset="7.380247e-03" style="stop-color:#090909"/>
						<stop  offset="0.0477" style="stop-color:#373737"/>
						<stop  offset="0.0931" style="stop-color:#626262"/>
						<stop  offset="0.1419" style="stop-color:#888888"/>
						<stop  offset="0.195" style="stop-color:#A8A8A8"/>
						<stop  offset="0.2537" style="stop-color:#C4C4C4"/>
						<stop  offset="0.32" style="stop-color:#DADADA"/>
						<stop  offset="0.3974" style="stop-color:#EBEBEB"/>
						<stop  offset="0.4931" style="stop-color:#F6F6F6"/>
						<stop  offset="0.6274" style="stop-color:#FDFDFD"/>
						<stop  offset="1" style="stop-color:#FFFFFF"/>
					</radialGradient>
					<path class="st8" d="M0.74,507.24V376.01V151.65V20.41C0.74,1.16,14.6,0.76,14.6,0.76h158.46h13.49h158.47
						c0,0,2.99,0.09,6.19,2.11C347.63,0.11,343.94,0,343.94,0h-158.3h-13.47H13.86c0,0-13.85,0.39-13.85,19.68l0,131.42v224.68
						v131.43c0,19.28,13.85,19.67,13.85,19.67h0.74C14.6,526.89,0.74,526.49,0.74,507.24z"/>
				</g>
			</mask>
			
				<radialGradient id="SVGID_7_" cx="-57.402" cy="179.5266" r="521.6085" gradientTransform="matrix(0.941 0 0 0.9898 151.7522 -24.3614)" gradientUnits="userSpaceOnUse">
				<stop  offset="0" style="stop-color:#FFFFFF"/>
				<stop  offset="0.1413" style="stop-color:#FFFFFF"/>
				<stop  offset="1" style="stop-color:#FFFFFF"/>
			</radialGradient>
			<path class="st9" d="M0.74,507.24V376.01V151.65V20.41C0.74,1.16,14.6,0.76,14.6,0.76h158.46h13.49h158.47
				c0,0,2.99,0.09,6.19,2.11C347.63,0.11,343.94,0,343.94,0h-158.3h-13.47H13.86c0,0-13.85,0.39-13.85,19.68l0,131.42v224.68v131.43
				c0,19.28,13.85,19.67,13.85,19.67h0.74C14.6,526.89,0.74,526.49,0.74,507.24z"/>
			<g>
				<defs>
					<filter id="Adobe_OpacityMaskFilter_4_" filterUnits="userSpaceOnUse" x="0" y="38.07" width="0.73" height="454.32">
						<feFlood  style="flood-color:white;flood-opacity:1" result="back"/>
						<feBlend  in="SourceGraphic" in2="back" mode="normal"/>
					</filter>
				</defs>
				<mask maskUnits="userSpaceOnUse" x="0" y="38.07" width="0.73" height="454.32" id="SVGID_8_">
					<g class="st10">
						<defs>
							<filter id="Adobe_OpacityMaskFilter_5_" filterUnits="userSpaceOnUse" x="0" y="38.07" width="0.73" height="454.32">
								<feFlood  style="flood-color:white;flood-opacity:1" result="back"/>
								<feBlend  in="SourceGraphic" in2="back" mode="normal"/>
							</filter>
						</defs>
						<mask maskUnits="userSpaceOnUse" x="0" y="38.07" width="0.73" height="454.32" id="SVGID_8_">
						</mask>
						
							<radialGradient id="SVGID_9_" cx="10534.7568" cy="24.3694" r="612.767" gradientTransform="matrix(-0.941 0 0 0.9898 10286.7646 -24.3614)" gradientUnits="userSpaceOnUse">
							<stop  offset="0.0988" style="stop-color:#000000"/>
							<stop  offset="1" style="stop-color:#FFFFFF"/>
						</radialGradient>
						<path class="st12" d="M0,38.07v454.32c0.24-0.92,0.48-1.84,0.72-2.76l0-114.39V46.31C0.48,43.56,0.24,40.82,0,38.07z"/>
					</g>
				</mask>
				
					<radialGradient id="SVGID_10_" cx="10534.7568" cy="24.3694" r="612.767" gradientTransform="matrix(-0.941 0 0 0.9898 10286.7646 -24.3614)" gradientUnits="userSpaceOnUse">
					<stop  offset="0.0988" style="stop-color:#FFFFFF"/>
					<stop  offset="1" style="stop-color:#ABABAB"/>
				</radialGradient>
				<path class="st13" d="M0,38.07v454.32c0.24-0.92,0.48-1.84,0.72-2.76l0-114.39V46.31C0.48,43.56,0.24,40.82,0,38.07z"/>
			</g>
		</g>
	</g>
	<path class="st14" d="M336.87,480.19c0,26.93,0.89,26.93-28.31,26.93L48.6,506.6c-28.21,0.52-28.21,0.52-28.21-27.02L21.27,45.5
		c0-26.93-0.89-26.93,28.31-26.93l259.96,0.52c28.21,0,28.21-0.52,28.21,27.03L336.87,480.19z"/>
	<g>
		<path d="M38.14,53.55v-0.43c1.7-0.39,3.14-0.96,4.32-1.72c1.18-0.76,2.12-1.69,2.81-2.81c0.69-1.12,1.18-2.4,1.45-3.86
			c-0.64,0.33-1.18,0.56-1.62,0.68c-0.45,0.13-0.91,0.19-1.41,0.19c-1.58,0-2.89-0.57-3.94-1.71c-1.05-1.14-1.57-2.69-1.57-4.67
			c0-1.37,0.28-2.63,0.85-3.77s1.38-2.03,2.43-2.66c1.05-0.63,2.15-0.95,3.29-0.95c1.22,0,2.37,0.35,3.46,1.04s1.95,1.71,2.6,3.03
			c0.65,1.32,0.97,2.83,0.97,4.52c0,2.19-0.52,4.29-1.57,6.3c-1.05,2.01-2.61,3.62-4.69,4.83C43.43,52.79,40.97,53.45,38.14,53.55z
			 M46.95,43.44c0.1-1.15,0.15-2.16,0.15-3.03c0-1.86-0.21-3.6-0.65-5.21c-0.25-0.89-0.61-1.55-1.09-1.97
			c-0.26-0.23-0.59-0.34-1-0.34c-0.51,0-0.91,0.22-1.2,0.66c-0.4,0.6-0.6,1.76-0.6,3.46c0,2.84,0.34,4.79,1.01,5.87
			c0.44,0.7,1.03,1.04,1.78,1.04C45.77,43.94,46.3,43.77,46.95,43.44z"/>
	</g>
	<g>
		<path d="M317.63,463.87v0.43c-1.7,0.39-3.14,0.96-4.32,1.72c-1.18,0.76-2.12,1.69-2.81,2.81c-0.69,1.12-1.18,2.4-1.45,3.86
			c0.64-0.33,1.18-0.56,1.62-0.68c0.45-0.13,0.91-0.19,1.41-0.19c1.58,0,2.89,0.57,3.94,1.71c1.05,1.14,1.57,2.69,1.57,4.67
			c0,1.37-0.28,2.63-0.85,3.77s-1.38,2.03-2.43,2.66c-1.05,0.63-2.15,0.95-3.29,0.95c-1.22,0-2.37-0.35-3.46-1.04
			s-1.95-1.71-2.6-3.03c-0.65-1.32-0.97-2.83-0.97-4.52c0-2.19,0.52-4.29,1.57-6.3c1.05-2.01,2.61-3.62,4.69-4.83
			C312.34,464.63,314.8,463.97,317.63,463.87z M308.82,473.98c-0.1,1.15-0.15,2.16-0.15,3.03c0,1.86,0.21,3.6,0.65,5.21
			c0.25,0.89,0.61,1.55,1.09,1.97c0.26,0.23,0.59,0.34,1,0.34c0.51,0,0.91-0.22,1.2-0.66c0.4-0.6,0.6-1.76,0.6-3.46
			c0-2.84-0.34-4.79-1.01-5.87c-0.44-0.7-1.03-1.04-1.78-1.04C310,473.49,309.47,473.65,308.82,473.98z"/>
	</g>
</g>
</svg>
