<?xml version="1.0" encoding="utf-8"?>
<!-- Generator: Adobe Illustrator 25.3.1, SVG Export Plug-In . SVG Version: 6.00 Build 0)  -->
<svg version="1.1" id="Capa_1" xmlns="http://www.w3.org/2000/svg" xmlns:xlink="http://www.w3.org/1999/xlink" x="0px" y="0px"
	 viewBox="0 0 357.79 526.89" style="enable-background:new 0 0 357.79 526.89;" xml:space="preserve">
<style type="text/css">
	.st0{fill:url(#SVGID_1_);}
	.st1{fill:#FFFFFF;}
	.st2{filter:url(#Adobe_OpacityMaskFilter);}
	.st3{filter:url(#Adobe_OpacityMaskFilter_1_);}
	.st4{mask:url(#SVGID_2_);fill:url(#SVGID_3_);}
	.st5{fill:url(#SVGID_4_);}
	.st6{filter:url(#Adobe_OpacityMaskFilter_2_);}
	.st7{filter:url(#Adobe_OpacityMaskFilter_3_);}
	.st8{mask:url(#SVGID_5_);fill:url(#SVGID_6_);}
	.st9{fill:url(#SVGID_7_);}
	.st10{filter:url(#Adobe_OpacityMaskFilter_4_);}
	.st11{filter:url(#Adobe_OpacityMaskFilter_5_);}
	.st12{mask:url(#SVGID_8_);fill:url(#SVGID_9_);}
	.st13{fill:url(#SVGID_10_);}
	.st14{fill:none;stroke:#1A1A1A;stroke-width:2;stroke-miterlimit:10;}
</style>
<g>
	<g>
		<radialGradient id="SVGID_1_" cx="-183512.1562" cy="-44.4321" r="176967.8125" gradientUnits="userSpaceOnUse">
			<stop  offset="0.0988" style="stop-color:#FFFFFF"/>
			<stop  offset="1" style="stop-color:#ABABAB"/>
		</radialGradient>
		<path class="st0" d="M343.94,0h-0.74c0,0,0.02,0,0.06,0H185.64h-13.47H13.86c0,0-13.85,0.39-13.85,19.68l0,18.52
			c0-0.04-0.01-0.09-0.01-0.13v454.32c0-0.02,0.01-0.03,0.01-0.05v14.87c0,19.28,13.85,19.67,13.85,19.67h0.74h157.57h0h13.47h0
			h158.3c0,0,0.01,0,0.04,0c0.03,0,0.07,0,0.13-0.01c0.79-0.06,4.19-0.47,7.4-3.1c3.23-2.64,6.28-7.53,6.28-16.57V375.79V151.1
			V19.68C357.79,0.4,343.94,0,343.94,0z"/>
	</g>
	<g>
		<g>
			<path class="st1" d="M343.94,0h-158.3h-13.47H13.86c0,0-13.85,0.39-13.85,19.68l0,131.42v111.77v21.57v91.34v131.43
				c0,19.28,13.85,19.67,13.85,19.67h158.3h13.47h158.3c0,0,13.85-0.4,13.85-19.67V375.79v-91.44v-21.34V151.1V19.68
				C357.79,0.4,343.94,0,343.94,0z"/>
			<g>
				<defs>
					<filter id="Adobe_OpacityMaskFilter" filterUnits="userSpaceOnUse" x="6.6" y="0" width="351.19" height="526.89">
						<feFlood  style="flood-color:white;flood-opacity:1" result="back"/>
						<feBlend  in="SourceGraphic" in2="back" mode="normal"/>
					</filter>
				</defs>
				<mask maskUnits="userSpaceOnUse" x="6.6" y="0" width="351.19" height="526.89" id="SVGID_2_">
					<g class="st2">
						<defs>
							<filter id="Adobe_OpacityMaskFilter_1_" filterUnits="userSpaceOnUse" x="6.6" y="0" width="351.19" height="526.89">
								<feFlood  style="flood-color:white;flood-opacity:1" result="back"/>
								<feBlend  in="SourceGraphic" in2="back" mode="normal"/>
							</filter>
						</defs>
						<mask maskUnits="userSpaceOnUse" x="6.6" y="0" width="351.19" height="526.89" id="SVGID_2_">
						</mask>
						
							<radialGradient id="SVGID_3_" cx="-9.9875" cy="24.3717" r="612.4113" gradientTransform="matrix(0.941 0 0 0.9898 -5.8945 -24.3614)" gradientUnits="userSpaceOnUse">
							<stop  offset="0.0988" style="stop-color:#000000"/>
							<stop  offset="1" style="stop-color:#FFFFFF"/>
						</radialGradient>
						<path class="st4" d="M357.06,19.65v131.24v224.36l0,131.23c0,19.25-13.86,19.65-13.86,19.65H184.74h-13.49H12.79
							c0,0-2.99-0.09-6.19-2.1c3.57,2.75,7.26,2.87,7.26,2.87h158.31h13.47h158.3c0,0,13.85-0.4,13.85-19.68V375.79V151.1V19.68
							C357.79,0.4,343.94,0,343.94,0h-0.74C343.2,0,357.06,0.4,357.06,19.65z"/>
					</g>
				</mask>
				
					<radialGradient id="SVGID_4_" cx="-9.9875" cy="24.3717" r="612.4113" gradientTransform="matrix(0.941 0 0 0.9898 -5.8945 -24.3614)" gradientUnits="userSpaceOnUse">
					<stop  offset="0.0988" style="stop-color:#FFFFFF"/>
					<stop  offset="1" style="stop-color:#ABABAB"/>
				</radialGradient>
				<path class="st5" d="M357.06,19.65v131.24v224.36l0,131.23c0,19.25-13.86,19.65-13.86,19.65H184.74h-13.49H12.79
					c0,0-2.99-0.09-6.19-2.1c3.57,2.75,7.26,2.87,7.26,2.87h158.31h13.47h158.3c0,0,13.85-0.4,13.85-19.68V375.79V151.1V19.68
					C357.79,0.4,343.94,0,343.94,0h-0.74C343.2,0,357.06,0.4,357.06,19.65z"/>
			</g>
			<defs>
				<filter id="Adobe_OpacityMaskFilter_2_" filterUnits="userSpaceOnUse" x="0.01" y="0" width="351.19" height="526.89">
					<feFlood  style="flood-color:white;flood-opacity:1" result="back"/>
					<feBlend  in="SourceGraphic" in2="back" mode="normal"/>
				</filter>
			</defs>
			<mask maskUnits="userSpaceOnUse" x="0.01" y="0" width="351.19" height="526.89" id="SVGID_5_">
				<g class="st6">
					<defs>
						<filter id="Adobe_OpacityMaskFilter_3_" filterUnits="userSpaceOnUse" x="0.01" y="0" width="351.19" height="526.89">
							<feFlood  style="flood-color:white;flood-opacity:1" result="back"/>
							<feBlend  in="SourceGraphic" in2="back" mode="normal"/>
						</filter>
					</defs>
					<mask maskUnits="userSpaceOnUse" x="0.01" y="0" width="351.19" height="526.89" id="SVGID_5_">
					</mask>
					
						<radialGradient id="SVGID_6_" cx="110.1303" cy="179.5266" r="521.6085" gradientTransform="matrix(0.941 0 0 0.9898 -5.8945 -24.3614)" gradientUnits="userSpaceOnUse">
						<stop  offset="0" style="stop-color:#000000"/>
						<stop  offset="7.380247e-03" style="stop-color:#090909"/>
						<stop  offset="0.0477" style="stop-color:#373737"/>
						<stop  offset="0.0931" style="stop-color:#626262"/>
						<stop  offset="0.1419" style="stop-color:#888888"/>
						<stop  offset="0.195" style="stop-color:#A8A8A8"/>
						<stop  offset="0.2537" style="stop-color:#C4C4C4"/>
						<stop  offset="0.32" style="stop-color:#DADADA"/>
						<stop  offset="0.3974" style="stop-color:#EBEBEB"/>
						<stop  offset="0.4931" style="stop-color:#F6F6F6"/>
						<stop  offset="0.6274" style="stop-color:#FDFDFD"/>
						<stop  offset="1" style="stop-color:#FFFFFF"/>
					</radialGradient>
					<path class="st8" d="M0.74,507.24V376.01V151.65V20.41C0.74,1.16,14.6,0.76,14.6,0.76h158.46h13.49h158.47
						c0,0,2.99,0.09,6.19,2.11C347.63,0.11,343.94,0,343.94,0h-158.3h-13.47H13.86c0,0-13.85,0.39-13.85,19.68l0,131.42v224.68
						v131.43c0,19.28,13.85,19.67,13.85,19.67h0.74C14.6,526.89,0.74,526.49,0.74,507.24z"/>
				</g>
			</mask>
			
				<radialGradient id="SVGID_7_" cx="110.1303" cy="179.5266" r="521.6085" gradientTransform="matrix(0.941 0 0 0.9898 -5.8945 -24.3614)" gradientUnits="userSpaceOnUse">
				<stop  offset="0" style="stop-color:#FFFFFF"/>
				<stop  offset="0.1413" style="stop-color:#FFFFFF"/>
				<stop  offset="1" style="stop-color:#FFFFFF"/>
			</radialGradient>
			<path class="st9" d="M0.74,507.24V376.01V151.65V20.41C0.74,1.16,14.6,0.76,14.6,0.76h158.46h13.49h158.47
				c0,0,2.99,0.09,6.19,2.11C347.63,0.11,343.94,0,343.94,0h-158.3h-13.47H13.86c0,0-13.85,0.39-13.85,19.68l0,131.42v224.68v131.43
				c0,19.28,13.85,19.67,13.85,19.67h0.74C14.6,526.89,0.74,526.49,0.74,507.24z"/>
			<g>
				<defs>
					<filter id="Adobe_OpacityMaskFilter_4_" filterUnits="userSpaceOnUse" x="0" y="38.07" width="0.73" height="454.32">
						<feFlood  style="flood-color:white;flood-opacity:1" result="back"/>
						<feBlend  in="SourceGraphic" in2="back" mode="normal"/>
					</filter>
				</defs>
				<mask maskUnits="userSpaceOnUse" x="0" y="38.07" width="0.73" height="454.32" id="SVGID_8_">
					<g class="st10">
						<defs>
							<filter id="Adobe_OpacityMaskFilter_5_" filterUnits="userSpaceOnUse" x="0" y="38.07" width="0.73" height="454.32">
								<feFlood  style="flood-color:white;flood-opacity:1" result="back"/>
								<feBlend  in="SourceGraphic" in2="back" mode="normal"/>
							</filter>
						</defs>
						<mask maskUnits="userSpaceOnUse" x="0" y="38.07" width="0.73" height="454.32" id="SVGID_8_">
						</mask>
						
							<radialGradient id="SVGID_9_" cx="5023.9053" cy="24.3694" r="612.767" gradientTransform="matrix(-0.941 0 0 0.9898 5101.0923 -24.3614)" gradientUnits="userSpaceOnUse">
							<stop  offset="0.0988" style="stop-color:#000000"/>
							<stop  offset="1" style="stop-color:#FFFFFF"/>
						</radialGradient>
						<path class="st12" d="M0,38.07v454.32c0.24-0.92,0.48-1.84,0.72-2.76l0-114.39V46.31C0.48,43.56,0.24,40.82,0,38.07z"/>
					</g>
				</mask>
				
					<radialGradient id="SVGID_10_" cx="5023.9053" cy="24.3694" r="612.767" gradientTransform="matrix(-0.941 0 0 0.9898 5101.0923 -24.3614)" gradientUnits="userSpaceOnUse">
					<stop  offset="0.0988" style="stop-color:#FFFFFF"/>
					<stop  offset="1" style="stop-color:#ABABAB"/>
				</radialGradient>
				<path class="st13" d="M0,38.07v454.32c0.24-0.92,0.48-1.84,0.72-2.76l0-114.39V46.31C0.48,43.56,0.24,40.82,0,38.07z"/>
			</g>
		</g>
	</g>
	<path class="st14" d="M336.87,480.19c0,26.93,0.89,26.93-28.31,26.93L48.6,506.6c-28.21,0.52-28.21,0.52-28.21-27.02L21.27,45.5
		c0-26.93-0.89-26.93,28.31-26.93l259.96,0.52c28.21,0,28.21-0.52,28.21,27.03L336.87,480.19z"/>
	<g>
		<path d="M50.2,53.12H37.94v-0.34c3.76-4.47,6.04-7.49,6.84-9.03c0.8-1.55,1.21-3.06,1.21-4.53c0-1.08-0.33-1.97-1-2.68
			c-0.67-0.71-1.48-1.07-2.44-1.07c-1.58,0-2.8,0.79-3.67,2.37l-0.57-0.2c0.55-1.97,1.39-3.42,2.52-4.36
			c1.13-0.94,2.43-1.41,3.9-1.41c1.05,0,2.02,0.25,2.89,0.74c0.87,0.49,1.55,1.17,2.04,2.02c0.49,0.85,0.74,1.66,0.74,2.4
			c0,1.36-0.38,2.74-1.14,4.15c-1.03,1.89-3.29,4.54-6.77,7.92h4.5c1.11,0,1.82-0.05,2.16-0.14c0.33-0.09,0.61-0.25,0.82-0.47
			c0.21-0.22,0.5-0.68,0.84-1.39h0.55L50.2,53.12z"/>
	</g>
	<g>
		<path d="M305.58,464.3h12.26v0.34c-3.76,4.47-6.04,7.49-6.84,9.03c-0.8,1.55-1.21,3.06-1.21,4.53c0,1.08,0.33,1.97,1,2.68
			c0.67,0.71,1.48,1.07,2.44,1.07c1.58,0,2.8-0.79,3.67-2.37l0.57,0.2c-0.55,1.97-1.39,3.42-2.52,4.36
			c-1.13,0.94-2.43,1.41-3.9,1.41c-1.05,0-2.02-0.25-2.89-0.74c-0.87-0.49-1.55-1.17-2.04-2.02c-0.49-0.85-0.74-1.66-0.74-2.4
			c0-1.36,0.38-2.74,1.14-4.15c1.03-1.89,3.29-4.54,6.77-7.92h-4.5c-1.11,0-1.82,0.05-2.16,0.14c-0.33,0.09-0.61,0.25-0.82,0.47
			c-0.21,0.22-0.5,0.68-0.84,1.39h-0.55L305.58,464.3z"/>
	</g>
</g>
</svg>
