<?xml version="1.0" encoding="utf-8"?>
<!-- Generator: Adobe Illustrator 25.3.1, SVG Export Plug-In . SVG Version: 6.00 Build 0)  -->
<svg version="1.1" id="Capa_1" xmlns="http://www.w3.org/2000/svg" xmlns:xlink="http://www.w3.org/1999/xlink" x="0px" y="0px"
	 viewBox="0 0 357.79 526.89" style="enable-background:new 0 0 357.79 526.89;" xml:space="preserve">
<style type="text/css">
	.st0{fill:url(#SVGID_1_);}
	.st1{fill:#FFFFFF;}
	.st2{filter:url(#Adobe_OpacityMaskFilter);}
	.st3{filter:url(#Adobe_OpacityMaskFilter_1_);}
	.st4{mask:url(#SVGID_2_);fill:url(#SVGID_3_);}
	.st5{fill:url(#SVGID_4_);}
	.st6{filter:url(#Adobe_OpacityMaskFilter_2_);}
	.st7{filter:url(#Adobe_OpacityMaskFilter_3_);}
	.st8{mask:url(#SVGID_5_);fill:url(#SVGID_6_);}
	.st9{fill:url(#SVGID_7_);}
	.st10{filter:url(#Adobe_OpacityMaskFilter_4_);}
	.st11{filter:url(#Adobe_OpacityMaskFilter_5_);}
	.st12{mask:url(#SVGID_8_);fill:url(#SVGID_9_);}
	.st13{fill:url(#SVGID_10_);}
	.st14{fill:none;stroke:#1A1A1A;stroke-width:2;stroke-miterlimit:10;}
</style>
<g>
	<g>
		<radialGradient id="SVGID_1_" cx="-183512.1562" cy="-44.4321" r="176967.8125" gradientUnits="userSpaceOnUse">
			<stop  offset="0.0988" style="stop-color:#FFFFFF"/>
			<stop  offset="1" style="stop-color:#ABABAB"/>
		</radialGradient>
		<path class="st0" d="M343.94,0h-0.74c0,0,0.02,0,0.06,0H185.64h-13.47H13.86c0,0-13.85,0.39-13.85,19.68l0,18.52
			c0-0.04-0.01-0.09-0.01-0.13v454.32c0-0.02,0.01-0.03,0.01-0.05v14.87c0,19.28,13.85,19.67,13.85,19.67h0.74h157.57h0h13.47h0
			h158.3c0,0,0.01,0,0.04,0c0.03,0,0.07,0,0.13-0.01c0.79-0.06,4.19-0.47,7.4-3.1c3.23-2.64,6.28-7.53,6.28-16.57V375.79V151.1
			V19.68C357.79,0.4,343.94,0,343.94,0z"/>
	</g>
	<g>
		<g>
			<path class="st1" d="M343.94,0h-158.3h-13.47H13.86c0,0-13.85,0.39-13.85,19.68l0,131.42v111.77v21.57v91.34v131.43
				c0,19.28,13.85,19.67,13.85,19.67h158.3h13.47h158.3c0,0,13.85-0.4,13.85-19.67V375.79v-91.44v-21.34V151.1V19.68
				C357.79,0.4,343.94,0,343.94,0z"/>
			<g>
				<defs>
					<filter id="Adobe_OpacityMaskFilter" filterUnits="userSpaceOnUse" x="6.6" y="0" width="351.19" height="526.89">
						<feFlood  style="flood-color:white;flood-opacity:1" result="back"/>
						<feBlend  in="SourceGraphic" in2="back" mode="normal"/>
					</filter>
				</defs>
				<mask maskUnits="userSpaceOnUse" x="6.6" y="0" width="351.19" height="526.89" id="SVGID_2_">
					<g class="st2">
						<defs>
							<filter id="Adobe_OpacityMaskFilter_1_" filterUnits="userSpaceOnUse" x="6.6" y="0" width="351.19" height="526.89">
								<feFlood  style="flood-color:white;flood-opacity:1" result="back"/>
								<feBlend  in="SourceGraphic" in2="back" mode="normal"/>
							</filter>
						</defs>
						<mask maskUnits="userSpaceOnUse" x="6.6" y="0" width="351.19" height="526.89" id="SVGID_2_">
						</mask>
						
							<radialGradient id="SVGID_3_" cx="-34.0991" cy="24.3717" r="612.4113" gradientTransform="matrix(0.941 0 0 0.9898 16.7943 -24.3614)" gradientUnits="userSpaceOnUse">
							<stop  offset="0.0988" style="stop-color:#000000"/>
							<stop  offset="1" style="stop-color:#FFFFFF"/>
						</radialGradient>
						<path class="st4" d="M357.06,19.65v131.24v224.36l0,131.23c0,19.25-13.86,19.65-13.86,19.65H184.74h-13.49H12.79
							c0,0-2.99-0.09-6.19-2.1c3.57,2.75,7.26,2.87,7.26,2.87h158.31h13.47h158.3c0,0,13.85-0.4,13.85-19.68V375.79V151.1V19.68
							C357.79,0.4,343.94,0,343.94,0h-0.74C343.2,0,357.06,0.4,357.06,19.65z"/>
					</g>
				</mask>
				
					<radialGradient id="SVGID_4_" cx="-34.0991" cy="24.3717" r="612.4113" gradientTransform="matrix(0.941 0 0 0.9898 16.7943 -24.3614)" gradientUnits="userSpaceOnUse">
					<stop  offset="0.0988" style="stop-color:#FFFFFF"/>
					<stop  offset="1" style="stop-color:#ABABAB"/>
				</radialGradient>
				<path class="st5" d="M357.06,19.65v131.24v224.36l0,131.23c0,19.25-13.86,19.65-13.86,19.65H184.74h-13.49H12.79
					c0,0-2.99-0.09-6.19-2.1c3.57,2.75,7.26,2.87,7.26,2.87h158.31h13.47h158.3c0,0,13.85-0.4,13.85-19.68V375.79V151.1V19.68
					C357.79,0.4,343.94,0,343.94,0h-0.74C343.2,0,357.06,0.4,357.06,19.65z"/>
			</g>
			<defs>
				<filter id="Adobe_OpacityMaskFilter_2_" filterUnits="userSpaceOnUse" x="0.01" y="0" width="351.19" height="526.89">
					<feFlood  style="flood-color:white;flood-opacity:1" result="back"/>
					<feBlend  in="SourceGraphic" in2="back" mode="normal"/>
				</filter>
			</defs>
			<mask maskUnits="userSpaceOnUse" x="0.01" y="0" width="351.19" height="526.89" id="SVGID_5_">
				<g class="st6">
					<defs>
						<filter id="Adobe_OpacityMaskFilter_3_" filterUnits="userSpaceOnUse" x="0.01" y="0" width="351.19" height="526.89">
							<feFlood  style="flood-color:white;flood-opacity:1" result="back"/>
							<feBlend  in="SourceGraphic" in2="back" mode="normal"/>
						</filter>
					</defs>
					<mask maskUnits="userSpaceOnUse" x="0.01" y="0" width="351.19" height="526.89" id="SVGID_5_">
					</mask>
					
						<radialGradient id="SVGID_6_" cx="86.0188" cy="179.5266" r="521.6085" gradientTransform="matrix(0.941 0 0 0.9898 16.7943 -24.3614)" gradientUnits="userSpaceOnUse">
						<stop  offset="0" style="stop-color:#000000"/>
						<stop  offset="7.380247e-03" style="stop-color:#090909"/>
						<stop  offset="0.0477" style="stop-color:#373737"/>
						<stop  offset="0.0931" style="stop-color:#626262"/>
						<stop  offset="0.1419" style="stop-color:#888888"/>
						<stop  offset="0.195" style="stop-color:#A8A8A8"/>
						<stop  offset="0.2537" style="stop-color:#C4C4C4"/>
						<stop  offset="0.32" style="stop-color:#DADADA"/>
						<stop  offset="0.3974" style="stop-color:#EBEBEB"/>
						<stop  offset="0.4931" style="stop-color:#F6F6F6"/>
						<stop  offset="0.6274" style="stop-color:#FDFDFD"/>
						<stop  offset="1" style="stop-color:#FFFFFF"/>
					</radialGradient>
					<path class="st8" d="M0.74,507.24V376.01V151.65V20.41C0.74,1.16,14.6,0.76,14.6,0.76h158.46h13.49h158.47
						c0,0,2.99,0.09,6.19,2.11C347.63,0.11,343.94,0,343.94,0h-158.3h-13.47H13.86c0,0-13.85,0.39-13.85,19.68l0,131.42v224.68
						v131.43c0,19.28,13.85,19.67,13.85,19.67h0.74C14.6,526.89,0.74,526.49,0.74,507.24z"/>
				</g>
			</mask>
			
				<radialGradient id="SVGID_7_" cx="86.0188" cy="179.5266" r="521.6085" gradientTransform="matrix(0.941 0 0 0.9898 16.7943 -24.3614)" gradientUnits="userSpaceOnUse">
				<stop  offset="0" style="stop-color:#FFFFFF"/>
				<stop  offset="0.1413" style="stop-color:#FFFFFF"/>
				<stop  offset="1" style="stop-color:#FFFFFF"/>
			</radialGradient>
			<path class="st9" d="M0.74,507.24V376.01V151.65V20.41C0.74,1.16,14.6,0.76,14.6,0.76h158.46h13.49h158.47
				c0,0,2.99,0.09,6.19,2.11C347.63,0.11,343.94,0,343.94,0h-158.3h-13.47H13.86c0,0-13.85,0.39-13.85,19.68l0,131.42v224.68v131.43
				c0,19.28,13.85,19.67,13.85,19.67h0.74C14.6,526.89,0.74,526.49,0.74,507.24z"/>
			<g>
				<defs>
					<filter id="Adobe_OpacityMaskFilter_4_" filterUnits="userSpaceOnUse" x="0" y="38.07" width="0.73" height="454.32">
						<feFlood  style="flood-color:white;flood-opacity:1" result="back"/>
						<feBlend  in="SourceGraphic" in2="back" mode="normal"/>
					</filter>
				</defs>
				<mask maskUnits="userSpaceOnUse" x="0" y="38.07" width="0.73" height="454.32" id="SVGID_8_">
					<g class="st10">
						<defs>
							<filter id="Adobe_OpacityMaskFilter_5_" filterUnits="userSpaceOnUse" x="0" y="38.07" width="0.73" height="454.32">
								<feFlood  style="flood-color:white;flood-opacity:1" result="back"/>
								<feBlend  in="SourceGraphic" in2="back" mode="normal"/>
							</filter>
						</defs>
						<mask maskUnits="userSpaceOnUse" x="0" y="38.07" width="0.73" height="454.32" id="SVGID_8_">
						</mask>
						
							<radialGradient id="SVGID_9_" cx="5817.0381" cy="24.3694" r="612.767" gradientTransform="matrix(-0.941 0 0 0.9898 5847.4248 -24.3614)" gradientUnits="userSpaceOnUse">
							<stop  offset="0.0988" style="stop-color:#000000"/>
							<stop  offset="1" style="stop-color:#FFFFFF"/>
						</radialGradient>
						<path class="st12" d="M0,38.07v454.32c0.24-0.92,0.48-1.84,0.72-2.76l0-114.39V46.31C0.48,43.56,0.24,40.82,0,38.07z"/>
					</g>
				</mask>
				
					<radialGradient id="SVGID_10_" cx="5817.0381" cy="24.3694" r="612.767" gradientTransform="matrix(-0.941 0 0 0.9898 5847.4248 -24.3614)" gradientUnits="userSpaceOnUse">
					<stop  offset="0.0988" style="stop-color:#FFFFFF"/>
					<stop  offset="1" style="stop-color:#ABABAB"/>
				</radialGradient>
				<path class="st13" d="M0,38.07v454.32c0.24-0.92,0.48-1.84,0.72-2.76l0-114.39V46.31C0.48,43.56,0.24,40.82,0,38.07z"/>
			</g>
		</g>
	</g>
	<path class="st14" d="M336.87,480.19c0,26.93,0.89,26.93-28.31,26.93L48.6,506.6c-28.21,0.52-28.21,0.52-28.21-27.02L21.27,45.5
		c0-26.93-0.89-26.93,28.31-26.93l259.96,0.52c28.21,0,28.21-0.52,28.21,27.03L336.87,480.19z"/>
	<g>
		<path d="M41.82,42.68v-0.54c1.17-0.34,1.98-0.65,2.43-0.94s0.84-0.74,1.17-1.34c0.33-0.6,0.49-1.21,0.49-1.82
			c0-0.85-0.31-1.58-0.93-2.19s-1.39-0.91-2.31-0.91c-1.43,0-2.65,0.76-3.66,2.27l-0.57-0.2c0.74-1.71,1.68-3,2.83-3.86
			c1.15-0.86,2.43-1.29,3.85-1.29c1.44,0,2.63,0.44,3.57,1.32s1.41,1.91,1.41,3.09c0,0.77-0.22,1.51-0.65,2.22s-1.12,1.34-2.05,1.88
			c1.2,0.58,2.11,1.3,2.74,2.16c0.63,0.86,0.94,1.93,0.94,3.22c0,2.17-0.79,4.02-2.36,5.54c-1.57,1.52-3.68,2.28-6.32,2.28
			c-1.76,0-3.05-0.29-3.86-0.88c-0.58-0.41-0.88-0.94-0.88-1.58c0-0.47,0.17-0.87,0.51-1.21s0.73-0.5,1.17-0.5
			c0.34,0,0.66,0.07,0.95,0.21c0.16,0.08,0.75,0.53,1.74,1.34c1,0.81,1.93,1.22,2.8,1.22c0.76,0,1.41-0.3,1.95-0.9
			c0.54-0.6,0.81-1.36,0.81-2.28c0-1.4-0.49-2.7-1.47-3.88C45.16,43.94,43.72,43.13,41.82,42.68z"/>
	</g>
	<g>
		<path d="M313.95,474.75v0.54c-1.17,0.34-1.98,0.65-2.43,0.94s-0.84,0.74-1.17,1.34c-0.33,0.6-0.49,1.21-0.49,1.82
			c0,0.85,0.31,1.58,0.93,2.19s1.39,0.91,2.31,0.91c1.43,0,2.65-0.76,3.66-2.27l0.57,0.2c-0.74,1.71-1.68,3-2.83,3.86
			c-1.15,0.86-2.43,1.29-3.85,1.29c-1.44,0-2.63-0.44-3.57-1.32s-1.41-1.91-1.41-3.09c0-0.77,0.22-1.51,0.65-2.22
			s1.12-1.34,2.05-1.88c-1.2-0.58-2.11-1.3-2.74-2.16c-0.63-0.86-0.94-1.93-0.94-3.22c0-2.17,0.79-4.02,2.36-5.54
			c1.57-1.52,3.68-2.28,6.32-2.28c1.76,0,3.05,0.29,3.86,0.88c0.58,0.41,0.88,0.94,0.88,1.58c0,0.47-0.17,0.87-0.51,1.21
			s-0.73,0.5-1.17,0.5c-0.34,0-0.66-0.07-0.95-0.21c-0.16-0.08-0.75-0.53-1.74-1.34c-1-0.81-1.93-1.22-2.8-1.22
			c-0.76,0-1.41,0.3-1.95,0.9c-0.54,0.6-0.81,1.36-0.81,2.28c0,1.4,0.49,2.7,1.47,3.88C310.61,473.48,312.05,474.29,313.95,474.75z"
			/>
	</g>
</g>
</svg>
