<?xml version="1.0" encoding="utf-8"?>
<!-- Generator: Adobe Illustrator 25.3.1, SVG Export Plug-In . SVG Version: 6.00 Build 0)  -->
<svg version="1.1" id="Capa_1" xmlns="http://www.w3.org/2000/svg" xmlns:xlink="http://www.w3.org/1999/xlink" x="0px" y="0px"
	 viewBox="0 0 582.37 660.24" style="enable-background:new 0 0 582.37 660.24;" xml:space="preserve">
<style type="text/css">
	.st0{fill:#1E1E1E;}
	.st1{fill:#FFFFFF;}
	.st2{fill:#F5F5F5;}
	.st3{fill:#E6E6E6;}
	.st4{fill:url(#SVGID_1_);}
	.st5{fill:url(#SVGID_2_);}
	.st6{fill:url(#SVGID_3_);}
	.st7{fill:url(#SVGID_4_);}
	.st8{fill:url(#SVGID_5_);}
	.st9{fill:url(#SVGID_6_);}
	.st10{fill:url(#SVGID_7_);}
	.st11{fill:url(#SVGID_8_);}
	.st12{fill:url(#SVGID_9_);}
	.st13{fill:url(#SVGID_10_);}
	.st14{fill:url(#SVGID_11_);}
	.st15{fill:url(#SVGID_12_);}
	.st16{clip-path:url(#SVGID_14_);}
	.st17{fill:#EBAE44;}
	.st18{clip-path:url(#SVGID_24_);fill:#EBE48A;}
	.st19{clip-path:url(#SVGID_24_);fill:#E9E289;}
	.st20{clip-path:url(#SVGID_24_);fill:#E7E088;}
	.st21{clip-path:url(#SVGID_24_);fill:#E5DF87;}
	.st22{clip-path:url(#SVGID_24_);fill:#E4DD86;}
	.st23{clip-path:url(#SVGID_24_);fill:#E2DB85;}
	.st24{clip-path:url(#SVGID_24_);fill:#E0D983;}
	.st25{clip-path:url(#SVGID_24_);fill:#DED782;}
	.st26{clip-path:url(#SVGID_24_);fill:#DCD681;}
	.st27{clip-path:url(#SVGID_24_);fill:#DAD480;}
	.st28{clip-path:url(#SVGID_24_);fill:#D9D27F;}
	.st29{clip-path:url(#SVGID_24_);fill:#D7D07E;}
	.st30{clip-path:url(#SVGID_24_);fill:#D5CF7D;}
	.st31{clip-path:url(#SVGID_24_);fill:#D3CD7C;}
	.st32{clip-path:url(#SVGID_24_);fill:#D2CB7B;}
	.st33{clip-path:url(#SVGID_24_);fill:#D0CA7A;}
	.st34{clip-path:url(#SVGID_24_);fill:#CEC879;}
	.st35{clip-path:url(#SVGID_24_);fill:#CCC678;}
	.st36{clip-path:url(#SVGID_24_);fill:#CAC477;}
	.st37{clip-path:url(#SVGID_24_);fill:#C9C376;}
	.st38{clip-path:url(#SVGID_24_);fill:#C7C175;}
	.st39{clip-path:url(#SVGID_24_);fill:#C5BF74;}
	.st40{clip-path:url(#SVGID_24_);fill:#C4BE73;}
	.st41{clip-path:url(#SVGID_24_);fill:#C2BC72;}
	.st42{clip-path:url(#SVGID_24_);fill:#C0BA71;}
	.st43{clip-path:url(#SVGID_24_);fill:#BEB970;}
	.st44{clip-path:url(#SVGID_24_);fill:#BDB76F;}
	.st45{clip-path:url(#SVGID_24_);fill:#BBB56E;}
	.st46{clip-path:url(#SVGID_24_);fill:#B9B46D;}
	.st47{clip-path:url(#SVGID_24_);fill:#B8B26C;}
	.st48{clip-path:url(#SVGID_24_);fill:#B6B16B;}
	.st49{clip-path:url(#SVGID_24_);fill:#B4AF6A;}
	.st50{clip-path:url(#SVGID_24_);fill:#B3AD69;}
	.st51{clip-path:url(#SVGID_24_);fill:#B1AC68;}
	.st52{clip-path:url(#SVGID_24_);fill:#AFAA67;}
	.st53{clip-path:url(#SVGID_24_);fill:#AEA966;}
	.st54{clip-path:url(#SVGID_24_);fill:#ACA765;}
	.st55{clip-path:url(#SVGID_24_);fill:#ABA564;}
	.st56{clip-path:url(#SVGID_24_);fill:#A9A463;}
	.st57{clip-path:url(#SVGID_24_);fill:#A7A262;}
	.st58{clip-path:url(#SVGID_24_);fill:#A6A161;}
	.st59{clip-path:url(#SVGID_24_);fill:#A49F60;}
	.st60{clip-path:url(#SVGID_24_);fill:#A39E5F;}
	.st61{clip-path:url(#SVGID_24_);fill:#A19C5F;}
	.st62{clip-path:url(#SVGID_24_);fill:#9F9B5E;}
	.st63{clip-path:url(#SVGID_24_);fill:#9E995D;}
	.st64{clip-path:url(#SVGID_24_);fill:#9C985C;}
	.st65{clip-path:url(#SVGID_24_);fill:#9B965B;}
	.st66{clip-path:url(#SVGID_24_);fill:#99955A;}
	.st67{clip-path:url(#SVGID_24_);fill:#989359;}
	.st68{clip-path:url(#SVGID_24_);fill:#969258;}
	.st69{clip-path:url(#SVGID_24_);fill:#959057;}
	.st70{clip-path:url(#SVGID_24_);fill:#938F56;}
	.st71{clip-path:url(#SVGID_24_);fill:#928D56;}
	.st72{clip-path:url(#SVGID_24_);fill:#908C55;}
	.st73{clip-path:url(#SVGID_24_);fill:#8F8A54;}
	.st74{clip-path:url(#SVGID_24_);fill:#8D8953;}
	.st75{clip-path:url(#SVGID_24_);fill:#8C8852;}
	.st76{clip-path:url(#SVGID_24_);fill:#8A8651;}
	.st77{clip-path:url(#SVGID_24_);fill:#898550;}
	.st78{clip-path:url(#SVGID_24_);fill:#87834F;}
	.st79{clip-path:url(#SVGID_24_);fill:#86824F;}
	.st80{clip-path:url(#SVGID_24_);fill:#84814E;}
	.st81{clip-path:url(#SVGID_24_);fill:#837F4D;}
	.st82{clip-path:url(#SVGID_24_);fill:#827E4C;}
	.st83{clip-path:url(#SVGID_24_);fill:#807C4B;}
	.st84{clip-path:url(#SVGID_24_);fill:#7F7B4A;}
	.st85{clip-path:url(#SVGID_24_);fill:#7D7A4A;}
	.st86{clip-path:url(#SVGID_24_);fill:#7C7849;}
	.st87{clip-path:url(#SVGID_24_);fill:#7B7748;}
	.st88{clip-path:url(#SVGID_24_);fill:#797647;}
	.st89{clip-path:url(#SVGID_24_);fill:#787446;}
	.st90{clip-path:url(#SVGID_24_);fill:#777346;}
	.st91{clip-path:url(#SVGID_24_);fill:#757245;}
	.st92{clip-path:url(#SVGID_24_);fill:#747044;}
	.st93{clip-path:url(#SVGID_24_);fill:#726F43;}
	.st94{clip-path:url(#SVGID_24_);fill:#716E42;}
	.st95{clip-path:url(#SVGID_24_);fill:#706C42;}
	.st96{clip-path:url(#SVGID_24_);fill:#6E6B41;}
	.st97{clip-path:url(#SVGID_24_);fill:#6D6A40;}
	.st98{clip-path:url(#SVGID_24_);fill:#6C693F;}
	.st99{clip-path:url(#SVGID_24_);fill:#6B673F;}
	.st100{clip-path:url(#SVGID_24_);fill:#69663E;}
	.st101{clip-path:url(#SVGID_24_);fill:#68653D;}
	.st102{clip-path:url(#SVGID_24_);fill:#67643C;}
	.st103{clip-path:url(#SVGID_24_);fill:#65623C;}
	.st104{clip-path:url(#SVGID_24_);fill:#64613B;}
	.st105{clip-path:url(#SVGID_24_);fill:#63603A;}
	.st106{clip-path:url(#SVGID_24_);fill:#625F39;}
	.st107{clip-path:url(#SVGID_24_);fill:#605E39;}
	.st108{clip-path:url(#SVGID_24_);fill:#5F5C38;}
	.st109{clip-path:url(#SVGID_24_);fill:#5E5B37;}
	.st110{clip-path:url(#SVGID_24_);fill:#5D5A36;}
	.st111{clip-path:url(#SVGID_24_);fill:#5C5936;}
	.st112{clip-path:url(#SVGID_24_);fill:#5A5835;}
	.st113{clip-path:url(#SVGID_24_);fill:#595634;}
	.st114{clip-path:url(#SVGID_24_);fill:#585534;}
	.st115{clip-path:url(#SVGID_24_);fill:#575433;}
	.st116{clip-path:url(#SVGID_24_);fill:#565332;}
	.st117{clip-path:url(#SVGID_24_);fill:#545232;}
	.st118{clip-path:url(#SVGID_24_);fill:#535131;}
	.st119{clip-path:url(#SVGID_24_);fill:#525030;}
	.st120{clip-path:url(#SVGID_24_);fill:#514F30;}
	.st121{clip-path:url(#SVGID_24_);fill:#504D2F;}
	.st122{clip-path:url(#SVGID_24_);fill:#4F4C2E;}
	.st123{clip-path:url(#SVGID_24_);fill:#4E4B2E;}
	.st124{clip-path:url(#SVGID_24_);fill:#4C4A2D;}
	.st125{clip-path:url(#SVGID_24_);fill:#4B492C;}
	.st126{clip-path:url(#SVGID_24_);fill:#4A482C;}
	.st127{clip-path:url(#SVGID_24_);fill:#49472B;}
	.st128{clip-path:url(#SVGID_24_);fill:#48462A;}
	.st129{clip-path:url(#SVGID_24_);fill:#47452A;}
	.st130{clip-path:url(#SVGID_24_);fill:#464429;}
	.st131{clip-path:url(#SVGID_24_);fill:#454328;}
	.st132{clip-path:url(#SVGID_24_);fill:#444228;}
	.st133{clip-path:url(#SVGID_24_);fill:#434127;}
	.st134{clip-path:url(#SVGID_24_);fill:#424027;}
	.st135{clip-path:url(#SVGID_24_);fill:#413F26;}
	.st136{clip-path:url(#SVGID_24_);fill:#403E25;}
	.st137{clip-path:url(#SVGID_24_);fill:#3F3D25;}
	.st138{clip-path:url(#SVGID_24_);fill:#3E3C24;}
	.st139{clip-path:url(#SVGID_24_);fill:#3D3B24;}
	.st140{clip-path:url(#SVGID_24_);fill:#3C3A23;}
	.st141{clip-path:url(#SVGID_24_);fill:#3B3922;}
	.st142{clip-path:url(#SVGID_24_);fill:#3A3822;}
	.st143{clip-path:url(#SVGID_24_);fill:#393721;}
	.st144{clip-path:url(#SVGID_24_);fill:#383621;}
	.st145{clip-path:url(#SVGID_24_);fill:#373520;}
	.st146{clip-path:url(#SVGID_24_);fill:#363420;}
	.st147{clip-path:url(#SVGID_24_);fill:#35331F;}
	.st148{clip-path:url(#SVGID_24_);fill:#34321E;}
	.st149{clip-path:url(#SVGID_24_);fill:#33311E;}
	.st150{clip-path:url(#SVGID_24_);fill:#32311D;}
	.st151{clip-path:url(#SVGID_24_);fill:#31301D;}
	.st152{clip-path:url(#SVGID_24_);fill:#302F1C;}
	.st153{clip-path:url(#SVGID_24_);fill:#2F2E1C;}
	.st154{clip-path:url(#SVGID_24_);fill:#2E2D1B;}
	.st155{clip-path:url(#SVGID_24_);fill:#2E2C1B;}
	.st156{clip-path:url(#SVGID_24_);fill:#2D2B1A;}
	.st157{clip-path:url(#SVGID_24_);fill:#2C2B1A;}
	.st158{clip-path:url(#SVGID_24_);fill:#2B2A19;}
	.st159{clip-path:url(#SVGID_24_);fill:#2A2919;}
	.st160{clip-path:url(#SVGID_24_);fill:#292818;}
	.st161{clip-path:url(#SVGID_24_);fill:#282718;}
	.st162{clip-path:url(#SVGID_24_);fill:#282617;}
	.st163{clip-path:url(#SVGID_24_);fill:#272617;}
	.st164{clip-path:url(#SVGID_24_);fill:#262516;}
	.st165{clip-path:url(#SVGID_24_);fill:#252416;}
	.st166{clip-path:url(#SVGID_24_);fill:#242315;}
	.st167{clip-path:url(#SVGID_24_);fill:#232214;}
	.st168{clip-path:url(#SVGID_24_);fill:#222114;}
	.st169{clip-path:url(#SVGID_24_);fill:#212014;}
	.st170{clip-path:url(#SVGID_24_);fill:#212013;}
	.st171{clip-path:url(#SVGID_24_);fill:#201F13;}
	.st172{clip-path:url(#SVGID_24_);fill:#1F1E12;}
	.st173{clip-path:url(#SVGID_24_);fill:#1E1D12;}
	.st174{clip-path:url(#SVGID_24_);fill:#1E1D11;}
	.st175{clip-path:url(#SVGID_24_);fill:#1D1C11;}
	.st176{clip-path:url(#SVGID_24_);fill:#1C1B11;}
	.st177{clip-path:url(#SVGID_24_);fill:#1C1B10;}
	.st178{clip-path:url(#SVGID_24_);fill:#1B1A10;}
	.st179{clip-path:url(#SVGID_24_);fill:#1A190F;}
	.st180{clip-path:url(#SVGID_24_);fill:#19180F;}
	.st181{clip-path:url(#SVGID_24_);fill:#18170E;}
	.st182{clip-path:url(#SVGID_24_);fill:#17160D;}
	.st183{clip-path:url(#SVGID_24_);fill:#16160D;}
	.st184{clip-path:url(#SVGID_24_);fill:#16150D;}
	.st185{clip-path:url(#SVGID_24_);fill:#15140C;}
	.st186{clip-path:url(#SVGID_24_);fill:#14140C;}
	.st187{clip-path:url(#SVGID_24_);fill:#14130C;}
	.st188{clip-path:url(#SVGID_24_);fill:#13130B;}
	.st189{clip-path:url(#SVGID_24_);fill:#13120B;}
	.st190{clip-path:url(#SVGID_24_);fill:#12120B;}
	.st191{clip-path:url(#SVGID_24_);fill:#12110A;}
	.st192{clip-path:url(#SVGID_24_);fill:#11100A;}
	.st193{clip-path:url(#SVGID_24_);fill:#10100A;}
	.st194{clip-path:url(#SVGID_24_);fill:#100F09;}
	.st195{clip-path:url(#SVGID_24_);fill:#0F0F09;}
	.st196{clip-path:url(#SVGID_24_);fill:#0F0E09;}
	.st197{clip-path:url(#SVGID_24_);fill:#0E0E08;}
	.st198{clip-path:url(#SVGID_24_);fill:#0E0D08;}
	.st199{clip-path:url(#SVGID_24_);fill:#0D0D08;}
	.st200{clip-path:url(#SVGID_24_);fill:#0D0C08;}
	.st201{clip-path:url(#SVGID_24_);fill:#0C0C07;}
	.st202{clip-path:url(#SVGID_24_);fill:#0C0B07;}
	.st203{clip-path:url(#SVGID_24_);fill:#0B0B07;}
	.st204{clip-path:url(#SVGID_24_);fill:#0B0B06;}
	.st205{clip-path:url(#SVGID_24_);fill:#0A0A06;}
	.st206{clip-path:url(#SVGID_24_);fill:#0A0906;}
	.st207{clip-path:url(#SVGID_24_);fill:#090905;}
	.st208{clip-path:url(#SVGID_24_);fill:#080805;}
	.st209{clip-path:url(#SVGID_24_);fill:#080704;}
	.st210{clip-path:url(#SVGID_24_);fill:#070704;}
	.st211{clip-path:url(#SVGID_24_);fill:#060604;}
	.st212{clip-path:url(#SVGID_24_);fill:#060603;}
	.st213{clip-path:url(#SVGID_24_);fill:#050503;}
	.st214{clip-path:url(#SVGID_24_);fill:#050403;}
	.st215{clip-path:url(#SVGID_24_);fill:#040402;}
	.st216{clip-path:url(#SVGID_24_);fill:#030302;}
	.st217{clip-path:url(#SVGID_24_);fill:#020201;}
	.st218{clip-path:url(#SVGID_24_);fill:#010101;}
	.st219{clip-path:url(#SVGID_24_);fill:#010100;}
	.st220{clip-path:url(#SVGID_24_);}
	.st221{fill:url(#SVGID_29_);}
	.st222{fill:url(#SVGID_30_);}
	.st223{fill:url(#SVGID_31_);}
	.st224{fill:url(#SVGID_32_);}
	.st225{opacity:0.67;}
	.st226{fill:url(#SVGID_33_);}
	.st227{fill:url(#SVGID_34_);}
	.st228{opacity:0.46;}
	.st229{filter:url(#Adobe_OpacityMaskFilter);}
	.st230{opacity:0.79;mask:url(#SVGID_35_);}
	.st231{fill:#1A1A1A;}
	.st232{fill:#F2F2F2;}
	.st233{fill:#F3D774;}
	.st234{fill:none;}
	.st235{fill:url(#SVGID_36_);}
	.st236{fill:none;stroke:url(#SVGID_37_);stroke-width:3;stroke-miterlimit:10;}
	.st237{fill:url(#SVGID_38_);}
	.st238{fill:none;stroke:url(#SVGID_39_);stroke-width:3;stroke-miterlimit:10;}
	.st239{fill:url(#SVGID_40_);}
	.st240{fill:url(#SVGID_41_);}
	.st241{fill:none;stroke:url(#SVGID_42_);stroke-width:3;stroke-miterlimit:10;}
	.st242{fill:url(#SVGID_43_);}
	.st243{fill:none;stroke:url(#SVGID_44_);stroke-width:3;stroke-miterlimit:10;}
	.st244{fill:url(#SVGID_45_);}
	.st245{fill:url(#SVGID_46_);}
	.st246{fill:url(#SVGID_47_);}
	.st247{fill:#383838;}
	.st248{fill:url(#SVGID_48_);}
	.st249{fill:url(#SVGID_49_);}
	.st250{fill:#2D2D2D;}
	.st251{fill:url(#SVGID_50_);}
	.st252{fill:url(#SVGID_51_);}
</style>
<path class="st231" d="M536.7,91.02l-97.98-0.98c0.91-1.05,1.82-2.11,2.74-3.18c3.48-4.02,7.09-8.18,10.54-12.49l4.52-5.64
	c0.18-0.22,0.41-0.54,0.57-0.77l0.15-0.21c0.69-0.96,1.93-2.68,2.84-5.04c1.93-4.66,2.29-9.81,1.02-14.57
	c-0.97-3.74-2.74-7.21-5.28-10.29c-0.08-0.1-0.17-0.2-0.25-0.3c-6.5-7.46-15.85-11.71-27.89-12.63c-7.43-0.51-14.59-0.19-21.56,0.44
	c-0.63-2.97-1.74-5.86-3.38-8.51c-1.94-3.12-4.25-5.63-7.07-7.67c-0.11-0.08-0.23-0.16-0.35-0.24c-2.23-1.51-4.54-2.75-6.84-3.69
	c-4.01-1.63-8.22-2.67-12.88-3.17c-0.17-0.02-0.35-0.03-0.52-0.05c-3.65-0.26-9.2-0.34-15.25,1.81c-3.23,1.14-6.38,3.05-9.11,5.51
	c-0.42,0.38-0.82,0.78-1.19,1.21l-0.21,0.24c-0.77,0.89-1.94,2.23-3,4.07c-0.22,0.39-0.42,0.78-0.6,1.19l-0.19,0.41
	c-0.43,0.92-1.07,2.25-1.51,3.87c-0.12,0.38-0.21,0.76-0.32,1.14c-5.41-1.31-10.89-2.43-16.45-3.31c-14-2.27-27.99-3.21-41.66-2.81
	c-13.66-0.7-27.67-0.07-41.68,1.89c-5.6,0.76-11.12,1.76-16.57,2.95c-0.1-0.38-0.19-0.76-0.3-1.15c-0.41-1.62-1.01-2.97-1.43-3.9
	l-0.18-0.41c-0.17-0.41-0.37-0.81-0.58-1.2c-1.01-1.86-2.15-3.22-2.9-4.13l-0.2-0.24c-0.36-0.44-0.75-0.86-1.17-1.25
	c-2.71-2.55-5.74-4.47-8.96-5.7c-6.02-2.3-11.57-2.33-15.23-2.16c-0.17,0.01-0.35,0.02-0.52,0.04c-4.67,0.4-8.9,1.35-12.93,2.88
	c-2.33,0.89-4.67,2.08-6.93,3.54c-0.12,0.08-0.23,0.15-0.35,0.23c-2.86,1.98-5.23,4.43-7.26,7.54c-1.69,2.6-2.86,5.46-3.56,8.41
	c-6.97-0.78-14.15-1.26-21.65-0.91c-11.95,0.65-21.39,4.69-28.06,12.01c-0.09,0.1-0.17,0.19-0.26,0.29
	c-2.6,3.03-4.45,6.45-5.5,10.18c-1.37,4.74-1.12,9.89,0.7,14.59c0.85,2.38,2.05,4.12,2.72,5.1l0.14,0.2
	c0.18,0.28,0.37,0.55,0.57,0.81l4.39,5.73c3.37,4.38,6.88,8.62,10.27,12.72c1,1.2,1.97,2.39,2.94,3.56l-54.91-0.55
	c-10.91-0.12-64.31,8.08-65.52,51.72L0.02,598.88c-0.7,29.17,18.58,59.37,44.59,56.78l467.49,4.59
	c49.96,0.12,59.21-32.06,59.61-41.65l10.65-470.53C582.76,138.48,574.25,91.02,536.7,91.02z"/>
<g>
	<path class="st232" d="M183.41,29.53c1.48,0.16,2.88,0.47,4.29,0.63c1.4,0.2,2.78,0.3,4.1,0.27c1.3-0.05,2.55-0.31,3.45-0.84
		c0.88-0.49,1.45-1.52,1.56-2.36l0.03-0.2c0.1-0.72,0.76-1.23,1.49-1.13c0.64,0.09,1.11,0.61,1.14,1.23
		c0.24,4.15,0.3,8.31-0.27,12.52c-1.27-4.06-1.91-8.17-2.38-12.3l2.66-0.1c-0.09,2.03-1.22,3.75-2.87,4.64
		c-1.61,0.92-3.34,0.95-4.89,0.86C188.61,32.36,185.86,31.16,183.41,29.53z"/>
	<path class="st232" d="M204.84,23.11c0.82,1.36,1.49,2.82,1.9,4.38c0.27,0.76,0.32,1.58,0.48,2.37c-0.01,0.81,0.12,1.64-0.05,2.45
		c-0.15,0.82-0.28,1.65-0.71,2.39c-0.19,0.38-0.35,0.77-0.56,1.13l-0.81,0.97c-0.5,0.71-1.19,1.18-1.88,1.65l-1.03,0.73l-1.14,0.49
		c-6.15,2.61-12.82,2.42-19.19,2.11c-12.72-1.15-25.26-2.76-37.64-1.83c-3.02,0.28-5.93,0.82-8.63,1.89
		c-2.67,1.05-5.15,2.58-6.83,4.58c-1.65,2.01-2.35,4.42-1.44,6.3c0.08,0.25,0.2,0.49,0.37,0.7c0.19,0.25,0.22,0.4,0.51,0.75
		l1.47,1.86l2.96,3.7c3.96,4.92,7.99,9.74,12.08,14.63c4.02,4.9,8.2,9.73,11.94,15.09c3.72,5.32,6.87,10.88,10.32,16.04
		c0.87,1.3,1.72,2.59,2.56,3.48c0.85,0.92,1.6,1.37,2.61,1.63c2.18,0.4,5.22-0.24,8.09-1.03c11.8-3.48,23.21-9.24,35.08-13.9
		c11.82-4.78,23.95-8.9,36.38-11.86c12.42-2.76,25.29-4.72,37.96-3.13c-12.71-0.34-25.21,2.14-37.27,5.73
		c-12.1,3.54-23.86,8.15-35.41,13.21l-17.31,7.86c-5.84,2.57-11.68,5.14-17.99,7.09c-3.18,0.89-6.5,1.87-10.63,1.22
		c-2.11-0.42-4.14-1.74-5.41-3.17c-1.33-1.43-2.21-2.81-3.12-4.14c-3.63-5.36-6.79-10.83-10.37-15.89
		c-7.13-10.06-15.84-19.55-23.59-29.64l-2.91-3.79l-1.44-1.9c-0.47-0.72-1.2-1.64-1.51-2.63c-0.8-1.95-0.96-4.24-0.38-6.2
		c0.55-1.97,1.55-3.68,2.77-5.1c5.08-5.58,12.29-7.27,18.83-7.63c13.02-0.6,25.74,1.67,38.17,3.42c6.15,0.71,12.6,1.26,18.37-0.78
		c2.83-1,5.29-3.15,5.89-6.18c0.22-0.73,0.17-1.51,0.25-2.28c-0.09-0.77-0.06-1.56-0.27-2.32
		C206.07,26.04,205.55,24.53,204.84,23.11z"/>
	<path class="st232" d="M180.76,40.39c-1.11-2.79-1.98-5.63-2.86-8.47c-0.8-3.36-0.11-6.88,1.79-9.82c0.96-1.47,2.07-2.72,3.62-3.79
		c1.45-0.93,2.92-1.7,4.42-2.27c3.01-1.15,6.12-1.78,9.31-2.06c3.19-0.15,6.51,0.04,9.79,1.29c1.63,0.62,3.18,1.65,4.54,2.93
		c0.59,0.72,1.23,1.45,1.68,2.26c0.35,0.82,0.84,1.79,0.98,2.48c1.64,5.8,2.63,11.84,2.18,17.85c-1.81-5.7-3.9-11.11-6.21-16.4
		c-0.29-0.73-0.62-1-0.88-1.52c-0.31-0.44-0.72-0.79-1.07-1.18c-0.88-0.64-1.84-1.21-3.01-1.53c-2.28-0.74-4.97-0.91-7.63-0.69
		c-2.68,0.13-5.39,0.67-7.94,1.47c-1.3,0.36-2.49,0.88-3.58,1.44c-0.92,0.54-1.95,1.37-2.74,2.27c-1.57,1.79-2.63,4.36-2.59,6.84
		C180.69,34.43,180.85,37.39,180.76,40.39z"/>
	<path class="st232" d="M139.83,43.76c-1.55,1-2.93,2.27-3.93,3.75c-0.99,1.47-1.45,3.21-1.06,4.8c0.37,1.58,1.36,3.02,2.63,4.19
		c0.59,0.63,1.28,1.16,2,1.68c0.69,0.57,1.43,0.99,2.16,1.37c2.95,1.59,6.53,1.9,10.01,1.77c3.51-0.16,7.04-0.75,10.52-1.62
		c6.89-1.85,13.93-4.21,20.09-7.57l4.79-2.73c1.66-0.91,3.34-1.76,5.03-2.6c3.39-1.65,6.82-3.17,10.31-4.57
		c13.98-5.48,28.58-9.15,43.35-11.16c14.77-2.06,29.71-2.61,44.48-1.44c-14.77,1.12-29.4,2.85-43.78,5.66
		c-7.19,1.4-14.31,3.06-21.33,5.07c-7.04,1.93-13.96,4.26-20.7,6.97c-3.39,1.31-6.73,2.75-10,4.29c-1.63,0.78-3.25,1.58-4.84,2.43
		c-1.56,0.82-3.13,1.77-4.89,2.65c-3.43,1.77-7.06,3.11-10.61,4.29c-3.58,1.19-7.24,2.17-10.98,2.87
		c-3.73,0.69-7.55,1.18-11.44,1.03c-3.84-0.18-7.9-0.8-11.35-3.03c-0.86-0.56-1.67-1.15-2.34-1.84c-0.73-0.64-1.43-1.31-2.04-2.1
		c-1.28-1.45-2.36-3.31-2.57-5.38c-0.24-2.08,0.63-4.11,1.9-5.53C136.56,45.58,138.14,44.52,139.83,43.76z"/>
	<path class="st232" d="M387.46,31.78c-2.49,1.58-5.26,2.71-8.38,3.04c-1.55,0.06-3.28-0.02-4.87-0.97
		c-1.63-0.93-2.72-2.67-2.76-4.7l2.65,0.16c-0.56,4.11-1.29,8.21-2.65,12.24c-0.47-4.23-0.32-8.38,0.01-12.52
		c0.06-0.73,0.69-1.27,1.42-1.21c0.64,0.05,1.14,0.55,1.21,1.17l0.02,0.2c0.09,0.84,0.64,1.88,1.51,2.39
		c0.89,0.55,2.13,0.84,3.43,0.92c1.32,0.06,2.7-0.01,4.11-0.18C384.57,32.19,385.98,31.91,387.46,31.78z"/>
	<path class="st232" d="M366.17,24.89c-0.73,1.4-1.29,2.9-1.6,4.44c-0.22,0.76-0.21,1.55-0.32,2.31c0.06,0.77-0.01,1.55,0.2,2.28
		c0.54,3.04,2.95,5.24,5.76,6.3c5.72,2.17,12.19,1.76,18.35,1.19c12.47-1.48,25.23-3.47,38.24-2.58c6.53,0.5,13.7,2.35,18.66,8.04
		c1.19,1.45,2.16,3.18,2.66,5.16c0.54,1.97,0.33,4.26-0.52,6.19c-0.34,0.99-1.08,1.88-1.57,2.6l-1.49,1.87l-2.99,3.72
		c-7.97,9.92-16.88,19.21-24.24,29.11c-3.69,4.98-6.97,10.38-10.71,15.66c-0.94,1.3-1.85,2.66-3.21,4.07
		c-1.3,1.4-3.36,2.68-5.48,3.05c-4.14,0.55-7.43-0.5-10.6-1.46c-6.27-2.09-12.04-4.78-17.83-7.49l-17.13-8.24
		c-11.43-5.31-23.09-10.19-35.11-13.99c-11.98-3.86-24.42-6.61-37.14-6.55c12.69-1.31,25.52,0.93,37.88,3.97
		c12.36,3.23,24.4,7.63,36.11,12.66c11.77,4.93,23.05,10.94,34.76,14.67c2.86,0.86,5.88,1.56,8.07,1.21
		c1.02-0.23,1.78-0.67,2.65-1.57c0.85-0.87,1.74-2.15,2.63-3.43c3.56-5.09,6.84-10.57,10.67-15.81c3.86-5.27,8.15-10.01,12.27-14.82
		c4.2-4.79,8.33-9.53,12.4-14.36l3.04-3.63l1.51-1.82c0.3-0.34,0.34-0.49,0.53-0.74c0.18-0.21,0.31-0.45,0.39-0.7
		c0.96-1.86,0.31-4.29-1.3-6.33c-1.64-2.04-4.09-3.62-6.73-4.73c-2.67-1.13-5.57-1.73-8.58-2.08c-12.35-1.21-24.93,0.13-37.67,1
		c-6.37,0.17-13.04,0.21-19.14-2.54l-1.12-0.52l-1.02-0.75c-0.68-0.49-1.36-0.98-1.85-1.69l-0.79-0.98
		c-0.21-0.36-0.36-0.77-0.54-1.15c-0.41-0.75-0.52-1.58-0.66-2.4c-0.15-0.82-0.01-1.65,0-2.46c0.18-0.79,0.24-1.61,0.53-2.36
		C364.62,27.68,365.32,26.23,366.17,24.89z"/>
	<path class="st232" d="M389.87,42.7c-0.02-3.01,0.2-5.96,0.41-8.92c0.09-2.48-0.91-5.07-2.44-6.9c-0.77-0.91-1.78-1.77-2.69-2.33
		c-1.07-0.58-2.26-1.13-3.55-1.51c-2.53-0.85-5.23-1.45-7.91-1.64c-2.66-0.28-5.35-0.16-7.64,0.53c-1.18,0.29-2.15,0.84-3.05,1.46
		c-0.36,0.39-0.77,0.73-1.09,1.16c-0.27,0.51-0.61,0.78-0.91,1.5c-2.42,5.23-4.63,10.6-6.57,16.26c-0.32-6.02,0.8-12.04,2.57-17.8
		c0.16-0.68,0.67-1.64,1.04-2.45c0.46-0.8,1.12-1.51,1.73-2.22c1.38-1.24,2.96-2.24,4.6-2.82c3.3-1.18,6.63-1.3,9.81-1.07
		c3.19,0.35,6.28,1.05,9.26,2.26c1.48,0.6,2.94,1.4,4.37,2.37c1.53,1.1,2.61,2.38,3.53,3.87c1.84,2.98,2.45,6.51,1.58,9.86
		C391.96,37.11,391.03,39.93,389.87,42.7z"/>
	<path class="st232" d="M430.72,46.96c1.67,0.8,3.23,1.89,4.5,3.34c1.24,1.45,2.06,3.49,1.78,5.57c-0.25,2.07-1.37,3.9-2.68,5.33
		c-0.63,0.78-1.34,1.43-2.08,2.05c-0.69,0.67-1.51,1.24-2.38,1.79c-3.49,2.16-7.57,2.69-11.41,2.78c-3.89,0.06-7.69-0.51-11.41-1.28
		c-3.72-0.79-7.36-1.84-10.91-3.11c-3.52-1.25-7.13-2.68-10.52-4.52c-1.74-0.92-3.29-1.91-4.83-2.76c-1.57-0.88-3.17-1.72-4.79-2.54
		c-3.24-1.62-6.55-3.12-9.9-4.51c-6.69-2.85-13.55-5.33-20.55-7.42c-6.97-2.16-14.06-3.98-21.21-5.54
		c-14.32-3.13-28.9-5.18-43.64-6.62c14.8-0.84,29.73,0.03,44.44,2.42c14.73,2.34,29.24,6.33,43.09,12.12
		c3.45,1.47,6.85,3.07,10.2,4.79c1.67,0.87,3.33,1.76,4.97,2.71l4.73,2.83c6.08,3.5,13.07,6.01,19.91,8.01
		c3.46,0.95,6.98,1.62,10.48,1.85c3.47,0.2,7.06-0.03,10.04-1.55c0.74-0.37,1.49-0.76,2.19-1.32c0.73-0.5,1.44-1.02,2.04-1.63
		c1.3-1.14,2.32-2.55,2.73-4.13c0.43-1.58,0.01-3.33-0.95-4.82C433.6,49.3,432.25,48,430.72,46.96z"/>
</g>
<g>
	<path class="st233" d="M194.79,89.43l-3.28-1.11c-0.61,1.02-1.87,2.03-3.34,2.79c-4.85,2.49-9.88,0.67-12.39-4.2
		c-2.51-4.87-1.06-10.02,3.79-12.52c4.85-2.49,9.88-0.67,12.39,4.2c1.14,2.21,1.46,4.48,1.02,6.54l2.9,0.97L194.79,89.43z
		 M185.78,82.74l2.04,0.67c-0.09-0.66-0.33-1.41-0.78-2.28c-1.83-3.55-4.17-3.39-5.43-2.75c-1.25,0.64-2.75,2.46-0.92,6.01
		c1.83,3.55,4.17,3.39,5.42,2.75c0.2-0.1,0.39-0.23,0.6-0.42l-2.05-0.7L185.78,82.74z"/>
	<path class="st233" d="M222.49,69.48c1.55,4.73-0.25,7.84-5.46,9.55c-5.21,1.71-8.53,0.29-10.08-4.44l-3.44-10.46l5.25-1.73
		l3.05,9.29c0.57,1.74,1.29,3.92,3.84,3.08c2.48-0.82,1.77-2.99,1.2-4.73l-3.05-9.29l5.25-1.73L222.49,69.48z"/>
	<path class="st233" d="M235.99,54.91l14.64-2.46l0.76,4.53l-9.19,1.54l0.37,2.2l8.35-1.4l0.71,4.21l-8.35,1.4l0.37,2.21l9.47-1.59
		l0.76,4.53l-14.92,2.51L235.99,54.91z"/>
	<path class="st233" d="M272.55,62.63c0.01,0.45,0.09,0.85,0.23,1.18c0.43,1.07,1.64,1.27,2.67,1.25c0.91-0.02,2.28-0.35,2.25-1.69
		c-0.02-0.93-0.81-1.16-3.92-1.97c-2.86-0.74-6.12-1.44-6.2-5.06c-0.1-4.15,3.41-6.01,7.1-6.1c3.89-0.09,7.37,1.32,7.62,5.68
		l-5.23,0.12c0.08-0.68-0.23-1.13-0.69-1.42c-0.46-0.32-1.09-0.43-1.64-0.41c-0.75,0.02-1.98,0.25-1.96,1.25
		c0.13,1.28,2.7,1.5,5.26,2.14c2.55,0.65,5.09,1.77,5.17,5.06c0.11,4.67-4.15,6.28-8.15,6.37c-2.04,0.05-7.86-0.55-8.04-6.28
		L272.55,62.63z"/>
	<path class="st233" d="M302.78,56.43l-4.99-0.61l0.55-4.57l15.47,1.88l-0.55,4.57l-4.99-0.61l-1.61,13.25l-5.49-0.67L302.78,56.43z
		"/>
	<path class="st233" d="M329.7,56.39l5.37,1.33l-4.33,17.41l-5.37-1.33L329.7,56.39z"/>
	<path class="st233" d="M359.65,65.31c5.08,1.99,7.04,6.96,5.05,12.07c-2,5.1-6.82,7.43-11.9,5.44c-5.08-1.99-7.04-6.96-5.05-12.07
		C349.75,65.64,354.57,63.32,359.65,65.31z M354.43,78.64c1.31,0.51,3.66,0.43,5.12-3.29c1.46-3.72-0.22-5.37-1.53-5.89
		c-1.31-0.51-3.66-0.43-5.12,3.29C351.44,76.48,353.12,78.13,354.43,78.64z"/>
	<path class="st233" d="M383.24,76.5l4.89,2.84l-0.3,10.92l0.04,0.03l4.81-8.3l4.52,2.62l-9,15.52l-4.65-2.7l0.16-11.24l-0.04-0.03
		l-4.92,8.48l-4.52-2.62L383.24,76.5z"/>
</g>
<path class="st234" d="M216.17,120.6c1.33-1.41,5.06-1.08,5.46,0.84c0.29,1.85-2.58,2.71-2.1,3.36c6.4,0.45,9.12-0.11,15.11,0.42
	c-0.31-1.37-2.2-1.15-2.1-2.94c-0.32-2,1.43-1.92,2.52-2.52c-10.27-0.87-23.21-0.44-29.79-0.42c-0.09,0-0.16,0.01-0.23,0.02
	c-0.17,0.07-0.34,0.15-0.51,0.22c-0.05,0.37,1.44,1.05,1.58,1.43c-0.42,0.83-0.73,1.79-1.68,2.1c-1.98,0.43-2.62-0.96-2.94-2.2
	c-2.82,1.23-5.77,2.46-8.85,3.63c9.62,0.05,17.95,0.13,23.97,0.25C218.27,124.6,214.67,122.11,216.17,120.6z"/>
<path class="st234" d="M279.51,117.47v-0.25c2.53,0.06,5.05,0.13,7.61,0.2c19.09,0.55,44.2,0.91,71.49,1.2l-12.04-5.79
	c-7.61-3.54-14.48-6.47-20.95-8.95c-2.11,0.03-4.2,0.07-6.27,0.09c-7.57,0.1-15.29-0.23-22.66-0.43c-5.81-0.16-11.55-0.3-17.26-0.44
	l-0.03-0.06c-10.06-0.23-21.77-0.4-34.5-0.54c-6.92,2.43-14.25,5.36-22.45,8.95l-11.84,5.38c0.19,0,0.36,0,0.52-0.01
	C233.36,116.45,255.58,116.97,279.51,117.47z"/>
<path class="st234" d="M237.57,125.63c11.38-0.88,20.25,0.42,30.21-0.42c0.04-1.3-1.32-1.2-0.84-2.94c0.61-1.07,2.23-1.12,2.94-2.1
	c-4.94-0.79-11.16-0.31-16.36-0.84c-0.4,1.8,2.06,0.74,2.1,2.1c0.39,4.03-5.68,3.52-5.87,0.42c-0.07-1.08,2.14-2.01,1.26-2.51
	c-4.83,0.47-3.89,0.06-10.07,0c-1.1,0.92,1.3,1.39,0,2.51c-1.51,1.66-3.71,0.17-5.03,1.68
	C235.23,125.46,237.63,124.31,237.57,125.63z"/>
<path class="st234" d="M94.36,126.89c-2.88,0.03-3.92-0.52-5.45,0.84c-11.55-2.04-20.67-0.22-28.11,5.87
	c-6.37,5.21-11.1,10.22-12.17,18.88c-0.73,5.92-0.19,12.9-0.42,19.72c-0.67,20.23-0.61,252.14-0.84,271.6
	c-0.31,26.8-1.23,121.87-0.84,143.81c0.04,2.1-0.44,3.85,1.26,5.87c-2.86,3.7,3.03,12.52,6.72,15.11
	c5.33,3.75,15.01,5.29,22.66,6.29c9.15,1.2,19.67,0.32,29.79,0.42c43.29,0.43,131.57,1.37,173.62,2.38l0,0
	c28.29,0.4,56.86,1.22,83.26,1.46c21.48,0.19,100.95,0.63,121.68,0.43c2.88-0.03,3.92,0.53,5.45-0.85
	c11.55,2.06,20.67,0.22,28.11-5.93c6.37-5.27,11.1-10.33,12.17-19.08c0.73-5.98,0.19-10.93,0.42-17.82
	c0.67-20.44,0.61-106.71,0.84-126.38c0.31-27.08,1.23-268.27,0.84-290.44c-0.04-2.12,0.44-3.89-1.26-5.93
	c2.86-3.74-3.03-12.65-6.72-15.26c-5.33-3.79-15.01-5.35-22.66-6.36c-9.15-1.21-19.67-0.32-29.79-0.43
	c-17.33-0.17-42.48-0.47-69.51-0.83c-1.05,0.35-2.11,0.64-3.18,0.83c-0.18,0.03-0.37,0.06-0.55,0.09c-1.54,0.21-3.01,0.28-4.4,0.27
	c-3.65-0.04-6.77-0.72-9.29-1.42c-39.92-0.56-81.11-1.22-105.46-1.82c-25.39-0.35-50.18-0.68-73.99-0.89
	c-4.97-0.04-12.55-0.1-21.51-0.16c-2.84,0.8-6.8,1.9-11.66,1.85c-1.39-0.02-2.86-0.13-4.4-0.37c-0.18-0.03-0.37-0.06-0.55-0.1
	c-1.59-0.32-3.16-0.84-4.68-1.51C136.95,126.88,106.79,126.77,94.36,126.89z"/>
<path class="st234" d="M332.77,620.85c-11.38,0.89-20.25-0.43-30.21,0.42c-0.04,1.32,1.32,1.21,0.84,2.97
	c-0.61,1.08-2.23,1.14-2.94,2.12c4.94,0.8,11.16,0.31,16.36,0.85c0.4-1.82-2.06-0.74-2.1-2.12c-0.39-4.07,5.68-3.56,5.87-0.42
	c0.07,1.09-2.14,2.03-1.26,2.54c4.83-0.48,3.89-0.06,10.07,0c1.1-0.93-1.3-1.41,0-2.54c1.51-1.68,3.71-0.18,5.03-1.7
	C335.12,621.03,332.71,622.18,332.77,620.85z"/>
<path class="st234" d="M114.08,121.44c0.2,1.31-1.13,1.11-1.26,2.09c-2.74,0.5-3.71-0.76-4.61-2.09c0.14-1.54,1.18-2.18,2.52-2.52
	c-4.08-0.92-9.19-0.19-12.59-0.84c0.12,1.55,1.84,1.51,1.26,3.77c-0.63,1.29-3.95,1.08-4.62,0c-1.14-2.33,1.28-2.73,0.84-3.77
	c-22.07-2.61-48.08,0.82-52.45,19.3c-0.47,1.43-1.63-0.13-2.1,0.84c-1.02,7.89-0.27,13.41-0.84,20.98c1.19,0.55,3.3-0.38,4.61,0.84
	c-1.07,1.57,0.48,2.09-0.84,3.78c-2.13,0.87-2.08-0.74-3.78-1.26c0.14,2.46-0.1,7.95,0,11.75c0.57-1.69,2.49-1.21,3.78-0.42
	c0.81,1.36,1.08,3.48,0,4.62c-2.16-0.07-2.93-1.54-3.36-3.36c-1.86,27.89-0.87,338.25-2.1,368c1.67-0.43,0.61-3.58,2.1-4.2
	c4.18-0.56,3.11,5.07,0.84,5.88c-1.39,0.13-1.59-0.93-2.52-1.26c-1.13,18.46-2.01,42.63-1.26,65.46
	c4.46,3.45,7.24,10.07,13.01,12.17c2.4,0.87,6.23-0.66,7.97,2.1c14.21,0.09,28.57,0.54,40.7,0.84c2.03-0.41-1.94-1.18-0.84-3.36
	c2.88-1.05,5.74-1.62,7.14,0.84c-0.11,1-0.32,1.89-1.18,2.13c45.18,1.3,135.54,2.22,179.41,3.03c3.74-0.04,7.57-0.1,11.52,0.01
	c-0.61-0.66-0.56-1.98-1.26-2.54c1.15-2.93,6.02,0.24,7.13-2.97c-6.73-0.75-11.77-0.53-18.46-0.42c0.38,0.31,0.74,0.63,1.05,1
	c7.57-1.25,5.1,4.83,1.03,3.25c-0.79,1.15-2.05,1.39-3.39,1.19v-5.37c0.02-0.03,0.04-0.05,0.05-0.07c-0.02,0-0.03,0-0.05,0
	l-0.4-1.28c-30.04-0.36-60.93,0.15-93.08-1.31c-18.54-0.84-82.78,0.22-100.41-0.84c-0.98-0.06-2.38-0.46-3.36-0.42
	c-18.77,0.83-38.81-1.91-40.7-23.08c-1.2-13.48,2.48-28.65,0.84-40.7c-0.24,2.18-1.25,4.74-3.77,3.36c-1.86-2.79,0.6-7.67,3.77-3.78
	c0.59-13.87,0.48-319.92,0.84-335.68c-2.95,0.32-0.32,2.78-2.1,3.36c-3.47,0.04-3.01-3.37-2.52-6.29c2.67-0.57,3.4,0.79,3.77,2.52
	c1.37-7.19,1.06-20.42,0.84-26.85c-0.83-1.96,0.58,1.96-1.26,1.68c-2.91,0.38-3.53-2.78-2.52-5.04c2.16-0.34,2.89,0.75,4.2,1.26
	c0.03-8.28-0.13-27.05,0.42-34.83c-1.49-1.45-4.51-1.36-4.61-4.2c0.36-1.98,2.67-2.55,4.2-1.26c1.35-0.95,0.05-2.36,0.84-3.36
	c0.33-1.07,1.47,1.18,2.1,0c2.76-12.72,18.33-22.82,34.41-19.3c1.29-0.11,1.89-0.91,2.94-1.26c15.07,0.63,44.93,0.78,73.28,0.88
	c-1.3-0.95-2.51-2.01-3.58-3.2c-0.79-0.86-1.45-1.68-2.04-2.45c-16.99-0.08-35.32-0.17-41.65-0.26
	C112.09,120.07,114.39,119.45,114.08,121.44z M270.3,621.61c1.95-1.65,5.8-0.6,6.29,1.68c-1.24,1.9-3.84,1.52-5.45,1.26
	C270.79,623.64,270.05,623.11,270.3,621.61z M256.87,622.02c1.5-0.57,7.13,0.3,5.87,2.52c-0.73,1.62-4.97,0.86-5.87,0
	C256.74,623.56,256.05,622.81,256.87,622.02z M238.41,620.77c2.3,0.34,5.98-0.3,8.39,1.26c-0.09,4.21-3.38,1.09-5.88,3.36
	C240.91,623.02,238.02,623.53,238.41,620.77z M223.72,621.19c2.9-0.63,4.26,0.15,5.87,1.68c-0.96,2.3-5.63,2.08-6.29-0.42
	C223.79,622.38,223.76,621.78,223.72,621.19z M207.78,620.35c3.21,0.01,6.1,0.34,7.13,2.52c-0.49,0.07-0.46,0.66-0.42,1.26
	c-1.95,1.07-4.5-0.4-6.29-0.84C208.4,621.96,207.44,621.8,207.78,620.35z M190.99,620.35c7.68-1.73,8.21,5.12,0.42,3.35
	C191.66,622.15,190.12,621.27,190.99,620.35z M181.76,622.45c-1.06,1.35-50.9,0.95-52.58,0.42c-0.14-0.98-0.51-1.73-0.84-2.52
	C131.55,619.22,180.83,619.46,181.76,622.45z M117.01,623.29c-2.09,0.13-3.85-0.07-5.45-0.42c0.06-1.03,0.06-2.02-0.42-2.52
	C113.7,618.8,118.73,619.65,117.01,623.29z M87.64,622.45c-1.62,1.64-4.36,0.45-5.87-0.42c0.3-1.28-0.43-1.53-0.42-2.52
	C84.2,618.81,87.6,619.69,87.64,622.45z M64.15,618.25c3.17-1.36,7.62,1.1,6.71,3.78C67.97,623.09,63.86,621.76,64.15,618.25z
	 M58.69,621.19c-4.07,0.15-5.25-2.58-7.13-4.62C54.76,614.69,58.29,617.7,58.69,621.19z M48.2,613.21c-0.14,0.98-0.5,1.74-0.84,2.52
	c-3.72,0.71-4.57-2.96-3.78-5.46C46.31,610.08,46.55,612.34,48.2,613.21z M43.17,604.82c-1.81,0.28-2.35-0.72-3.36-1.26
	c-0.68-4.14,0.65-5.47,3.36-3.36C43.04,601.84,44.25,603.52,43.17,604.82z M43.17,588.04c-0.55,1.27-0.29,3.35-0.84,4.62
	c-1.81,0.27-2.35-0.73-3.36-1.26c-0.1-1.78,0.38-2.97,0.84-4.2C41.48,586.93,41.49,588.31,43.17,588.04z M39.39,575.87
	c1.3-0.62,2.31,0.12,3.35,0.84c0.13,2.65-1.04,5.26-3.78,3.78C38.93,578.77,38.89,577.05,39.39,575.87z M42.33,568.73
	c-1.64,0.25-2.44-0.36-3.36-0.84c-0.13-2.09,0.06-3.85,0.42-5.46C44.41,561.74,42.33,567.28,42.33,568.73z M40.22,428.65
	c3.61,0.43,2.98,3.31,3.35,6.36C39.2,436.11,38.85,430.82,40.22,428.65z M40.44,329.52c3.61,0.43,2.98,3.31,3.35,6.36
	C39.42,336.98,39.07,331.68,40.44,329.52z M42.74,532.65c-3.61-0.43-2.98-3.28-3.35-6.29C43.77,525.27,44.12,530.51,42.74,532.65z
	 M43.58,448.84c-2.16,0.63-2.07-1-3.35-1.26c0.28-2.22,0.41-2.58,0.42-5.46c1.58-0.32,2.01,0.51,3.36,0.42
	C44.13,443.43,44.25,447.41,43.58,448.84z M40.99,315.95c3.61,0.43,2.98,3.31,3.35,6.36C39.97,323.41,39.61,318.12,40.99,315.95z
	 M40.99,301.84c3.61,0.43,2.98,3.31,3.35,6.36C39.97,309.3,39.61,304.01,40.99,301.84z M40.99,287.66c3.61,0.43,2.98,3.31,3.35,6.36
	C39.97,295.12,39.61,289.83,40.99,287.66z M40.99,272.01c3.61,0.43,2.98,3.31,3.35,6.36C39.97,279.47,39.61,274.18,40.99,272.01z
	 M40.99,257.11c3.61,0.43,2.98,3.31,3.35,6.36C39.97,264.56,39.61,259.27,40.99,257.11z M40.99,243.22
	c3.61,0.43,2.98,3.31,3.35,6.36C39.97,250.67,39.61,245.38,40.99,243.22z M40.99,229.32c3.61,0.43,2.98,3.31,3.35,6.36
	C39.97,236.78,39.61,231.49,40.99,229.32z M44.42,199.48c0.74,1.49-1.01,2.11-0.42,4.62c-1.34,0.07-1.85,0.95-3.36,0.84
	c-1.37-2,0.65-4.69,0-5.87C42.33,198.78,43.04,199.46,44.42,199.48z M47.78,139.06c-2.34,0.07-3.29-4.29-0.84-6.71
	C54.05,131.58,51.38,138.95,47.78,139.06z M59.53,128.15c-1.41,1.34-4.3,0.52-5.45,0.42C51.47,124.53,60.46,122.17,59.53,128.15z
	 M66.66,124.79c-0.93-0.57-1.24-3.17-0.42-4.2c2.76-0.38,3.5,1.25,3.78,3.36C68.75,124.09,68.52,125.25,66.66,124.79z M84.71,122.28
	c-2.1,0.75-5.8,0.48-5.46-2.52C81.32,117.44,85.44,118.77,84.71,122.28z M130.02,122.7c-1.58,0.62-4.71,0.62-6.29,0
	c-0.63-1.28,0.14-1.63-0.42-2.52C126.72,119.51,129.43,118.89,130.02,122.7z"/>
<path class="st234" d="M475.35,122.57c0.45,0.01,0.89,0.02,1.33,0.04C476.11,122.47,475.69,122.48,475.35,122.57z"/>
<path class="st234" d="M274.91,119.76c0.61,0.65,0.56,1.96,1.26,2.52c-1.15,2.9-6.02-0.24-7.13,2.94
	c6.73,0.75,11.77,0.52,18.46,0.42c-0.42-0.34-0.83-0.7-1.17-1.13c-7.52,1.19-4.9-5.07-0.75-3.25c0.79-0.97,1.97-1.2,3.23-1.01v5.31
	c-0.02,0.03-0.04,0.05-0.05,0.07c0.02,0,0.03,0,0.05,0v1.16c29.41,0.36,59.63-0.11,91.06,1.24c-5.86-2.16-11.26-4.68-16.11-6.94
	l-0.55-0.27c-31.38-0.35-61.16-0.67-80.26-1.01C280.31,119.83,277.64,119.84,274.91,119.76z M355.85,122.19
	c1.95-1.08,4.5,0.41,6.29,0.85c-0.2,1.34,0.76,1.5,0.42,2.97c-3.21-0.01-6.1-0.34-7.13-2.54
	C355.92,123.39,355.89,122.79,355.85,122.19z M347.04,123.88c-0.49,0.07-0.46,0.67-0.42,1.27c-2.9,0.64-4.26-0.15-5.87-1.7
	C341.71,121.14,346.38,121.35,347.04,123.88z M329.42,120.92c0.01,2.39,2.9,1.87,2.52,4.66c-2.3-0.34-5.98,0.3-8.39-1.27
	C323.63,120.06,326.92,123.21,329.42,120.92z M307.6,121.76c0.73-1.64,4.97-0.86,5.87,0c0.13,0.99,0.82,1.75,0,2.55
	C311.97,124.89,306.34,124.01,307.6,121.76z M299.2,121.76c0.35,0.92,1.09,1.45,0.84,2.97c-1.95,1.67-5.8,0.6-6.29-1.7
	C294.99,121.11,297.59,121.5,299.2,121.76z"/>
<path class="st234" d="M317.73,101.01c-0.85-0.29-1.69-0.57-2.53-0.84c-0.3,0.28-0.6,0.55-0.89,0.83
	C315.56,101.18,316.69,101.17,317.73,101.01z"/>
<path class="st234" d="M492.21,128.97c0.98,0.06,2.38,0.47,3.36,0.42c18.77-0.84,38.81,1.93,40.7,23.32
	c1.2,13.62-2.48,28.95-0.84,41.13c0.24-2.2,1.25-4.79,3.77-3.39c1.86,2.82-0.6,7.75-3.77,3.82c-0.59,14.01-0.48,320.33-0.84,336.26
	c2.95-0.32,0.32-2.81,2.1-3.39c3.47-0.04,3.01,3.4,2.52,6.36c-2.67,0.58-3.4-0.8-3.77-2.54c-1.37,7.26-1.06,20.63-0.84,27.13
	c0.83,1.98-0.58-1.98,1.26-1.7c2.91-0.38,3.53,2.8,2.52,5.09c-2.16,0.35-2.89-0.75-4.2-1.27c-0.03,8.36,0.13,25.22-0.42,33.08
	c1.49,1.46,4.51,1.38,4.61,4.24c-0.36,2-2.67,2.57-4.2,1.27c-1.35,0.96-0.05,2.39-0.84,3.39c-0.33,1.08-1.47-1.19-2.1,0
	c-2.76,12.85-18.33,23.06-34.41,19.5c-1.29,0.11-1.89,0.92-2.94,1.27c-27.3-1.15-112.59-0.72-140.14-1.27
	c-1.68,0.2,1.92,2.72,0.42,4.24c-1.33,1.43-5.06,1.09-5.46-0.85c-0.29-1.87,2.58-2.74,2.1-3.39c-6.4-0.46-9.12,0.11-15.11-0.42
	c0.31,1.39,2.2,1.16,2.1,2.97c0.32,2.02-1.43,1.95-2.52,2.54c10.27,0.88,23.21,0.44,29.79,0.42c2.01-0.1-0.64-1.18-0.84-1.7
	c0.42-0.84,0.73-1.81,1.68-2.12c3.08-0.67,2.93,3.09,3.35,3.82c2.95,0.98,5.3-0.52,8.81,0.43c0.05-3.06,2.79-3.4,5.45-3.82
	c1.57,0.34,0.93,3.4,1.26,3.82c3.84,0.03,7.09,0.08,10.27,0.13c-0.29-0.45-0.5-1.04-0.62-1.83c1.58-0.63,4.71-0.63,6.29,0
	c0.47,0.96,0.17,1.4,0.21,1.93c3.38,0.06,7.04,0.13,11.54,0.2c-0.11-1.59-2.41-0.96-2.1-2.97c-0.2-1.33,1.13-1.12,1.26-2.12
	c2.74-0.51,59.09,0.77,59.99,2.12c-0.14,1.56-1.18,2.21-2.52,2.55c4.09,0.93,9.19,0.19,12.59,0.85c-0.12-1.57-1.84-1.52-1.26-3.81
	c0.63-1.31,3.95-1.09,4.62,0c1.14,2.36-1.28,2.76-0.84,3.81c3.82,0.46,7.76,0.72,11.68,0.77c-0.67-0.64-1.04-1.62-0.77-2.89
	c2.1-0.75,5.8-0.48,5.46,2.54c-0.1,0.11-0.21,0.21-0.31,0.3c3.97-0.14,7.87-0.53,11.56-1.23c-1.35-0.42-1.82-1.73-2.02-3.31
	c1.27-0.13,1.5-1.31,3.36-0.85c0.81,0.5,1.14,2.52,0.69,3.74c11.34-2.56,20.39-8.23,22.81-18.57c0.47-1.45,1.63,0.14,2.1-0.85
	c1.02-7.97,0.27-13.55,0.84-21.2c-1.19-0.55-3.3,0.38-4.61-0.85c1.07-1.59-0.48-2.11,0.84-3.82c2.13-0.88,2.08,0.74,3.78,1.27
	c-0.14-2.48,0.1-5.93,0-9.76c-0.57,1.71-2.49,1.22-3.78,0.42c-0.81-1.37-1.08-3.52,0-4.66c2.16,0.08,2.93,1.56,3.36,3.39
	c1.86-28.18,0.87-338.85,2.1-368.91c-1.67,0.43-0.61,3.62-2.1,4.24c-4.17,0.57-3.11-5.12-0.84-5.94c1.39-0.13,1.59,0.94,2.52,1.27
	c1.13-18.66,2.01-43.07,1.26-66.14c-4.46-3.48-7.24-10.17-13.01-12.3c-2.4-0.88-6.23,0.67-7.97-2.12
	c-14.21-0.09-28.57-0.55-40.7-0.85c-2.03,0.41,1.94,1.19,0.84,3.39c-2.88,1.06-5.74,1.64-7.14-0.85c0.11-1.01,0.32-1.91,1.18-2.16
	c-15.16-0.44-36.54-0.8-59.98-1.12c-0.64,0.81-1.38,1.69-2.25,2.6c-0.07,0.08-0.15,0.15-0.23,0.22c0,0.72,0.09,1.36,0.44,1.73
	c-0.9,0.55-2.11,0.8-3.23,0.73c-0.85,0.64-1.75,1.22-2.68,1.74C436.79,128.55,479.38,128.19,492.21,128.97z M520.32,620.41
	c1.41-1.36,4.3-0.52,5.45-0.42C528.39,624.07,519.4,626.46,520.32,620.41z M532.91,616.17c-7.11,0.78-4.44-6.67-0.84-6.79
	C534.42,609.31,535.37,613.72,532.91,616.17z M539.21,451.21c-1.58,0.33-2.01-0.52-3.36-0.42c-0.12-0.89-0.24-4.91,0.42-6.36
	c2.16-0.63,2.07,1.01,3.35,1.27C539.35,447.94,539.22,448.31,539.21,451.21z M539.21,548.76c-1.69,0.29-2.39-0.4-3.77-0.42
	c-0.74-1.51,1.01-2.13,0.42-4.67c1.34-0.07,1.85-0.96,3.36-0.85C540.58,544.84,538.56,547.56,539.21,548.76z M536.34,430.66
	c3.61,0.43,2.98,3.31,3.35,6.36C535.32,438.12,534.97,432.82,536.34,430.66z M536.34,342.28c3.61,0.43,2.98,3.31,3.35,6.36
	C535.32,349.73,534.97,344.44,536.34,342.28z M536.34,328.08c3.61,0.43,2.98,3.31,3.35,6.36
	C535.32,335.54,534.97,330.25,536.34,328.08z M537.11,214.62c3.61,0.43,2.98,3.31,3.35,6.36
	C536.09,222.07,535.73,216.78,537.11,214.62z M537.11,228.51c3.61,0.43,2.98,3.31,3.35,6.36
	C536.09,235.97,535.73,230.68,537.11,228.51z M537.11,242.4c3.61,0.43,2.98,3.31,3.35,6.36
	C536.09,249.86,535.73,244.57,537.11,242.4z M537.11,257.31c3.61,0.43,2.98,3.31,3.35,6.36
	C536.09,264.77,535.73,259.48,537.11,257.31z M537.11,272.96c3.61,0.43,2.98,3.31,3.35,6.36
	C536.09,280.42,535.73,275.13,537.11,272.96z M537.11,287.14c3.61,0.43,2.98,3.31,3.35,6.36
	C536.09,294.59,535.73,289.3,537.11,287.14z M537.11,301.25c3.61,0.43,2.98,3.31,3.35,6.36
	C536.09,308.7,535.73,303.41,537.11,301.25z M536.56,314.81c3.61,0.43,2.98,3.31,3.35,6.36
	C535.54,322.27,535.19,316.98,536.56,314.81z M540.47,184.51c-5.02,0.71-2.94-4.89-2.94-6.36c1.64-0.25,2.44,0.36,3.36,0.85
	C541.02,181.11,540.82,182.89,540.47,184.51z M540.47,170.95c-1.3,0.63-2.31-0.12-3.35-0.85c-0.13-2.68,1.04-5.32,3.78-3.82
	C540.93,168.02,540.97,169.76,540.47,170.95z M540.89,155.26c0.1,1.8-0.38,3-0.84,4.24c-1.67,0.27-1.69-1.12-3.36-0.85
	c0.55-1.28,0.29-3.38,0.84-4.66C539.34,153.71,539.88,154.72,540.89,155.26z M540.05,142.96c0.68,4.18-0.65,5.53-3.36,3.39
	c0.13-1.65-1.09-3.35,0-4.66C538.5,141.41,539.04,142.42,540.05,142.96z M532.49,130.66c3.72-0.72,4.57,3,3.78,5.51
	c-2.72,0.2-2.97-2.09-4.62-2.97C531.79,132.22,532.16,131.46,532.49,130.66z M528.3,129.82c-3.21,1.9-6.74-1.14-7.13-4.66
	C525.24,125,526.41,127.77,528.3,129.82z M509,124.31c2.89-1.08,7,0.27,6.71,3.82C512.54,129.5,508.09,127.01,509,124.31z
	 M498.09,124.31c-0.3,1.29,0.43,1.54,0.42,2.54c-2.85,0.7-6.25-0.18-6.29-2.97C493.83,122.22,496.57,123.42,498.09,124.31z"/>
<path class="st234" d="M104.5,623.74c-0.45-0.01-0.89-0.02-1.33-0.04C103.74,623.84,104.17,623.84,104.5,623.74z"/>
<path class="st1" d="M79.25,119.76c-0.35,2.99,3.36,3.26,5.46,2.52C85.44,118.77,81.32,117.44,79.25,119.76z"/>
<path class="st1" d="M123.73,122.7c1.58,0.62,4.71,0.62,6.29,0c-0.59-3.81-3.3-3.19-6.71-2.52
	C123.87,121.07,123.1,121.42,123.73,122.7z"/>
<path class="st1" d="M66.24,120.6c-0.82,1.03-0.52,3.62,0.42,4.2c1.86,0.46,2.09-0.71,3.36-0.84
	C69.75,121.85,69.01,120.21,66.24,120.6z"/>
<path class="st1" d="M54.08,128.57c1.15,0.1,4.04,0.92,5.45-0.42C60.46,122.17,51.47,124.53,54.08,128.57z"/>
<path class="st1" d="M46.94,132.35c-2.46,2.43-1.5,6.79,0.84,6.71C51.38,138.95,54.05,131.58,46.94,132.35z"/>
<path class="st1" d="M40.65,204.94c1.51,0.11,2.02-0.77,3.36-0.84c-0.59-2.51,1.16-3.13,0.42-4.62c-1.38-0.02-2.09-0.71-3.77-0.42
	C41.29,200.25,39.28,202.94,40.65,204.94z"/>
<path class="st1" d="M40.65,442.13c-0.01,2.88-0.14,3.24-0.42,5.46c1.28,0.26,1.19,1.88,3.35,1.26c0.66-1.44,0.54-5.42,0.42-6.29
	C42.65,442.64,42.23,441.81,40.65,442.13z"/>
<path class="st1" d="M39.39,526.36c0.38,3.01-0.26,5.87,3.35,6.29C44.12,530.51,43.77,525.27,39.39,526.36z"/>
<path class="st1" d="M38.97,567.9c0.92,0.48,1.72,1.08,3.36,0.84c0.01-1.45,2.08-6.99-2.94-6.29
	C39.03,564.05,38.84,565.81,38.97,567.9z"/>
<path class="st1" d="M42.74,576.71c-1.05-0.72-2.06-1.46-3.35-0.84c-0.5,1.18-0.46,2.9-0.42,4.62
	C41.7,581.97,42.87,579.36,42.74,576.71z"/>
<path class="st1" d="M39.81,587.2c-0.45,1.23-0.94,2.42-0.84,4.2c1.01,0.53,1.55,1.53,3.36,1.26c0.55-1.27,0.29-3.35,0.84-4.62
	C41.49,588.31,41.48,586.93,39.81,587.2z"/>
<path class="st1" d="M39.81,603.56c1.01,0.53,1.55,1.53,3.36,1.26c1.09-1.3-0.13-2.98,0-4.62C40.46,598.1,39.13,599.43,39.81,603.56
	z"/>
<path class="st1" d="M47.36,615.73c0.34-0.78,0.7-1.54,0.84-2.52c-1.65-0.87-1.89-3.14-4.62-2.94
	C42.79,612.77,43.64,616.45,47.36,615.73z"/>
<path class="st1" d="M58.69,621.19c-0.4-3.49-3.93-6.49-7.13-4.62C53.44,618.6,54.62,621.34,58.69,621.19z"/>
<path class="st1" d="M70.86,622.02c0.91-2.67-3.54-5.14-6.71-3.78C63.86,621.76,67.97,623.09,70.86,622.02z"/>
<path class="st1" d="M81.77,622.02c1.52,0.88,4.25,2.07,5.87,0.42c-0.05-2.76-3.44-3.63-6.29-2.94
	C81.34,620.5,82.07,620.74,81.77,622.02z"/>
<path class="st1" d="M111.56,622.87c1.6,0.35,3.37,0.55,5.45,0.42c1.71-3.63-3.32-4.48-5.87-2.94
	C111.62,620.84,111.61,621.83,111.56,622.87z"/>
<path class="st1" d="M240.93,625.38c2.5-2.27,5.78,0.85,5.88-3.36c-2.41-1.56-6.1-0.92-8.39-1.26
	C238.02,623.53,240.91,623.02,240.93,625.38z"/>
<path class="st1" d="M208.2,623.29c1.79,0.44,4.35,1.91,6.29,0.84c-0.04-0.6-0.07-1.19,0.42-1.26c-1.04-2.18-3.92-2.51-7.13-2.52
	C207.44,621.8,208.4,621.96,208.2,623.29z"/>
<path class="st1" d="M191.41,623.7c7.79,1.77,7.26-5.08-0.42-3.35C190.12,621.27,191.66,622.15,191.41,623.7z"/>
<path class="st1" d="M276.59,623.29c-0.5-2.28-4.35-3.33-6.29-1.68c-0.25,1.5,0.49,2.03,0.84,2.94
	C272.75,624.81,275.35,625.19,276.59,623.29z"/>
<path class="st1" d="M229.6,622.87c-1.61-1.53-2.97-2.31-5.87-1.68c0.04,0.6,0.07,1.19-0.42,1.26
	C223.96,624.95,228.64,625.16,229.6,622.87z"/>
<path class="st1" d="M262.75,624.54c1.26-2.22-4.37-3.09-5.87-2.52c-0.82,0.79-0.13,1.54,0,2.52
	C257.77,625.4,262.01,626.16,262.75,624.54z"/>
<path class="st1" d="M288.81,645.12c-5.71-0.14-11.45-0.28-17.26-0.44c-7.37-0.2-15.09-0.52-22.66-0.42
	c-27.58,0.38-101.75-0.85-136.92-1.68c-7.62-0.18-14.83,1.09-20.98-0.84c-13.48,1.84-28.5-0.79-44.48,0
	c-1.82,0.94-1.87-1.99-2.52-0.84c-2.04-0.37-2.79,0.57-4.2,0.84c-10.07-2.65-15.67-11.44-20.14-20.98
	c-2.75-5.88-2.91-8.52-2.52-17.2c0.56-12.56-1.19-26.74,0.42-39.02c0.36-2.77,0.3-4,0-7.13c-1.06-11.04,0.7-94.96,0.84-106.88
	c0.23-20.32,1.83-253.87,1.26-274.54c-0.04-1.45-0.87-2.95-0.84-4.19c0.04-2,1.17-3.94,1.26-5.88c0.69-14.67-2.19-29.56,5.04-40.28
	c5.19-2.99,7.56-9.65,12.59-13.01c1.6-1.06,4.32-1.91,6.71-3.36c5.94-3.58,11.64-7.01,20.56-7.55c-7.47-4.6-17.17,3.98-23.5,4.62
	c-5.27,3.68-11.6,8.54-14.27,13.43c-3.58,2.44-5.12,4.01-6.29,8.81c-0.94,0.71-1.02-1.15-2.11-1.66c-0.6,1.76-1.04,3.43-1.35,4.93
	c-0.35,9.04-1.42,19.09,0.1,26.1c-0.4,2.21-0.67,4.54-0.87,6.93v18.7l-2.93,350.17c0.24,0.41,0.51,0.78,0.87,1
	c-0.88,4.11,0.01,9.63-0.42,14.27c-0.29-0.76-0.63-1.56-0.99-2.38l-0.37,8.83c0.03,0.09,0.07,0.18,0.1,0.27
	c-0.05,0.05-0.08,0.11-0.12,0.16l-0.21,4.89c0.07,0.71,0.08,1.45-0.09,2.23l-0.33,7.83c0.11,0.14,0.23,0.29,0.34,0.42
	c-0.23,0.53-0.35,1.06-0.42,1.59l-0.09,2.1c0.02,0.93,0.06,1.83-0.11,2.68l-0.35,8.28c0.45,2.43,0.43,5.08-0.26,8.03
	c0.61,51.32,38.57,52.51,38.57,52.51h0.23c-0.07-0.03-0.15-0.05-0.23-0.08c2.5-0.04,4.94-0.01,7.31,0.08l41.49-0.06
	c-0.41-0.79-2.82-0.24-1.39-1.27c1.83,1.25,6.56-0.41,8.39,0.84c-0.36,0.13-0.69,0.29-1.04,0.42l15.63-0.02l106.12,1.99
	c2.21-0.2,4.52-0.2,6.98,0.13c-0.18,0.03-0.34,0.06-0.51,0.08l6.35,0.21c0.44-0.1,0.86-0.2,1.3-0.29c-0.21,0.11-0.43,0.21-0.65,0.31
	l6.13,0.2c2.18-1.4,4.64-2.25,7.94-1.78c-0.69,0.67-1.4,1.32-2.12,1.97l16.68,0.55l13.04,0.45v0.25h7.28l0,0v0h82.09
	c-0.94-0.28-1.9-0.54-2.88-0.76c28.66-1.7,116.61,2.35,146.85-0.85c-45.53-2.45-168-1.67-226.06-3.09V645.12z"/>
<path class="st1" d="M475.35,122.57c0.34-0.1,0.76-0.1,1.33,0.04C476.24,122.6,475.8,122.59,475.35,122.57
	c-0.86,0.25-1.07,1.15-1.18,2.16c1.39,2.49,4.26,1.91,7.14,0.85c1.1-2.2-2.87-2.98-0.84-3.39c12.13,0.3,26.49,0.75,40.7,0.85
	c1.74,2.79,5.58,1.24,7.97,2.12c5.76,2.12,8.54,8.81,13.01,12.3c0.75,23.07-0.12,47.49-1.26,66.14c-0.93-0.33-1.12-1.41-2.52-1.27
	c-2.27,0.81-3.34,6.51,0.84,5.94c1.49-0.62,0.43-3.81,2.1-4.24c-1.23,30.06-0.24,340.73-2.1,368.91c-0.43-1.83-1.2-3.32-3.36-3.39
	c-1.08,1.14-0.81,3.29,0,4.66c1.29,0.8,3.21,1.28,3.78-0.42c0.1,3.83-0.14,7.28,0,9.76c-1.69-0.53-1.65-2.16-3.78-1.27
	c-1.31,1.7,0.23,2.23-0.84,3.82c1.32,1.23,3.42,0.3,4.61,0.85c-0.57,7.65,0.18,13.23-0.84,21.2c-0.47,0.98-1.63-0.6-2.1,0.85
	c-2.42,10.34-11.47,16.01-22.81,18.57c0.45-1.21,0.12-3.23-0.69-3.74c-1.86-0.46-2.09,0.72-3.36,0.85c0.2,1.58,0.67,2.89,2.02,3.31
	c-3.69,0.7-7.59,1.1-11.56,1.23c0.11-0.1,0.21-0.19,0.31-0.3c0.35-3.02-3.36-3.29-5.46-2.54c-0.26,1.27,0.1,2.26,0.77,2.89
	c-3.92-0.04-7.86-0.31-11.68-0.77c-0.44-1.05,1.98-1.46,0.84-3.81c-0.67-1.09-3.99-1.31-4.62,0c-0.59,2.29,1.13,2.24,1.26,3.81
	c-3.4-0.65-8.5,0.09-12.59-0.85c1.34-0.34,2.38-0.99,2.52-2.55c-0.9-1.35-57.26-2.62-59.99-2.12c-0.13,1-1.46,0.79-1.26,2.12
	c-0.31,2.01,1.99,1.38,2.1,2.97c-4.5-0.07-8.16-0.14-11.54-0.2c-0.04-0.53,0.26-0.98-0.21-1.93c-1.58-0.63-4.71-0.63-6.29,0
	c0.12,0.79,0.34,1.38,0.62,1.83c-3.18-0.05-6.43-0.09-10.27-0.13c-0.33-0.42,0.31-3.47-1.26-3.82c-2.67,0.41-5.4,0.76-5.45,3.82
	c-3.51-0.95-5.87,0.55-8.81-0.43c-0.43-0.72-0.28-4.49-3.35-3.82c-0.95,0.31-1.26,1.28-1.68,2.12c0.2,0.52,2.85,1.6,0.84,1.7
	c-6.58,0.01-19.52,0.46-29.79-0.42c1.09-0.6,2.84-0.52,2.52-2.54c0.11-1.81-1.79-1.58-2.1-2.97c5.98,0.54,8.71-0.03,15.11,0.42
	c0.48,0.65-2.39,1.52-2.1,3.39c0.39,1.94,4.13,2.28,5.46,0.85c1.5-1.53-2.1-4.04-0.42-4.24c27.54,0.55,112.84,0.13,140.14,1.27
	c1.05-0.35,1.65-1.16,2.94-1.27c16.07,3.55,31.65-6.65,34.41-19.5c0.63-1.19,1.77,1.08,2.1,0c0.79-1.01-0.52-2.44,0.84-3.39
	c1.52,1.3,3.84,0.73,4.2-1.27c-0.11-2.86-3.13-2.78-4.61-4.24c0.55-7.86,0.39-24.72,0.42-33.08c1.3,0.52,2.04,1.62,4.2,1.27
	c1.01-2.29,0.39-5.47-2.52-5.09c-1.84-0.28-0.43,3.68-1.26,1.7c-0.22-6.5-0.53-19.87,0.84-27.13c0.37,1.74,1.1,3.12,3.77,2.54
	c0.5-2.96,0.95-6.4-2.52-6.36c-1.78,0.58,0.85,3.07-2.1,3.39c0.36-15.93,0.26-322.25,0.84-336.26c3.17,3.93,5.64-1,3.77-3.82
	c-2.52-1.39-3.54,1.19-3.77,3.39c-1.64-12.18,2.04-27.51,0.84-41.13c-1.89-21.39-21.94-24.16-40.7-23.32
	c-0.98,0.05-2.38-0.36-3.36-0.42c-12.84-0.78-55.42-0.42-84.78-0.5c-1.29,0.72-2.64,1.32-4.03,1.79
	c27.03,0.36,52.18,0.66,69.51,0.83c10.12,0.1,20.64-0.79,29.79,0.43c7.65,1.01,17.32,2.57,22.66,6.36
	c3.69,2.61,9.58,11.52,6.72,15.26c1.7,2.04,1.22,3.81,1.26,5.93c0.39,22.17-0.53,263.36-0.84,290.44
	c-0.22,19.67-0.17,105.94-0.84,126.38c-0.23,6.89,0.31,11.84-0.42,17.82c-1.07,8.75-5.8,13.81-12.17,19.08
	c-7.44,6.15-16.56,8-28.11,5.93c-1.54,1.38-2.58,0.82-5.45,0.85c-20.72,0.21-100.19-0.23-121.68-0.43
	c-26.4-0.24-54.98-1.06-83.26-1.46l0,0c-42.04-1.01-130.32-1.95-173.62-2.38c-10.12-0.1-20.64,0.78-29.79-0.42
	c-7.65-1-17.32-2.54-22.66-6.29c-3.69-2.59-9.58-11.4-6.72-15.11c-1.7-2.02-1.22-3.77-1.26-5.87
	c-0.39-21.94,0.53-117.01,0.84-143.81c0.22-19.46,0.17-251.37,0.84-271.6c0.23-6.82-0.31-13.8,0.42-19.72
	c1.07-8.66,5.8-13.67,12.17-18.88c7.44-6.09,16.56-7.92,28.11-5.87c1.54-1.36,2.58-0.81,5.45-0.84c12.43-0.12,42.6-0.01,69.38,0.13
	c-1.58-0.7-3.09-1.58-4.49-2.61c-28.35-0.1-58.21-0.26-73.28-0.88c-1.05,0.35-1.65,1.15-2.94,1.26
	c-16.07-3.52-31.65,6.58-34.41,19.3c-0.63,1.18-1.77-1.07-2.1,0c-0.79,1,0.52,2.41-0.84,3.36c-1.52-1.29-3.84-0.72-4.2,1.26
	c0.11,2.83,3.13,2.75,4.61,4.2c-0.55,7.78-0.39,26.55-0.42,34.83c-1.3-0.51-2.04-1.6-4.2-1.26c-1.01,2.26-0.39,5.42,2.52,5.04
	c1.84,0.28,0.43-3.64,1.26-1.68c0.22,6.44,0.53,19.66-0.84,26.85c-0.37-1.72-1.1-3.09-3.77-2.52c-0.5,2.93-0.95,6.33,2.52,6.29
	c1.78-0.57-0.85-3.04,2.1-3.36c-0.36,15.76-0.26,321.82-0.84,335.68c-3.17-3.89-5.64,0.99-3.77,3.78c2.52,1.38,3.54-1.18,3.77-3.36
	c1.64,12.05-2.04,27.22-0.84,40.7c1.89,21.17,21.94,23.91,40.7,23.08c0.98-0.05,2.38,0.36,3.36,0.42c17.63,1.06,81.87,0,100.41,0.84
	c32.15,1.46,63.04,0.95,93.08,1.31l0.4,1.28c0.02,0,0.03,0,0.05,0c-0.01,0.03-0.04,0.05-0.05,0.07v5.37c1.34,0.2,2.6-0.04,3.39-1.19
	c4.07,1.58,6.54-4.5-1.03-3.25c-0.32-0.37-0.68-0.7-1.05-1c6.69-0.1,11.73-0.33,18.46,0.42c-1.11,3.21-5.98,0.04-7.13,2.97
	c0.7,0.56,0.65,1.88,1.26,2.54c-3.95-0.11-7.77-0.05-11.52-0.01c-43.88-0.81-134.23-1.73-179.41-3.03c-0.34,0.1-0.76,0.1-1.33-0.04
	c0.45,0.01,0.89,0.02,1.33,0.04c0.86-0.25,1.07-1.14,1.18-2.13c-1.39-2.46-4.26-1.89-7.14-0.84c-1.1,2.18,2.87,2.95,0.84,3.36
	c-12.13-0.3-26.49-0.75-40.7-0.84c-1.74-2.76-5.58-1.23-7.97-2.1c-5.76-2.1-8.54-8.72-13.01-12.17
	c-0.75-22.83,0.12-46.99,1.26-65.46c0.93,0.33,1.12,1.39,2.52,1.26c2.27-0.8,3.34-6.44-0.84-5.88c-1.49,0.61-0.43,3.77-2.1,4.2
	c1.23-29.74,0.24-340.11,2.1-368c0.43,1.81,1.2,3.28,3.36,3.36c1.08-1.13,0.81-3.26,0-4.62c-1.29-0.79-3.21-1.27-3.78,0.42
	c-0.1-3.79,0.14-9.29,0-11.75c1.69,0.52,1.65,2.13,3.78,1.26c1.31-1.69-0.23-2.2,0.84-3.78c-1.32-1.22-3.42-0.29-4.61-0.84
	c0.57-7.57-0.18-13.09,0.84-20.98c0.47-0.97,1.63,0.59,2.1-0.84c4.37-18.48,30.37-21.91,52.45-19.3c0.44,1.04-1.98,1.44-0.84,3.77
	c0.67,1.08,3.99,1.29,4.62,0c0.59-2.26-1.13-2.22-1.26-3.77c3.4,0.65,8.5-0.08,12.59,0.84c-1.34,0.34-2.38,0.98-2.52,2.52
	c0.9,1.33,1.88,2.6,4.61,2.09c0.13-0.99,1.46-0.78,1.26-2.09c0.31-1.99-1.99-1.37-2.1-2.94c6.33,0.1,24.66,0.19,41.65,0.26
	c-0.71-0.93-1.3-1.78-1.78-2.49c-9.35,0-16.87,0.15-19.73,0.55c-10.64-1.27-24.57-0.73-37.76-0.42c0.05,0-2.47-1.2-1.26,0.42
	c-10.81-3.93-21.86-1.57-32.31-1.68c0.08,1.36-1.68,1.49-3.36,2.1c-1.58,2.83-7.53,2.24-9.65,5.88c-0.09,0.15-0.01,1.69,0,1.68
	c-2.03,2.05-5.36,2.56-5.87,6.3c-1.42,2.16-2.66-2.28-4.2,0c-0.12,38.88-1.29,355.91-0.84,396.53c0.06,5.22-1.24,10.83-1.26,16.37
	c-0.09,20.4-0.55,43.56-0.84,65.04c4.09,6.95,8.44,13.66,18.46,14.69c1.14-0.3-0.3,1.98,0.84,1.68
	c59.91,1.96,167.33,2.07,227.13,3.78c2.55,0.07,5.08,0.13,7.61,0.2v-0.05c24.5,0.47,47.84,0.83,70.39,0.45
	c10.68-0.18,23.81,1.34,33.15,0c10.64,1.29,79.95,0.73,93.14,0.42c-0.05,0,2.47,1.21,1.26-0.42c10.81,3.97,21.86,1.58,32.31,1.7
	c-0.08-1.37,1.68-1.51,3.36-2.12c1.58-2.86,7.53-2.26,9.65-5.94c0.09-0.15,0.01-1.7,0-1.7c2.03-2.07,5.36-2.58,5.87-6.36
	c1.42-2.18,2.66,2.3,4.2,0c0.12-39.29,1.29-354.58,0.84-395.63c-0.06-5.28,1.24-10.94,1.26-16.54c0.09-20.62,0.55-44.01,0.84-65.72
	c-4.09-7.03-8.44-13.8-18.46-14.84c-1.14,0.3,0.3-2-0.84-1.7c-27.57-0.91-67.65-1.36-108.71-1.75c-0.47,0.66-1.03,1.43-1.7,2.28
	C438.81,121.77,460.2,122.14,475.35,122.57z M334.45,622.97c-1.32,1.52-3.52,0.02-5.03,1.7c-1.3,1.13,1.1,1.61,0,2.54
	c-6.18-0.06-5.25-0.48-10.07,0c-0.88-0.51,1.33-1.45,1.26-2.54c-0.19-3.14-6.27-3.65-5.87,0.42c0.04,1.38,2.5,0.3,2.1,2.12
	c-5.21-0.53-11.42-0.04-16.36-0.85c0.71-0.98,2.33-1.04,2.94-2.12c0.48-1.76-0.88-1.65-0.84-2.97c9.97-0.85,18.83,0.46,30.21-0.42
	C332.71,622.18,335.12,621.03,334.45,622.97z"/>
<path class="st1" d="M204.42,123.12c0.95-0.31,1.26-1.26,1.68-2.1c-0.14-0.38-1.64-1.06-1.58-1.43c-1,0.44-2.01,0.88-3.04,1.33
	C201.8,122.15,202.44,123.54,204.42,123.12z"/>
<path class="st1" d="M280.51,128.21c24.35,0.6,65.54,1.26,105.46,1.82c-0.85-0.24-1.64-0.48-2.35-0.69l-0.25-0.08
	c-0.12-0.04-0.24-0.07-0.35-0.11c-1.06-0.36-2.11-0.73-3.15-1.11c-31.42-1.35-61.65-0.87-91.06-1.24v-1.16c-0.02,0-0.03,0-0.05,0
	c0.01-0.03,0.04-0.05,0.05-0.07v-5.31c-1.26-0.19-2.44,0.04-3.23,1.01c-4.14-1.82-6.77,4.44,0.75,3.25
	c0.34,0.42,0.75,0.79,1.17,1.13c-6.69,0.1-11.73,0.33-18.46-0.42c1.11-3.18,5.98-0.04,7.13-2.94c-0.7-0.56-0.65-1.86-1.26-2.52
	c2.73,0.08,5.4,0.07,8.04,0.05c19.1,0.35,48.88,0.66,80.26,1.01l-4.6-2.21c-27.29-0.29-52.41-0.65-71.49-1.2
	c-2.55-0.07-5.08-0.13-7.61-0.2v0.25c-23.93-0.5-46.15-1.02-68.38-0.64c-0.16,0-0.34,0.01-0.52,0.01l-5.39,2.45
	c-0.06,0.03-0.13,0.06-0.19,0.09c0.07-0.01,0.14-0.02,0.23-0.02c6.58-0.02,19.52-0.45,29.79,0.42c-1.09,0.59-2.84,0.52-2.52,2.52
	c-0.11,1.79,1.79,1.57,2.1,2.94c-5.98-0.53-8.71,0.03-15.11-0.42c-0.48-0.64,2.39-1.51,2.1-3.36c-0.39-1.92-4.13-2.25-5.46-0.84
	c-1.5,1.51,2.1,4,0.42,4.2c-6.02-0.12-14.35-0.19-23.97-0.25c-2.26,0.86-4.58,1.68-6.97,2.42c-0.12,0.04-0.24,0.07-0.35,0.11
	l-0.25,0.07c-0.01,0-0.02,0.01-0.03,0.01c8.96,0.06,16.53,0.12,21.51,0.16C230.33,127.52,255.13,127.85,280.51,128.21z
	 M235.89,123.53c1.32-1.5,3.52-0.02,5.03-1.68c1.3-1.12-1.1-1.59,0-2.51c6.18,0.06,5.25,0.47,10.07,0c0.88,0.5-1.33,1.44-1.26,2.51
	c0.19,3.11,6.27,3.62,5.87-0.42c-0.04-1.36-2.5-0.3-2.1-2.1c5.21,0.52,11.42,0.04,16.36,0.84c-0.71,0.97-2.33,1.03-2.94,2.1
	c-0.48,1.74,0.88,1.63,0.84,2.94c-9.97,0.84-18.83-0.46-30.21,0.42C237.63,124.31,235.23,125.46,235.89,123.53z"/>
<path class="st1" d="M520.32,620.41c-0.93,6.05,8.06,3.66,5.45-0.42C524.62,619.89,521.74,619.06,520.32,620.41z"/>
<path class="st1" d="M532.07,609.39c-3.6,0.11-6.27,7.56,0.84,6.79C535.37,613.72,534.42,609.31,532.07,609.39z"/>
<path class="st1" d="M539.21,542.82c-1.51-0.11-2.02,0.78-3.36,0.85c0.59,2.53-1.16,3.16-0.42,4.67c1.38,0.02,2.09,0.71,3.77,0.42
	C538.56,547.56,540.58,544.84,539.21,542.82z"/>
<path class="st1" d="M536.27,444.43c-0.66,1.45-0.54,5.47-0.42,6.36c1.35-0.09,1.78,0.75,3.36,0.42c0.01-2.91,0.14-3.27,0.42-5.51
	C538.35,445.44,538.43,443.8,536.27,444.43z"/>
<path class="st1" d="M540.47,220.98c-0.38-3.05,0.26-5.93-3.35-6.36C535.73,216.78,536.09,222.07,540.47,220.98z"/>
<path class="st1" d="M540.47,234.87c-0.38-3.05,0.26-5.93-3.35-6.36C535.73,230.68,536.09,235.97,540.47,234.87z"/>
<path class="st1" d="M540.47,248.76c-0.38-3.05,0.26-5.93-3.35-6.36C535.73,244.57,536.09,249.86,540.47,248.76z"/>
<path class="st1" d="M540.47,263.67c-0.38-3.05,0.26-5.93-3.35-6.36C535.73,259.48,536.09,264.77,540.47,263.67z"/>
<path class="st1" d="M540.47,279.32c-0.38-3.05,0.26-5.93-3.35-6.36C535.73,275.13,536.09,280.42,540.47,279.32z"/>
<path class="st1" d="M540.47,293.5c-0.38-3.05,0.26-5.93-3.35-6.36C535.73,289.3,536.09,294.59,540.47,293.5z"/>
<path class="st1" d="M540.47,307.61c-0.38-3.05,0.26-5.93-3.35-6.36C535.73,303.41,536.09,308.7,540.47,307.61z"/>
<path class="st1" d="M539.92,321.17c-0.38-3.05,0.26-5.93-3.35-6.36C535.19,316.98,535.54,322.27,539.92,321.17z"/>
<path class="st1" d="M536.34,328.08c-1.38,2.17-1.02,7.46,3.35,6.36C539.32,331.4,539.96,328.52,536.34,328.08z"/>
<path class="st1" d="M44.35,235.68c-0.38-3.05,0.26-5.93-3.35-6.36C39.61,231.49,39.97,236.78,44.35,235.68z"/>
<path class="st1" d="M40.99,243.22c-1.38,2.17-1.02,7.46,3.35,6.36C43.97,246.53,44.61,243.65,40.99,243.22z"/>
<path class="st1" d="M40.99,257.11c-1.38,2.17-1.02,7.46,3.35,6.36C43.97,260.42,44.61,257.54,40.99,257.11z"/>
<path class="st1" d="M40.99,272.01c-1.38,2.17-1.02,7.46,3.35,6.36C43.97,275.33,44.61,272.44,40.99,272.01z"/>
<path class="st1" d="M40.99,287.66c-1.38,2.17-1.02,7.46,3.35,6.36C43.97,290.98,44.61,288.1,40.99,287.66z"/>
<path class="st1" d="M40.99,301.84c-1.38,2.17-1.02,7.46,3.35,6.36C43.97,305.16,44.61,302.27,40.99,301.84z"/>
<path class="st1" d="M40.99,315.95c-1.38,2.17-1.02,7.46,3.35,6.36C43.97,319.26,44.61,316.38,40.99,315.95z"/>
<path class="st1" d="M43.8,335.88c-0.38-3.05,0.26-5.93-3.35-6.36C39.07,331.68,39.42,336.98,43.8,335.88z"/>
<path class="st1" d="M43.58,435.01c-0.38-3.05,0.26-5.93-3.35-6.36C38.85,430.82,39.2,436.11,43.58,435.01z"/>
<path class="st1" d="M536.34,342.28c-1.38,2.17-1.02,7.46,3.35,6.36C539.32,345.59,539.96,342.71,536.34,342.28z"/>
<path class="st1" d="M536.34,430.66c-1.38,2.17-1.02,7.46,3.35,6.36C539.32,433.97,539.96,431.09,536.34,430.66z"/>
<path class="st1" d="M537.53,178.16c-0.01,1.47-2.08,7.07,2.94,6.36c0.36-1.62,0.55-3.4,0.42-5.51
	C539.96,178.52,539.17,177.91,537.53,178.16z"/>
<path class="st1" d="M537.11,170.1c1.05,0.73,2.06,1.48,3.35,0.85c0.5-1.19,0.46-2.93,0.42-4.66
	C538.15,164.78,536.99,167.42,537.11,170.1z"/>
<path class="st1" d="M537.53,153.99c-0.55,1.28-0.29,3.38-0.84,4.66c1.67-0.27,1.69,1.12,3.36,0.85c0.45-1.24,0.94-2.44,0.84-4.24
	C539.88,154.72,539.34,153.71,537.53,153.99z"/>
<path class="st1" d="M536.69,146.36c2.7,2.13,4.03,0.79,3.36-3.39c-1.01-0.54-1.55-1.55-3.36-1.27
	C535.6,143,536.82,144.7,536.69,146.36z"/>
<path class="st1" d="M536.27,136.18c0.8-2.52-0.06-6.23-3.78-5.51c-0.34,0.79-0.7,1.56-0.84,2.55
	C533.3,134.09,533.55,136.38,536.27,136.18z"/>
<path class="st1" d="M528.3,129.82c-1.89-2.05-3.06-4.82-7.13-4.66C521.56,128.68,525.09,131.71,528.3,129.82z"/>
<path class="st1" d="M515.71,128.12c0.29-3.55-3.82-4.89-6.71-3.82C508.09,127.01,512.54,129.5,515.71,128.12z"/>
<path class="st1" d="M498.51,126.85c0.01-1-0.72-1.25-0.42-2.54c-1.52-0.88-4.25-2.09-5.87-0.43
	C492.26,126.67,495.65,127.55,498.51,126.85z"/>
<path class="st1" d="M413.34,126c-0.35-0.37-0.44-1-0.44-1.73c-0.86,0.89-1.79,1.71-2.79,2.45
	C411.22,126.8,412.43,126.55,413.34,126z"/>
<path class="st1" d="M329.42,120.92c-2.5,2.29-5.78-0.86-5.88,3.39c2.41,1.57,6.1,0.93,8.39,1.27
	C332.32,122.78,329.43,123.3,329.42,120.92z"/>
<path class="st1" d="M362.57,126c0.33-1.47-0.63-1.63-0.42-2.97c-1.79-0.44-4.35-1.93-6.29-0.85c0.04,0.6,0.07,1.2-0.42,1.27
	C356.47,125.66,359.36,125.99,362.57,126z"/>
<path class="st1" d="M300.05,124.73c0.25-1.52-0.49-2.05-0.84-2.97c-1.61-0.27-4.21-0.65-5.45,1.27
	C294.25,125.33,298.1,126.4,300.05,124.73z"/>
<path class="st1" d="M346.62,125.16c-0.04-0.6-0.07-1.2,0.42-1.27c-0.66-2.53-5.33-2.74-6.29-0.42
	C342.36,125.01,343.72,125.8,346.62,125.16z"/>
<path class="st1" d="M313.47,124.31c0.82-0.79,0.13-1.55,0-2.55c-0.9-0.86-5.14-1.64-5.87,0
	C306.34,124.01,311.97,124.89,313.47,124.31z"/>
<path class="st1" d="M140.6,99.16c-28.98-0.45-59.31-0.83-75.62,0.88c17.82,0.95,46.15,1.41,77.43,1.7
	c-0.42-0.62-0.84-1.23-1.26-1.83C140.98,99.66,140.78,99.41,140.6,99.16z"/>
<path class="st1" d="M279.43,103.1c5.71,0.14,11.45,0.28,17.26,0.44c7.37,0.2,15.09,0.53,22.66,0.43c2.07-0.03,4.17-0.06,6.27-0.09
	c-2.69-1.03-5.32-1.98-7.89-2.86c-1.04,0.16-2.17,0.17-3.42-0.01c0.29-0.28,0.59-0.56,0.89-0.83c-0.68-0.22-1.36-0.45-2.04-0.67
	c-0.74-0.24-1.45-0.45-2.17-0.67l-11.24-0.37l-10.94,0v0h-31.18c-0.47,0.14-0.94,0.26-1.42,0.4c-3.69,1.08-7.44,2.29-11.32,3.66
	c12.73,0.14,24.44,0.31,34.5,0.54L279.43,103.1z"/>
<path class="st1" d="M568.55,152.69c-0.61-51.86-38.57-53.06-38.57-53.06h-0.23c0.07,0.03,0.15,0.05,0.23,0.08
	c-2.5,0.04-4.94,0.01-7.31-0.08l-41.49,0.06c0.41,0.8,2.82,0.25,1.39,1.29c-1.83-1.26-6.56,0.41-8.39-0.85
	c0.36-0.13,0.69-0.29,1.04-0.43l-44.54,0.01c-0.88,1.12-1.75,2.23-2.58,3.35c-0.09,0.12-0.18,0.25-0.27,0.38
	c21.24-0.2,56.5-0.52,61.03,0.92c13.48-1.86,28.5,0.8,44.48,0c1.82-0.95,1.87,2.01,2.52,0.85c2.04,0.37,2.79-0.58,4.2-0.85
	c10.07,2.68,15.67,11.56,20.14,21.2c2.75,5.94,2.91,8.6,2.52,17.38c-0.56,12.69,1.19,27.02-0.42,39.43c-0.36,2.8-0.3,4.05,0,7.21
	c1.06,11.15-0.7,241.09-0.84,253.13c-0.23,20.54-1.83,108.46-1.26,129.34c0.04,1.46,0.87,2.98,0.84,4.24
	c-0.04,2.02-1.17,3.98-1.26,5.94c-0.69,14.83,2.19,29.87-5.04,40.7c-5.19,3.02-7.56,9.76-12.59,13.14c-1.6,1.08-4.32,1.93-6.71,3.39
	c-5.94,3.62-11.64,7.08-20.56,7.63c7.47,4.65,17.17-4.03,23.5-4.66c5.27-3.72,11.6-8.63,14.27-13.57c3.58-2.46,5.12-4.05,6.29-8.9
	c0.94-0.71,1.02,1.16,2.11,1.68c0.6-1.78,1.04-3.46,1.35-4.98c0.35-9.14,1.42-19.29-0.1-26.38c0.4-2.23,0.67-4.59,0.87-7.01v-18.9
	l2.93-350.89c-0.24-0.42-0.51-0.78-0.87-1.01c0.88-4.16-0.01-9.73,0.42-14.42c0.29,0.77,0.63,1.58,0.99,2.41l0.37-8.92
	c-0.03-0.09-0.07-0.19-0.1-0.27c0.05-0.05,0.08-0.11,0.12-0.16l0.21-4.94c-0.07-0.72-0.08-1.47,0.09-2.25l0.33-7.91
	c-0.11-0.14-0.23-0.29-0.34-0.43c0.23-0.53,0.35-1.07,0.42-1.61l0.09-2.13c-0.02-0.94-0.06-1.85,0.11-2.7l0.35-8.37
	C567.85,158.35,567.86,155.67,568.55,152.69z"/>
<path class="st231" d="M358.02,69.47c-1.31-0.51-3.66-0.43-5.12,3.29c-1.46,3.72,0.22,5.37,1.53,5.89c1.31,0.51,3.66,0.43,5.12-3.29
	C361,71.64,359.33,69.98,358.02,69.47z"/>
<path class="st231" d="M387.84,26.88c-0.77-0.91-1.78-1.77-2.69-2.33c-1.07-0.58-2.26-1.13-3.55-1.51
	c-2.53-0.85-5.23-1.45-7.91-1.64c-2.66-0.28-5.35-0.16-7.64,0.53c-1.18,0.29-2.15,0.84-3.05,1.46c-0.36,0.39-0.77,0.73-1.09,1.16
	c-0.27,0.51-0.61,0.78-0.91,1.5c-1.99,4.3-3.82,8.7-5.49,13.27c4.29,1.42,8.53,2.98,12.71,4.73c3.45,1.47,6.85,3.07,10.2,4.79
	c1.67,0.87,3.33,1.76,4.97,2.71l4.73,2.83c6.08,3.5,13.07,6.01,19.91,8.01c3.46,0.95,6.98,1.62,10.48,1.85
	c3.47,0.2,7.06-0.03,10.04-1.55c0.74-0.37,1.49-0.76,2.19-1.32c0.73-0.5,1.44-1.02,2.04-1.63c1.3-1.14,2.32-2.55,2.73-4.13
	c0.43-1.58,0.01-3.33-0.95-4.82c-0.96-1.49-2.31-2.8-3.84-3.83c1.67,0.8,3.23,1.89,4.5,3.34c1.24,1.45,2.06,3.49,1.78,5.57
	c-0.25,2.07-1.37,3.9-2.68,5.33c-0.63,0.78-1.34,1.43-2.08,2.05c-0.69,0.67-1.51,1.24-2.38,1.79c-3.49,2.16-7.57,2.69-11.41,2.78
	c-3.89,0.06-7.69-0.51-11.41-1.28c-3.72-0.79-7.36-1.84-10.91-3.11c-3.52-1.25-7.13-2.68-10.52-4.52c-1.74-0.92-3.29-1.91-4.83-2.76
	c-1.57-0.88-3.17-1.72-4.79-2.54c-3.24-1.62-6.55-3.12-9.9-4.51c-6.69-2.85-13.55-5.33-20.55-7.42c-6.97-2.16-14.06-3.98-21.21-5.54
	c-12.77-2.79-25.75-4.72-38.87-6.13c-13.15,1.12-26.17,2.77-39,5.27c-7.19,1.4-14.31,3.06-21.33,5.07
	c-7.04,1.93-13.96,4.26-20.7,6.97c-3.39,1.31-6.73,2.75-10,4.29c-1.63,0.78-3.25,1.58-4.84,2.43c-1.56,0.82-3.13,1.77-4.89,2.65
	c-3.43,1.77-7.06,3.11-10.61,4.29c-3.58,1.19-7.24,2.17-10.98,2.87c-3.73,0.69-7.55,1.18-11.44,1.03c-3.84-0.18-7.9-0.8-11.35-3.03
	c-0.86-0.56-1.67-1.15-2.34-1.84c-0.73-0.64-1.43-1.31-2.04-2.1c-1.28-1.45-2.36-3.31-2.57-5.38c-0.24-2.08,0.63-4.11,1.9-5.53
	c1.31-1.42,2.89-2.48,4.58-3.24c-1.55,1-2.93,2.27-3.93,3.75c-0.99,1.47-1.45,3.21-1.06,4.8c0.37,1.58,1.36,3.02,2.63,4.19
	c0.59,0.63,1.28,1.16,2,1.68c0.69,0.57,1.43,0.99,2.16,1.37c2.95,1.59,6.53,1.9,10.01,1.77c3.51-0.16,7.04-0.75,10.52-1.62
	c6.89-1.85,13.93-4.21,20.09-7.57l4.79-2.73c1.66-0.91,3.34-1.76,5.03-2.6c3.39-1.65,6.82-3.17,10.31-4.57
	c4.22-1.65,8.49-3.12,12.81-4.45c-1.57-4.6-3.31-9.04-5.2-13.38c-0.29-0.73-0.62-1-0.88-1.52c-0.31-0.44-0.72-0.79-1.07-1.18
	c-0.88-0.64-1.84-1.21-3.01-1.53c-2.28-0.74-4.97-0.91-7.63-0.69c-2.68,0.13-5.39,0.67-7.94,1.47c-1.3,0.36-2.49,0.88-3.58,1.44
	c-0.92,0.54-1.95,1.37-2.74,2.27c-1.57,1.79-2.63,4.36-2.59,6.84c0.12,2.48,0.24,4.97,0.23,7.48c0.44,0.06,0.88,0.13,1.32,0.19
	c5.61,0.65,11.49,1.16,16.86-0.31c-0.72-2.46-1.22-4.93-1.6-7.42c-0.24,0.18-0.48,0.35-0.75,0.5c-1.61,0.92-3.34,0.95-4.89,0.86
	c-3.11-0.4-5.85-1.6-8.31-3.23c1.48,0.16,2.88,0.47,4.29,0.63c1.4,0.2,2.78,0.3,4.1,0.27c1.3-0.05,2.55-0.31,3.45-0.84
	c0.88-0.49,1.45-1.52,1.56-2.36l0.03-0.2c0.1-0.72,0.76-1.23,1.49-1.13c0.64,0.09,1.11,0.61,1.14,1.23
	c0.22,3.84,0.28,7.7-0.16,11.59c0.39-0.11,0.78-0.24,1.16-0.37c2.83-1,5.29-3.15,5.89-6.18c0.22-0.73,0.17-1.51,0.25-2.28
	c-0.09-0.77-0.06-1.56-0.27-2.32c-0.27-1.54-0.8-3.05-1.5-4.47c0.82,1.36,1.49,2.82,1.9,4.38c0.27,0.76,0.32,1.58,0.48,2.37
	c-0.01,0.81,0.12,1.64-0.05,2.45c-0.15,0.82-0.28,1.65-0.71,2.39c-0.19,0.38-0.35,0.77-0.56,1.13l-0.81,0.97
	c-0.5,0.71-1.19,1.18-1.88,1.65l-1.03,0.73l-1.14,0.49c-6.15,2.61-12.82,2.42-19.19,2.11c-12.72-1.15-25.26-2.76-37.64-1.83
	c-3.02,0.28-5.93,0.82-8.63,1.89c-2.67,1.05-5.15,2.58-6.83,4.58c-1.65,2.01-2.35,4.42-1.44,6.3c0.08,0.25,0.2,0.49,0.37,0.7
	c0.19,0.25,0.22,0.4,0.51,0.75l1.47,1.86l2.96,3.7c3.96,4.92,7.99,9.74,12.08,14.63c4.02,4.9,8.2,9.73,11.94,15.09
	c3.72,5.32,6.87,10.88,10.32,16.04c0.87,1.3,1.72,2.59,2.56,3.48c0.85,0.92,1.6,1.37,2.61,1.63c2.18,0.4,5.22-0.24,8.09-1.03
	c11.8-3.48,23.21-9.24,35.08-13.9c11.82-4.78,23.95-8.9,36.38-11.86c10.87-2.41,22.07-4.21,33.18-3.57
	c11.12-0.4,22.29,1.64,33.1,4.3c12.36,3.23,24.4,7.63,36.11,12.66c11.77,4.93,23.05,10.94,34.76,14.67
	c2.86,0.86,5.88,1.56,8.07,1.21c1.02-0.23,1.78-0.67,2.65-1.57c0.85-0.87,1.74-2.15,2.63-3.43c3.56-5.09,6.84-10.57,10.67-15.81
	c3.86-5.27,8.15-10.01,12.27-14.82c4.2-4.79,8.33-9.53,12.4-14.36l3.04-3.63l1.51-1.82c0.3-0.34,0.34-0.49,0.53-0.74
	c0.18-0.21,0.31-0.45,0.39-0.7c0.96-1.86,0.31-4.29-1.3-6.33c-1.64-2.04-4.08-3.62-6.73-4.73c-2.67-1.13-5.57-1.73-8.58-2.08
	c-12.35-1.21-24.93,0.13-37.67,1c-6.37,0.17-13.04,0.21-19.14-2.54l-1.12-0.52l-1.02-0.75c-0.68-0.49-1.36-0.98-1.85-1.69
	l-0.79-0.98c-0.21-0.36-0.36-0.77-0.54-1.15c-0.41-0.75-0.52-1.58-0.66-2.4c-0.15-0.82-0.01-1.65,0-2.46
	c0.18-0.79,0.24-1.61,0.53-2.36c0.45-1.54,1.15-3,2-4.33c-0.73,1.4-1.29,2.9-1.6,4.44c-0.22,0.76-0.21,1.55-0.32,2.31
	c0.06,0.77-0.01,1.55,0.2,2.28c0.54,3.04,2.95,5.24,5.76,6.3c0.38,0.14,0.77,0.28,1.15,0.4c-0.36-3.91-0.21-7.76,0.09-11.59
	c0.06-0.73,0.69-1.27,1.42-1.21c0.64,0.05,1.14,0.55,1.21,1.17l0.02,0.2c0.09,0.84,0.64,1.88,1.51,2.39
	c0.89,0.55,2.13,0.84,3.43,0.92c1.32,0.06,2.7-0.01,4.11-0.18c1.41-0.12,2.82-0.41,4.3-0.53c-2.49,1.58-5.26,2.71-8.38,3.04
	c-1.55,0.06-3.28-0.02-4.87-0.97c-0.26-0.15-0.5-0.32-0.73-0.51c-0.44,2.48-0.99,4.94-1.77,7.38c5.34,1.59,11.22,1.21,16.85,0.69
	c0.44-0.05,0.88-0.11,1.33-0.16c0.05-2.51,0.22-4.99,0.4-7.47C390.37,31.3,389.37,28.7,387.84,26.88z M179.58,74.4
	c4.85-2.49,9.88-0.67,12.39,4.2c1.14,2.21,1.46,4.48,1.02,6.54l2.9,0.97l-1.09,3.33l-3.28-1.11c-0.61,1.02-1.87,2.03-3.34,2.79
	c-4.85,2.49-9.88,0.67-12.39-4.2C173.28,82.05,174.73,76.89,179.58,74.4z M217.03,79.03c-5.21,1.71-8.53,0.29-10.08-4.44
	l-3.44-10.46l5.25-1.73l3.05,9.29c0.57,1.74,1.29,3.92,3.84,3.08c2.48-0.82,1.77-2.99,1.2-4.73l-3.05-9.29l5.25-1.73l3.44,10.46
	C224.05,74.21,222.24,77.32,217.03,79.03z M238.96,72.6l-2.97-17.69l14.64-2.46l0.76,4.53l-9.19,1.54l0.37,2.2l8.35-1.4l0.71,4.21
	l-8.35,1.4l0.37,2.21l9.47-1.59l0.76,4.53L238.96,72.6z M275.06,69.03c-2.04,0.05-7.86-0.55-8.04-6.28l5.53-0.13
	c0.01,0.45,0.09,0.85,0.23,1.18c0.43,1.07,1.64,1.27,2.67,1.25c0.91-0.02,2.28-0.35,2.25-1.69c-0.02-0.93-0.81-1.16-3.92-1.97
	c-2.86-0.74-6.12-1.44-6.2-5.06c-0.1-4.15,3.41-6.01,7.1-6.1c3.89-0.09,7.37,1.32,7.62,5.68l-5.23,0.12
	c0.08-0.68-0.23-1.13-0.69-1.42c-0.46-0.32-1.09-0.43-1.64-0.41c-0.75,0.02-1.98,0.25-1.96,1.25c0.13,1.28,2.7,1.5,5.26,2.14
	c2.55,0.65,5.09,1.77,5.17,5.06C283.32,67.33,279.06,68.94,275.06,69.03z M313.26,57.7l-4.99-0.61l-1.61,13.25l-5.49-0.67
	l1.61-13.25l-4.99-0.61l0.55-4.57l15.47,1.88L313.26,57.7z M330.74,75.14l-5.37-1.33l4.33-17.41l5.37,1.33L330.74,75.14z
	 M352.8,82.81c-5.08-1.99-7.04-6.96-5.05-12.07s6.82-7.42,11.9-5.44c5.08,1.99,7.04,6.96,5.05,12.07
	C362.7,82.47,357.88,84.8,352.8,82.81z M383.57,97.43l0.16-11.24l-0.04-0.03l-4.92,8.48l-4.52-2.62l9-15.52l4.89,2.84l-0.3,10.92
	l0.04,0.03l4.81-8.3l4.52,2.62l-9,15.52L383.57,97.43z"/>
<path class="st231" d="M186.12,87.14c0.2-0.1,0.39-0.23,0.6-0.42l-2.05-0.7l1.11-3.28l2.04,0.67c-0.09-0.66-0.33-1.41-0.78-2.28
	c-1.83-3.55-4.17-3.39-5.43-2.75c-1.25,0.64-2.75,2.46-0.92,6.01C182.53,87.94,184.87,87.78,186.12,87.14z"/>
<path class="st232" d="M199.47,27.13c-0.04-0.62-0.51-1.15-1.14-1.23c-0.72-0.1-1.39,0.41-1.49,1.13l-0.03,0.2
	c-0.11,0.84-0.68,1.87-1.56,2.36c-0.9,0.54-2.15,0.8-3.45,0.84c-1.32,0.03-2.7-0.07-4.1-0.27c-1.41-0.16-2.81-0.47-4.29-0.63
	c2.45,1.63,5.2,2.83,8.31,3.23c1.55,0.09,3.28,0.05,4.89-0.86c0.26-0.14,0.51-0.31,0.75-0.5c0.38,2.49,0.89,4.96,1.6,7.42
	c0.12-0.03,0.24-0.06,0.35-0.09C199.75,34.83,199.69,30.97,199.47,27.13z"/>
<path class="st232" d="M284.89,80.25c-11.11-0.65-22.32,1.15-33.18,3.57c-12.43,2.96-24.56,7.09-36.38,11.86
	c-11.87,4.67-23.28,10.43-35.08,13.9c-2.87,0.79-5.91,1.43-8.09,1.03c-1.02-0.26-1.76-0.71-2.61-1.63
	c-0.83-0.89-1.69-2.19-2.56-3.48c-3.45-5.17-6.6-10.72-10.32-16.04c-3.74-5.35-7.92-10.19-11.94-15.09
	c-4.09-4.88-8.12-9.71-12.08-14.63l-2.96-3.7l-1.47-1.86c-0.29-0.34-0.32-0.5-0.51-0.75c-0.18-0.22-0.3-0.46-0.37-0.7
	c-0.92-1.89-0.21-4.29,1.44-6.3c1.68-2.01,4.16-3.53,6.83-4.58c2.7-1.07,5.6-1.61,8.63-1.89c12.37-0.94,24.92,0.67,37.64,1.83
	c6.37,0.31,13.04,0.5,19.19-2.11l1.14-0.49l1.03-0.73c0.7-0.47,1.38-0.95,1.88-1.65l0.81-0.97c0.22-0.36,0.37-0.76,0.56-1.13
	c0.43-0.74,0.56-1.57,0.71-2.39c0.17-0.81,0.05-1.65,0.05-2.45c-0.16-0.8-0.21-1.61-0.48-2.37c-0.42-1.55-1.08-3.02-1.9-4.38
	c0.7,1.42,1.23,2.93,1.5,4.47c0.2,0.76,0.18,1.55,0.27,2.32c-0.08,0.76-0.02,1.55-0.25,2.28c-0.61,3.03-3.07,5.17-5.89,6.18
	c-0.38,0.14-0.77,0.26-1.16,0.37c-0.12,0.03-0.24,0.06-0.35,0.09c-5.37,1.47-11.24,0.97-16.86,0.31c-0.44-0.06-0.88-0.13-1.32-0.19
	c0,0.48,0,0.97-0.01,1.45c-0.2-0.51-0.39-1.02-0.58-1.54c-11.82-1.7-23.9-3.72-36.26-3.15c-6.54,0.36-13.75,2.05-18.83,7.63
	c-1.22,1.42-2.23,3.14-2.77,5.1c-0.58,1.96-0.42,4.26,0.38,6.2c0.31,1,1.04,1.91,1.51,2.63l1.44,1.9l2.91,3.79
	c7.75,10.09,16.46,19.58,23.59,29.64c3.58,5.06,6.74,10.53,10.37,15.89c0.91,1.32,1.79,2.7,3.12,4.14c1.27,1.43,3.3,2.75,5.41,3.17
	c4.13,0.65,7.44-0.33,10.63-1.22c6.31-1.96,12.15-4.52,17.99-7.09l17.31-7.86c11.55-5.06,23.31-9.68,35.41-13.21
	c10.55-3.14,21.43-5.43,32.49-5.73c-1.59-0.08-3.18-0.12-4.78-0.11C281.7,80.42,283.29,80.31,284.89,80.25z"/>
<path class="st232" d="M180.78,38.94c0.01-2.51-0.11-4.99-0.23-7.48c-0.04-2.48,1.02-5.05,2.59-6.84c0.79-0.9,1.82-1.73,2.74-2.27
	c1.09-0.56,2.28-1.08,3.58-1.44c2.55-0.8,5.27-1.34,7.94-1.47c2.66-0.22,5.35-0.05,7.63,0.69c1.17,0.32,2.13,0.89,3.01,1.53
	c0.35,0.39,0.75,0.75,1.07,1.18c0.26,0.52,0.59,0.79,0.88,1.52c1.89,4.34,3.63,8.78,5.2,13.38c0.37-0.11,0.73-0.22,1.1-0.34
	c-0.04-4.9-0.94-9.78-2.27-14.5c-0.15-0.68-0.64-1.66-0.98-2.48c-0.44-0.81-1.08-1.54-1.68-2.26c-1.35-1.28-2.91-2.31-4.54-2.93
	c-3.27-1.25-6.6-1.44-9.79-1.29c-3.19,0.28-6.3,0.91-9.31,2.06c-1.5,0.57-2.97,1.33-4.42,2.27c-1.55,1.07-2.66,2.33-3.62,3.79
	c-1.91,2.94-2.59,6.45-1.79,9.82c0.72,2.32,1.44,4.64,2.28,6.94c0.19,0.51,0.37,1.03,0.58,1.54
	C180.78,39.91,180.78,39.43,180.78,38.94z"/>
<path class="st232" d="M202.39,42.22c-3.48,1.4-6.92,2.92-10.31,4.57c-1.69,0.83-3.37,1.69-5.03,2.6l-4.79,2.73
	c-6.15,3.37-13.2,5.72-20.09,7.57c-3.48,0.88-7.01,1.46-10.52,1.62c-3.48,0.12-7.05-0.18-10.01-1.77c-0.73-0.38-1.47-0.79-2.16-1.37
	c-0.72-0.51-1.42-1.05-2-1.68c-1.28-1.17-2.26-2.6-2.63-4.19c-0.39-1.59,0.06-3.33,1.06-4.8c1-1.47,2.38-2.75,3.93-3.75
	c-1.68,0.76-3.27,1.82-4.58,3.24c-1.27,1.42-2.14,3.45-1.9,5.53c0.2,2.07,1.29,3.93,2.57,5.38c0.61,0.79,1.31,1.46,2.04,2.1
	c0.68,0.69,1.49,1.27,2.34,1.84c3.44,2.23,7.51,2.85,11.35,3.03c3.88,0.15,7.7-0.34,11.44-1.03c3.74-0.7,7.4-1.68,10.98-2.87
	c3.55-1.18,7.19-2.52,10.61-4.29c1.76-0.88,3.33-1.83,4.89-2.65c1.59-0.85,3.21-1.65,4.84-2.43c3.28-1.54,6.61-2.98,10-4.29
	c6.75-2.7,13.67-5.03,20.7-6.97c7.02-2.01,14.14-3.67,21.33-5.07c12.83-2.51,25.85-4.15,39-5.27c-1.59-0.17-3.18-0.34-4.77-0.49
	c1.59-0.09,3.19-0.15,4.78-0.2c-13.22-0.72-26.53-0.09-39.71,1.75c-9.94,1.35-19.79,3.48-29.44,6.38c-0.37,0.11-0.73,0.22-1.1,0.34
	C210.88,39.1,206.6,40.57,202.39,42.22z"/>
<path class="st232" d="M374.21,33.85c1.59,0.95,3.32,1.03,4.87,0.97c3.11-0.33,5.89-1.47,8.38-3.04c-1.48,0.13-2.89,0.41-4.3,0.53
	c-1.4,0.17-2.79,0.24-4.11,0.18c-1.3-0.08-2.54-0.36-3.43-0.92c-0.87-0.51-1.41-1.55-1.51-2.39l-0.02-0.2
	c-0.07-0.62-0.57-1.12-1.21-1.17c-0.73-0.06-1.36,0.49-1.42,1.21c-0.3,3.84-0.45,7.69-0.09,11.59c0.12,0.04,0.23,0.07,0.35,0.1
	c0.77-2.44,1.33-4.91,1.77-7.38C373.71,33.53,373.95,33.7,374.21,33.85z"/>
<path class="st232" d="M387.31,116.84c3.16,0.96,6.45,2.01,10.6,1.46c2.12-0.37,4.17-1.65,5.48-3.05c1.36-1.41,2.27-2.76,3.21-4.07
	c3.74-5.28,7.03-10.68,10.71-15.66c7.35-9.9,16.26-19.19,24.24-29.11l2.99-3.72l1.49-1.87c0.49-0.71,1.24-1.61,1.57-2.6
	c0.85-1.93,1.06-4.22,0.52-6.19c-0.5-1.98-1.47-3.72-2.66-5.16c-4.96-5.69-12.13-7.54-18.66-8.04c-12.34-0.84-24.46,0.9-36.32,2.35
	c-0.2,0.51-0.4,1.02-0.61,1.52c0-0.49,0.01-0.97,0.02-1.45c-0.44,0.05-0.88,0.11-1.33,0.16c-5.63,0.53-11.51,0.9-16.85-0.69
	c-0.12-0.03-0.23-0.07-0.35-0.1c-0.39-0.12-0.77-0.25-1.15-0.4c-2.8-1.06-5.22-3.26-5.76-6.3c-0.21-0.73-0.14-1.51-0.2-2.28
	c0.11-0.76,0.1-1.55,0.32-2.31c0.31-1.54,0.87-3.03,1.6-4.44c-0.85,1.34-1.55,2.79-2,4.33c-0.29,0.76-0.36,1.57-0.53,2.36
	c-0.01,0.81-0.15,1.64,0,2.46c0.13,0.82,0.24,1.66,0.66,2.4c0.18,0.38,0.33,0.78,0.54,1.15l0.79,0.98c0.48,0.72,1.16,1.21,1.85,1.69
	l1.02,0.75l1.12,0.52c6.09,2.75,12.76,2.7,19.14,2.54c12.74-0.87,25.32-2.21,37.67-1c3.02,0.34,5.91,0.95,8.58,2.08
	c2.64,1.11,5.09,2.69,6.73,4.73c1.6,2.05,2.26,4.47,1.3,6.33c-0.08,0.25-0.21,0.48-0.39,0.7c-0.19,0.25-0.23,0.4-0.53,0.74
	l-1.51,1.82l-3.04,3.63c-4.06,4.83-8.2,9.57-12.4,14.36c-4.13,4.81-8.42,9.55-12.27,14.82c-3.84,5.24-7.11,10.72-10.67,15.81
	c-0.89,1.28-1.78,2.56-2.63,3.43c-0.87,0.9-1.63,1.34-2.65,1.57c-2.19,0.35-5.21-0.35-8.07-1.21c-11.72-3.74-23-9.74-34.76-14.67
	c-11.71-5.04-23.75-9.43-36.11-12.66c-10.81-2.65-21.97-4.7-33.1-4.3c-1.59,0.06-3.19,0.17-4.78,0.33c1.6-0.01,3.19,0.03,4.78,0.11
	c11.06,0.54,21.89,3.07,32.36,6.44c12.02,3.8,23.67,8.67,35.11,13.99l17.13,8.24C375.26,112.06,381.04,114.75,387.31,116.84z"/>
<path class="st232" d="M360.99,26.05c0.3-0.72,0.64-0.99,0.91-1.5c0.32-0.43,0.74-0.77,1.09-1.16c0.89-0.62,1.87-1.17,3.05-1.46
	c2.3-0.69,4.99-0.8,7.64-0.53c2.67,0.19,5.38,0.79,7.91,1.64c1.29,0.39,2.48,0.93,3.55,1.51c0.91,0.56,1.92,1.41,2.69,2.33
	c1.53,1.82,2.53,4.42,2.44,6.9c-0.17,2.48-0.35,4.96-0.4,7.47c-0.01,0.48-0.02,0.97-0.02,1.45c0.21-0.51,0.41-1.01,0.61-1.52
	c0.89-2.28,1.66-4.58,2.43-6.88c0.87-3.35,0.27-6.88-1.58-9.86c-0.93-1.49-2.01-2.77-3.53-3.87c-1.43-0.97-2.88-1.76-4.37-2.37
	c-2.98-1.21-6.08-1.91-9.26-2.26c-3.19-0.22-6.51-0.1-9.81,1.07c-1.64,0.58-3.22,1.58-4.6,2.82c-0.61,0.71-1.26,1.42-1.73,2.22
	c-0.36,0.81-0.88,1.77-1.04,2.45c-1.44,4.69-2.44,9.55-2.59,14.45c0.36,0.12,0.73,0.24,1.09,0.36
	C357.16,34.75,359,30.35,360.99,26.05z"/>
<path class="st232" d="M285.44,30c13.12,1.41,26.1,3.34,38.87,6.13c7.16,1.56,14.24,3.38,21.21,5.54
	c6.99,2.09,13.86,4.57,20.55,7.42c3.36,1.39,6.66,2.9,9.9,4.51c1.62,0.82,3.22,1.65,4.79,2.54c1.55,0.85,3.09,1.84,4.83,2.76
	c3.39,1.84,6.99,3.27,10.52,4.52c3.55,1.27,7.19,2.32,10.91,3.11c3.72,0.77,7.52,1.35,11.41,1.28c3.84-0.1,7.92-0.62,11.41-2.78
	c0.87-0.54,1.69-1.11,2.38-1.79c0.74-0.62,1.46-1.28,2.08-2.05c1.31-1.42,2.44-3.26,2.68-5.33c0.28-2.08-0.54-4.12-1.78-5.57
	c-1.27-1.45-2.84-2.54-4.5-3.34c1.53,1.03,2.88,2.34,3.84,3.83c0.96,1.49,1.38,3.24,0.95,4.82c-0.41,1.57-1.42,2.98-2.73,4.13
	c-0.6,0.61-1.31,1.14-2.04,1.63c-0.7,0.56-1.45,0.95-2.19,1.32c-2.99,1.52-6.57,1.75-10.04,1.55c-3.5-0.24-7.02-0.9-10.48-1.85
	c-6.85-2.01-13.84-4.51-19.91-8.01l-4.73-2.83c-1.64-0.95-3.3-1.84-4.97-2.71c-3.35-1.72-6.75-3.32-10.2-4.79
	c-4.18-1.75-8.42-3.31-12.71-4.73c-0.36-0.12-0.73-0.24-1.09-0.36c-9.58-3.11-19.38-5.45-29.29-7.03
	c-13.13-2.13-26.43-3.05-39.66-2.62c-1.59,0.05-3.19,0.11-4.78,0.2C282.26,29.67,283.85,29.83,285.44,30z"/>
<path class="st233" d="M188.17,91.12c1.47-0.76,2.73-1.77,3.34-2.79l3.28,1.11l1.09-3.33l-2.9-0.97c0.44-2.06,0.12-4.33-1.02-6.54
	c-2.5-4.87-7.54-6.69-12.39-4.2c-4.85,2.49-6.3,7.65-3.79,12.52C178.29,91.79,183.32,93.61,188.17,91.12z M181.62,78.38
	c1.25-0.64,3.6-0.8,5.43,2.75c0.45,0.87,0.69,1.62,0.78,2.28l-2.04-0.67l-1.11,3.28l2.05,0.7c-0.21,0.19-0.4,0.32-0.6,0.42
	c-1.25,0.64-3.6,0.8-5.43-2.75C178.87,80.84,180.37,79.02,181.62,78.38z"/>
<path class="st233" d="M219.05,59.02l-5.25,1.73l3.05,9.29c0.57,1.74,1.29,3.92-1.2,4.73c-2.55,0.84-3.27-1.33-3.84-3.08l-3.05-9.29
	l-5.25,1.73l3.44,10.46c1.55,4.73,4.88,6.15,10.08,4.44c5.2-1.71,7.01-4.82,5.46-9.55L219.05,59.02z"/>
<polygon class="st233" points="243.65,67.15 243.28,64.94 251.63,63.54 250.92,59.32 242.57,60.73 242.2,58.52 251.39,56.98 
	250.63,52.44 235.99,54.91 238.96,72.6 253.88,70.09 253.11,65.56 "/>
<path class="st233" d="M278.04,57.6c-2.55-0.65-5.12-0.86-5.26-2.14c-0.02-1.01,1.2-1.24,1.96-1.25c0.55-0.01,1.18,0.1,1.64,0.41
	c0.46,0.29,0.77,0.74,0.69,1.42l5.23-0.12c-0.25-4.37-3.73-5.77-7.62-5.68c-3.7,0.08-7.2,1.95-7.1,6.1c0.08,3.62,3.34,4.32,6.2,5.06
	c3.11,0.81,3.9,1.04,3.92,1.97c0.03,1.33-1.34,1.67-2.25,1.69c-1.03,0.02-2.24-0.17-2.67-1.25c-0.13-0.32-0.22-0.72-0.23-1.18
	l-5.53,0.13c0.18,5.73,6,6.32,8.04,6.28c4-0.09,8.26-1.7,8.15-6.37C283.14,59.37,280.6,58.24,278.04,57.6z"/>
<polygon class="st233" points="297.79,55.82 302.78,56.43 301.17,69.67 306.65,70.34 308.27,57.1 313.26,57.7 313.81,53.14 
	298.34,51.26 "/>
<rect x="321.25" y="63" transform="matrix(0.2412 -0.9705 0.9705 0.2412 186.7368 370.3687)" class="st233" width="17.94" height="5.53"/>
<path class="st233" d="M364.69,77.37c1.99-5.1,0.03-10.08-5.05-12.07c-5.08-1.99-9.9,0.34-11.9,5.44s-0.03,10.08,5.05,12.07
	C357.88,84.8,362.7,82.47,364.69,77.37z M359.55,75.36c-1.46,3.72-3.81,3.8-5.12,3.29c-1.31-0.51-2.98-2.17-1.53-5.89
	c1.46-3.72,3.81-3.8,5.12-3.29S361,71.64,359.55,75.36z"/>
<polygon class="st233" points="397.22,84.61 392.7,81.98 387.88,90.29 387.84,90.26 388.14,79.34 383.24,76.5 374.24,92.02 
	378.76,94.64 383.68,86.16 383.72,86.19 383.57,97.43 388.22,100.12 "/>
</svg>
