<?xml version="1.0" encoding="utf-8"?>
<!-- Generator: Adobe Illustrator 25.3.1, SVG Export Plug-In . SVG Version: 6.00 Build 0)  -->
<svg version="1.1" id="Capa_1" xmlns="http://www.w3.org/2000/svg" xmlns:xlink="http://www.w3.org/1999/xlink" x="0px" y="0px"
	 viewBox="0 0 357.79 526.89" style="enable-background:new 0 0 357.79 526.89;" xml:space="preserve">
<style type="text/css">
	.st0{fill:url(#SVGID_1_);}
	.st1{fill:#FFFFFF;}
	.st2{filter:url(#Adobe_OpacityMaskFilter);}
	.st3{filter:url(#Adobe_OpacityMaskFilter_1_);}
	.st4{mask:url(#SVGID_2_);fill:url(#SVGID_3_);}
	.st5{fill:url(#SVGID_4_);}
	.st6{filter:url(#Adobe_OpacityMaskFilter_2_);}
	.st7{filter:url(#Adobe_OpacityMaskFilter_3_);}
	.st8{mask:url(#SVGID_5_);fill:url(#SVGID_6_);}
	.st9{fill:url(#SVGID_7_);}
	.st10{filter:url(#Adobe_OpacityMaskFilter_4_);}
	.st11{filter:url(#Adobe_OpacityMaskFilter_5_);}
	.st12{mask:url(#SVGID_8_);fill:url(#SVGID_9_);}
	.st13{fill:url(#SVGID_10_);}
	.st14{fill:none;stroke:#1A1A1A;stroke-width:2;stroke-miterlimit:10;}
</style>
<g>
	<g>
		<radialGradient id="SVGID_1_" cx="-183512.1562" cy="-44.4321" r="176967.8125" gradientUnits="userSpaceOnUse">
			<stop  offset="0.0988" style="stop-color:#FFFFFF"/>
			<stop  offset="1" style="stop-color:#ABABAB"/>
		</radialGradient>
		<path class="st0" d="M343.94,0h-0.74c0,0,0.02,0,0.06,0H185.64h-13.47H13.86c0,0-13.85,0.39-13.85,19.68l0,18.52
			c0-0.04-0.01-0.09-0.01-0.13v454.32c0-0.02,0.01-0.03,0.01-0.05v14.87c0,19.28,13.85,19.67,13.85,19.67h0.74h157.57h0h13.47h0
			h158.3c0,0,0.01,0,0.04,0c0.03,0,0.07,0,0.13-0.01c0.79-0.06,4.19-0.47,7.4-3.1c3.23-2.64,6.28-7.53,6.28-16.57V375.79V151.1
			V19.68C357.79,0.4,343.94,0,343.94,0z"/>
	</g>
	<g>
		<g>
			<path class="st1" d="M343.94,0h-158.3h-13.47H13.86c0,0-13.85,0.39-13.85,19.68l0,131.42v111.77v21.57v91.34v131.43
				c0,19.28,13.85,19.67,13.85,19.67h158.3h13.47h158.3c0,0,13.85-0.4,13.85-19.67V375.79v-91.44v-21.34V151.1V19.68
				C357.79,0.4,343.94,0,343.94,0z"/>
			<g>
				<defs>
					<filter id="Adobe_OpacityMaskFilter" filterUnits="userSpaceOnUse" x="6.6" y="0" width="351.19" height="526.89">
						<feFlood  style="flood-color:white;flood-opacity:1" result="back"/>
						<feBlend  in="SourceGraphic" in2="back" mode="normal"/>
					</filter>
				</defs>
				<mask maskUnits="userSpaceOnUse" x="6.6" y="0" width="351.19" height="526.89" id="SVGID_2_">
					<g class="st2">
						<defs>
							<filter id="Adobe_OpacityMaskFilter_1_" filterUnits="userSpaceOnUse" x="6.6" y="0" width="351.19" height="526.89">
								<feFlood  style="flood-color:white;flood-opacity:1" result="back"/>
								<feBlend  in="SourceGraphic" in2="back" mode="normal"/>
							</filter>
						</defs>
						<mask maskUnits="userSpaceOnUse" x="6.6" y="0" width="351.19" height="526.89" id="SVGID_2_">
						</mask>
						
							<radialGradient id="SVGID_3_" cx="14.1241" cy="24.3717" r="612.4113" gradientTransform="matrix(0.941 0 0 0.9898 -28.5834 -24.3614)" gradientUnits="userSpaceOnUse">
							<stop  offset="0.0988" style="stop-color:#000000"/>
							<stop  offset="1" style="stop-color:#FFFFFF"/>
						</radialGradient>
						<path class="st4" d="M357.06,19.65v131.24v224.36l0,131.23c0,19.25-13.86,19.65-13.86,19.65H184.74h-13.49H12.79
							c0,0-2.99-0.09-6.19-2.1c3.57,2.75,7.26,2.87,7.26,2.87h158.31h13.47h158.3c0,0,13.85-0.4,13.85-19.68V375.79V151.1V19.68
							C357.79,0.4,343.94,0,343.94,0h-0.74C343.2,0,357.06,0.4,357.06,19.65z"/>
					</g>
				</mask>
				
					<radialGradient id="SVGID_4_" cx="14.1241" cy="24.3717" r="612.4113" gradientTransform="matrix(0.941 0 0 0.9898 -28.5834 -24.3614)" gradientUnits="userSpaceOnUse">
					<stop  offset="0.0988" style="stop-color:#FFFFFF"/>
					<stop  offset="1" style="stop-color:#ABABAB"/>
				</radialGradient>
				<path class="st5" d="M357.06,19.65v131.24v224.36l0,131.23c0,19.25-13.86,19.65-13.86,19.65H184.74h-13.49H12.79
					c0,0-2.99-0.09-6.19-2.1c3.57,2.75,7.26,2.87,7.26,2.87h158.31h13.47h158.3c0,0,13.85-0.4,13.85-19.68V375.79V151.1V19.68
					C357.79,0.4,343.94,0,343.94,0h-0.74C343.2,0,357.06,0.4,357.06,19.65z"/>
			</g>
			<defs>
				<filter id="Adobe_OpacityMaskFilter_2_" filterUnits="userSpaceOnUse" x="0.01" y="0" width="351.19" height="526.89">
					<feFlood  style="flood-color:white;flood-opacity:1" result="back"/>
					<feBlend  in="SourceGraphic" in2="back" mode="normal"/>
				</filter>
			</defs>
			<mask maskUnits="userSpaceOnUse" x="0.01" y="0" width="351.19" height="526.89" id="SVGID_5_">
				<g class="st6">
					<defs>
						<filter id="Adobe_OpacityMaskFilter_3_" filterUnits="userSpaceOnUse" x="0.01" y="0" width="351.19" height="526.89">
							<feFlood  style="flood-color:white;flood-opacity:1" result="back"/>
							<feBlend  in="SourceGraphic" in2="back" mode="normal"/>
						</filter>
					</defs>
					<mask maskUnits="userSpaceOnUse" x="0.01" y="0" width="351.19" height="526.89" id="SVGID_5_">
					</mask>
					
						<radialGradient id="SVGID_6_" cx="134.2419" cy="179.5266" r="521.6085" gradientTransform="matrix(0.941 0 0 0.9898 -28.5834 -24.3614)" gradientUnits="userSpaceOnUse">
						<stop  offset="0" style="stop-color:#000000"/>
						<stop  offset="7.380247e-03" style="stop-color:#090909"/>
						<stop  offset="0.0477" style="stop-color:#373737"/>
						<stop  offset="0.0931" style="stop-color:#626262"/>
						<stop  offset="0.1419" style="stop-color:#888888"/>
						<stop  offset="0.195" style="stop-color:#A8A8A8"/>
						<stop  offset="0.2537" style="stop-color:#C4C4C4"/>
						<stop  offset="0.32" style="stop-color:#DADADA"/>
						<stop  offset="0.3974" style="stop-color:#EBEBEB"/>
						<stop  offset="0.4931" style="stop-color:#F6F6F6"/>
						<stop  offset="0.6274" style="stop-color:#FDFDFD"/>
						<stop  offset="1" style="stop-color:#FFFFFF"/>
					</radialGradient>
					<path class="st8" d="M0.74,507.24V376.01V151.65V20.41C0.74,1.16,14.6,0.76,14.6,0.76h158.46h13.49h158.47
						c0,0,2.99,0.09,6.19,2.11C347.63,0.11,343.94,0,343.94,0h-158.3h-13.47H13.86c0,0-13.85,0.39-13.85,19.68l0,131.42v224.68
						v131.43c0,19.28,13.85,19.67,13.85,19.67h0.74C14.6,526.89,0.74,526.49,0.74,507.24z"/>
				</g>
			</mask>
			
				<radialGradient id="SVGID_7_" cx="134.2419" cy="179.5266" r="521.6085" gradientTransform="matrix(0.941 0 0 0.9898 -28.5834 -24.3614)" gradientUnits="userSpaceOnUse">
				<stop  offset="0" style="stop-color:#FFFFFF"/>
				<stop  offset="0.1413" style="stop-color:#FFFFFF"/>
				<stop  offset="1" style="stop-color:#FFFFFF"/>
			</radialGradient>
			<path class="st9" d="M0.74,507.24V376.01V151.65V20.41C0.74,1.16,14.6,0.76,14.6,0.76h158.46h13.49h158.47
				c0,0,2.99,0.09,6.19,2.11C347.63,0.11,343.94,0,343.94,0h-158.3h-13.47H13.86c0,0-13.85,0.39-13.85,19.68l0,131.42v224.68v131.43
				c0,19.28,13.85,19.67,13.85,19.67h0.74C14.6,526.89,0.74,526.49,0.74,507.24z"/>
			<g>
				<defs>
					<filter id="Adobe_OpacityMaskFilter_4_" filterUnits="userSpaceOnUse" x="0" y="38.07" width="0.73" height="454.32">
						<feFlood  style="flood-color:white;flood-opacity:1" result="back"/>
						<feBlend  in="SourceGraphic" in2="back" mode="normal"/>
					</filter>
				</defs>
				<mask maskUnits="userSpaceOnUse" x="0" y="38.07" width="0.73" height="454.32" id="SVGID_8_">
					<g class="st10">
						<defs>
							<filter id="Adobe_OpacityMaskFilter_5_" filterUnits="userSpaceOnUse" x="0" y="38.07" width="0.73" height="454.32">
								<feFlood  style="flood-color:white;flood-opacity:1" result="back"/>
								<feBlend  in="SourceGraphic" in2="back" mode="normal"/>
							</filter>
						</defs>
						<mask maskUnits="userSpaceOnUse" x="0" y="38.07" width="0.73" height="454.32" id="SVGID_8_">
						</mask>
						
							<radialGradient id="SVGID_9_" cx="4230.7725" cy="24.3694" r="612.767" gradientTransform="matrix(-0.941 0 0 0.9898 4354.7598 -24.3614)" gradientUnits="userSpaceOnUse">
							<stop  offset="0.0988" style="stop-color:#000000"/>
							<stop  offset="1" style="stop-color:#FFFFFF"/>
						</radialGradient>
						<path class="st12" d="M0,38.07v454.32c0.24-0.92,0.48-1.84,0.72-2.76l0-114.39V46.31C0.48,43.56,0.24,40.82,0,38.07z"/>
					</g>
				</mask>
				
					<radialGradient id="SVGID_10_" cx="4230.7725" cy="24.3694" r="612.767" gradientTransform="matrix(-0.941 0 0 0.9898 4354.7598 -24.3614)" gradientUnits="userSpaceOnUse">
					<stop  offset="0.0988" style="stop-color:#FFFFFF"/>
					<stop  offset="1" style="stop-color:#ABABAB"/>
				</radialGradient>
				<path class="st13" d="M0,38.07v454.32c0.24-0.92,0.48-1.84,0.72-2.76l0-114.39V46.31C0.48,43.56,0.24,40.82,0,38.07z"/>
			</g>
		</g>
	</g>
	<path class="st14" d="M336.87,480.19c0,26.93,0.89,26.93-28.31,26.93L48.6,506.6c-28.21,0.52-28.21,0.52-28.21-27.02L21.27,45.5
		c0-26.93-0.89-26.93,28.31-26.93l259.96,0.52c28.21,0,28.21-0.52,28.21,27.03L336.87,480.19z"/>
	<g>
		<path d="M47.42,31.86V48.9c0,1.28,0.06,2.1,0.17,2.45c0.11,0.35,0.35,0.64,0.71,0.87c0.36,0.23,0.93,0.34,1.72,0.34h0.48v0.57
			H39.52v-0.57h0.55c0.89,0,1.53-0.1,1.9-0.31c0.38-0.2,0.63-0.49,0.77-0.84c0.13-0.36,0.2-1.19,0.2-2.5V38.1
			c0-0.96-0.05-1.56-0.14-1.8c-0.09-0.24-0.26-0.45-0.51-0.61c-0.25-0.17-0.54-0.25-0.87-0.25c-0.52,0-1.16,0.16-1.9,0.49
			l-0.28-0.55l7.66-3.5H47.42z"/>
	</g>
	<g>
		<path d="M308.36,485.56v-17.03c0-1.28-0.06-2.1-0.17-2.45c-0.11-0.35-0.35-0.64-0.71-0.87c-0.36-0.23-0.93-0.34-1.72-0.34h-0.48
			v-0.57h10.97v0.57h-0.55c-0.89,0-1.53,0.1-1.9,0.31c-0.38,0.2-0.63,0.49-0.77,0.84c-0.13,0.36-0.2,1.19-0.2,2.5v10.8
			c0,0.96,0.05,1.56,0.14,1.8c0.09,0.24,0.26,0.45,0.51,0.61c0.25,0.17,0.54,0.25,0.87,0.25c0.52,0,1.16-0.16,1.9-0.49l0.28,0.55
			l-7.66,3.5H308.36z"/>
	</g>
</g>
</svg>
