<svg id="Capa_1" data-name="Capa 1" xmlns="http://www.w3.org/2000/svg" viewBox="0 0 368.69 133.33"><defs><style>.cls-1{fill:#f2f2f2;}.cls-2{fill:#1a1a1a;}.cls-3{fill:none;}.cls-4{fill:#fff;}.cls-5{opacity:0.97;font-size:35px;fill:#f3d774;font-family:Swiss721BT-Black, Swis721 Blk BT;font-weight:800;}</style></defs><title>contenedor-winner</title><path class="cls-1" d="M75.41,29.69c1.48.16,2.88.47,4.29.63a25.6,25.6,0,0,0,4.1.27,7.54,7.54,0,0,0,3.45-.84,3.37,3.37,0,0,0,1.56-2.36v-.2a1.32,1.32,0,0,1,2.63.1,65.47,65.47,0,0,1-.27,12.52,65.86,65.86,0,0,1-2.38-12.3l2.66-.1a5.51,5.51,0,0,1-2.87,4.64,8.45,8.45,0,0,1-4.89.86A19.28,19.28,0,0,1,75.41,29.69Z" transform="translate(0.01 0.06)"/><path class="cls-1" d="M96.84,23.27a16.71,16.71,0,0,1,1.9,4.38A16.05,16.05,0,0,1,99.22,30a12.54,12.54,0,0,1,0,2.45,7.19,7.19,0,0,1-.72,2.39c-.19.38-.35.77-.56,1.13l-.81,1a6.9,6.9,0,0,1-1.88,1.65l-1,.73-1.14.49C87,42.47,80.29,42.28,73.92,42c-12.79-1.18-25.33-2.81-37.71-1.81a31.15,31.15,0,0,0-8.63,1.89,17.08,17.08,0,0,0-6.83,4.58c-1.65,2-2.35,4.42-1.44,6.3a2.14,2.14,0,0,0,.37.7c.19.25.22.4.51.75l1.47,1.78,3,3.7c4,4.92,8,9.74,12.08,14.63s8.2,9.73,11.94,15.09,6.87,10.88,10.32,16a28.67,28.67,0,0,0,2.5,3.58,5.07,5.07,0,0,0,2.61,1.63c2.18.4,5.22-.24,8.09-1,11.8-3.48,23.21-9.24,35.08-13.9A255,255,0,0,1,143.66,84c12.42-2.76,25.29-4.72,38-3.13C169,80.56,156.45,83,144.39,86.63A294.23,294.23,0,0,0,109,99.84L91.67,107.7a166.43,166.43,0,0,1-18,7.09c-3.18.89-6.5,1.87-10.63,1.22a10.33,10.33,0,0,1-5.41-3.17,33,33,0,0,1-3.13-4.2c-3.63-5.36-6.79-10.83-10.37-15.89C37,82.69,28.29,73.16,20.5,63.16l-2.91-3.79-1.44-1.9a11.09,11.09,0,0,1-1.51-2.63,9.63,9.63,0,0,1-.38-6.2A13.37,13.37,0,0,1,17,43.54c5.08-5.58,12.29-7.27,18.83-7.63,13-.6,25.74,1.67,38.17,3.42,6.15.71,12.6,1.26,18.37-.78a8.59,8.59,0,0,0,5.89-6.18,12.43,12.43,0,0,0,.25-2.28,15.13,15.13,0,0,0-.27-2.32A15.55,15.55,0,0,0,96.84,23.27Z" transform="translate(0.01 0.06)"/><path class="cls-1" d="M72.76,40.55c-1.11-2.79-2-5.63-2.86-8.47a12.66,12.66,0,0,1,1.79-9.82,13.21,13.21,0,0,1,3.62-3.79,23.83,23.83,0,0,1,4.42-2.31,34.19,34.19,0,0,1,9.31-2,23.78,23.78,0,0,1,9.79,1.29,14,14,0,0,1,4.54,2.93,15.4,15.4,0,0,1,1.68,2.26,16.07,16.07,0,0,1,1,2.48A51.85,51.85,0,0,1,108.23,41,165.37,165.37,0,0,0,102,24.57a12.77,12.77,0,0,0-.88-1.52,13.25,13.25,0,0,0-1.07-1.18,9.17,9.17,0,0,0-3-1.53,19.87,19.87,0,0,0-7.63-.69A32,32,0,0,0,81.5,21.1a19.14,19.14,0,0,0-3.58,1.44,11.71,11.71,0,0,0-2.74,2.27,10.55,10.55,0,0,0-2.59,6.84C72.69,34.59,72.85,37.55,72.76,40.55Z" transform="translate(0.01 0.06)"/><path class="cls-1" d="M31.83,43.92a13.64,13.64,0,0,0-3.93,3.75,6.12,6.12,0,0,0-1.06,4.8,8.52,8.52,0,0,0,2.66,4.19,13.39,13.39,0,0,0,2,1.68,12.13,12.13,0,0,0,2.16,1.37c3,1.59,6.53,1.9,10,1.77a53.23,53.23,0,0,0,10.5-1.62,91.92,91.92,0,0,0,20.09-7.57L79,49.56c1.66-.91,3.34-1.76,5-2.6q5.08-2.48,10.31-4.57A188.26,188.26,0,0,1,137.7,31.23a205.51,205.51,0,0,1,44.48-1.44,377.09,377.09,0,0,0-43.78,5.66c-7.19,1.4-14.31,3.06-21.33,5.07a190.8,190.8,0,0,0-20.7,7c-3.39,1.31-6.73,2.75-10,4.29-1.63.78-3.25,1.58-4.84,2.43S78.4,56,76.64,56.89a74.52,74.52,0,0,1-10.58,4.27,83.48,83.48,0,0,1-11,2.87,51.65,51.65,0,0,1-11.44,1c-3.84-.18-7.9-.8-11.35-3A13.48,13.48,0,0,1,30,60.16a15.29,15.29,0,0,1-2-2.1,9.83,9.83,0,0,1-2.57-5.38,7.22,7.22,0,0,1,1.86-5.52A14.09,14.09,0,0,1,31.83,43.92Z" transform="translate(0.01 0.06)"/><path class="cls-1" d="M279.5,31.94a19.24,19.24,0,0,1-8.38,3,8.5,8.5,0,0,1-4.87-1,5.49,5.49,0,0,1-2.76-4.7l2.65.16a65.53,65.53,0,0,1-2.64,12.31,65.78,65.78,0,0,1,0-12.55,1.32,1.32,0,0,1,2.63,0v.2a3.33,3.33,0,0,0,1.51,2.39,7.61,7.61,0,0,0,3.43.92,25.66,25.66,0,0,0,4.11-.18C276.57,32.35,278,32.07,279.5,31.94Z" transform="translate(0.01 0.06)"/><path class="cls-1" d="M258.17,25.05a16.73,16.73,0,0,0-1.6,4.44,16.25,16.25,0,0,0-.32,2.31,11.65,11.65,0,0,0,.2,2.28,8.62,8.62,0,0,0,5.76,6.3c5.72,2.17,12.19,1.76,18.35,1.19C293,40.09,305.79,38.1,318.8,39c6.53.5,13.7,2.35,18.66,8a13.22,13.22,0,0,1,2.66,5.17,9.55,9.55,0,0,1-.52,6.19A11.47,11.47,0,0,1,338,61l-1.53,1.9-3,3.72c-8,9.92-16.88,19.21-24.24,29.11-3.69,5-7,10.38-10.71,15.66a34.19,34.19,0,0,1-3.21,4.07,10.34,10.34,0,0,1-5.48,3c-4.14.55-7.43-.5-10.6-1.46a165.27,165.27,0,0,1-17.76-7.44l-17.13-8.24a295.09,295.09,0,0,0-35.11-14c-12-3.86-24.42-6.61-37.14-6.55,12.69-1.31,25.52.93,37.88,4a255.94,255.94,0,0,1,36.09,12.64c11.77,4.93,23,10.94,34.76,14.67,2.86.86,5.88,1.56,8.07,1.21a5,5,0,0,0,2.65-1.57,29.14,29.14,0,0,0,2.63-3.43c3.56-5.09,6.84-10.57,10.67-15.81s8.15-10,12.27-14.82,8.36-9.53,12.36-14.36l3-3.63L334,57.8a7.67,7.67,0,0,0,.53-.74,1.86,1.86,0,0,0,.39-.7c1-1.86.31-4.29-1.3-6.33a17.22,17.22,0,0,0-6.73-4.73,31,31,0,0,0-8.58-2.08c-12.35-1.21-24.93.13-37.67,1-6.37.17-13,.21-19.14-2.54l-1-.52-1-.75a7.09,7.09,0,0,1-1.85-1.69l-.79-1c-.21-.36-.36-.77-.54-1.15a7.46,7.46,0,0,1-.66-2.4,12.64,12.64,0,0,1,0-2.46,17.14,17.14,0,0,1,.53-2.36A18.42,18.42,0,0,1,258.17,25.05Z" transform="translate(0.01 0.06)"/><path class="cls-1" d="M281.87,42.86c0-3,.2-6,.41-8.92a10.54,10.54,0,0,0-2.44-6.9,11.76,11.76,0,0,0-2.69-2.33,18.64,18.64,0,0,0-3.55-1.55,32,32,0,0,0-7.91-1.64,19.88,19.88,0,0,0-7.64.53A9.14,9.14,0,0,0,255,23.51a15,15,0,0,0-1.09,1.16,12.75,12.75,0,0,0-.91,1.5,169.46,169.46,0,0,0-6.57,16.26A51.7,51.7,0,0,1,249,24.63a16.79,16.79,0,0,1,1-2.45A16.13,16.13,0,0,1,251.73,20a14,14,0,0,1,4.6-2.82,23.64,23.64,0,0,1,9.85-1,34.38,34.38,0,0,1,9.26,2.26,23.37,23.37,0,0,1,4.37,2.37,12.92,12.92,0,0,1,3.53,3.87,12.67,12.67,0,0,1,1.58,9.86C284,37.27,283,40.09,281.87,42.86Z" transform="translate(0.01 0.06)"/><path class="cls-1" d="M322.72,47.16a14,14,0,0,1,4.5,3.34A7.28,7.28,0,0,1,329,56.07a9.88,9.88,0,0,1-2.68,5.33,15.13,15.13,0,0,1-2.08,2,14.08,14.08,0,0,1-2.38,1.76c-3.49,2.16-7.57,2.69-11.41,2.78A52.72,52.72,0,0,1,299,66.66a84.28,84.28,0,0,1-10.91-3.11A72.94,72.94,0,0,1,277.61,59c-1.74-.92-3.29-1.91-4.83-2.76s-3.17-1.72-4.79-2.54c-3.24-1.62-6.55-3.12-9.9-4.51a194.79,194.79,0,0,0-20.59-7.38Q227,38.6,216.29,36.3a375.79,375.79,0,0,0-43.64-6.62,204.7,204.7,0,0,1,44.44,2.42,188.18,188.18,0,0,1,43.09,12.12q5.18,2.2,10.2,4.79c1.67.87,3.33,1.76,5,2.71l4.73,2.83a92,92,0,0,0,19.91,8,53.18,53.18,0,0,0,10.48,1.86c3.47.2,7.06,0,10-1.55a11.59,11.59,0,0,0,2.19-1.32,13.06,13.06,0,0,0,2-1.63,8.45,8.45,0,0,0,2.81-4.13,6.06,6.06,0,0,0-.95-4.82A13.59,13.59,0,0,0,322.72,47.16Z" transform="translate(0.01 0.06)"/><path class="cls-2" d="M329.74,90.16l-20.1,32.18c-3,4.22-25.79,11.46-34.86,2.85C267.66,118.42,208,96,177.46,89.83c-17-4.51-92.15,25.33-107.9,40.91s-49.38-46-49.38-46S7.06,69.72,1.09,59C-.5,51-.66,43.71,2.62,39S12.78,27.71,16.91,26.05s15.81-4.24,20.9-4.2,18,1,18,1S60.73,8.65,69.56,5.16a100.44,100.44,0,0,1,17.85-5s9-1.24,15.23,2.16,15.72,18,15.72,18,40.35-5.07,58.25-4.84,43.3,2.81,50.71,4.46l7.4,1.66S239.05,5.9,250.85,4,267.13.85,274.7,3.77s14.92,7.41,17,10.33,5.45,11.42,5.45,11.42,21.32-1.6,28.54.53,18.09,8.79,18.09,8.79,7.68,5.91,8.35,13.46-.06,15-4.58,20.59S329.74,90.16,329.74,90.16Z" transform="translate(0.01 0.06)"/><path class="cls-3" d="M367.35,122.73h1.33A2.72,2.72,0,0,0,367.35,122.73Z" transform="translate(0.01 0.06)"/><path class="cls-3" d="M209.73,101.16l-2.53-.84-.89.83A11.53,11.53,0,0,0,209.73,101.16Z" transform="translate(0.01 0.06)"/><path class="cls-4" d="M304.23,121.08a2.53,2.53,0,0,1-.44-1.73A22.45,22.45,0,0,1,301,121.8,5.61,5.61,0,0,0,304.23,121.08Z" transform="translate(0.01 0.06)"/><path class="cls-1" d="M91.5,27.29a1.32,1.32,0,0,0-2.63-.1v.2a3.37,3.37,0,0,1-1.56,2.36,7.27,7.27,0,0,1-3.45.84,25.6,25.6,0,0,1-4.1-.27c-1.41-.16-2.81-.47-4.29-.63a19.41,19.41,0,0,0,8.31,3.23,8.61,8.61,0,0,0,4.89-.86,4.66,4.66,0,0,0,.75-.5A58.69,58.69,0,0,0,91,39l.35-.09A68.1,68.1,0,0,0,91.5,27.29Z" transform="translate(0.01 0.06)"/><path class="cls-1" d="M176.89,80.41c-11.11-.65-22.32,1.15-33.18,3.57a255,255,0,0,0-36.38,11.86c-11.87,4.67-23.28,10.43-35.08,13.9-2.87.79-5.91,1.43-8.09,1a5,5,0,0,1-2.61-1.58A29.94,29.94,0,0,1,59,105.68c-3.45-5.17-6.6-10.72-10.32-16S40.75,79.43,36.73,74.53,28.61,64.82,24.65,59.9l-3-3.7-1.47-1.86q-.27-.36-.51-.75a2,2,0,0,1-.37-.7c-.92-1.89-.21-4.29,1.44-6.3A17,17,0,0,1,27.57,42a31.08,31.08,0,0,1,8.67-1.85c12.37-.94,24.92.67,37.64,1.83,6.37.31,13,.5,19.19-2.11l1.14-.49,1-.73A6.9,6.9,0,0,0,97.09,37l.81-1c.22-.36.37-.76.56-1.13a7.41,7.41,0,0,0,.71-2.39,12.54,12.54,0,0,0,0-2.45,16.05,16.05,0,0,0-.48-2.37,17.41,17.41,0,0,0-1.9-4.38,16.82,16.82,0,0,1,1.5,4.47,18.12,18.12,0,0,1,.27,2.32,11.62,11.62,0,0,1-.25,2.28,8.67,8.67,0,0,1-5.81,6.17c-.38.14-.77.26-1.16.37L91,39c-5.37,1.47-11.24,1-16.86.31l-1.32-.14v1.45c-.2-.51-.39-1-.58-1.54-11.82-1.7-23.9-3.72-36.26-3.15-6.54.36-13.75,2-18.83,7.63a13.3,13.3,0,0,0-2.77,5.1,9.63,9.63,0,0,0,.38,6.2,11.09,11.09,0,0,0,1.51,2.63l1.44,1.9,2.9,3.78c7.75,10,16.46,19.54,23.59,29.6,3.58,5.06,6.74,10.53,10.37,15.89a34,34,0,0,0,3.12,4.14A10.33,10.33,0,0,0,63.09,116c4.13.65,7.44-.33,10.63-1.22a168.51,168.51,0,0,0,18-7.09L109,99.79a293.6,293.6,0,0,1,35.41-13.21c10.55-3.14,21.43-5.43,32.49-5.73-1.59-.08-3.18-.12-4.78-.11C173.7,80.58,175.29,80.47,176.89,80.41Z" transform="translate(0.01 0.06)"/><path class="cls-1" d="M72.78,39.1c0-2.51-.11-5-.23-7.48a10.55,10.55,0,0,1,2.59-6.84,11.71,11.71,0,0,1,2.74-2.27,18.84,18.84,0,0,1,3.62-1.44,32,32,0,0,1,7.94-1.47,19.87,19.87,0,0,1,7.63.69,9.17,9.17,0,0,1,3,1.53c.35.39.75.75,1.07,1.18a12.77,12.77,0,0,1,.88,1.52c1.89,4.34,3.63,8.78,5.2,13.38l1.1-.34a55.25,55.25,0,0,0-2.27-14.5,18.36,18.36,0,0,0-1-2.48,14.89,14.89,0,0,0-1.68-2.26,14,14,0,0,0-4.54-2.93A23.78,23.78,0,0,0,89,14.1a34.27,34.27,0,0,0-9.32,2.06,23.66,23.66,0,0,0-4.42,2.27,13.21,13.21,0,0,0-3.62,3.79A12.62,12.62,0,0,0,69.89,32c.72,2.32,1.44,4.64,2.28,6.94.19.51.37,1,.58,1.54C72.78,40.07,72.78,39.59,72.78,39.1Z" transform="translate(0.01 0.06)"/><path class="cls-1" d="M94.39,42.38Q89.17,44.48,84.08,47c-1.69.83-3.37,1.69-5,2.6l-4.79,2.73A91.92,91.92,0,0,1,54.2,59.85a52.7,52.7,0,0,1-10.52,1.62c-3.48.12-7-.18-10-1.77a11,11,0,0,1-2.18-1.37,12.81,12.81,0,0,1-2-1.68,8.4,8.4,0,0,1-2.63-4.19,6.08,6.08,0,0,1,1.06-4.8,13.77,13.77,0,0,1,3.93-3.75,14.05,14.05,0,0,0-4.6,3.25,7.25,7.25,0,0,0-1.9,5.53,9.76,9.76,0,0,0,2.57,5.38,15.29,15.29,0,0,0,2,2.1A14.81,14.81,0,0,0,32.27,62c3.44,2.23,7.51,2.85,11.35,3a52.25,52.25,0,0,0,11.44-1,83.48,83.48,0,0,0,11-2.87,73.81,73.81,0,0,0,10.61-4.29C78.5,56,80,55,81.58,54.16s3.21-1.65,4.84-2.43c3.28-1.54,6.61-3,10-4.29a196,196,0,0,1,20.7-7c7-2,14.14-3.67,21.33-5.07a363.89,363.89,0,0,1,39.05-5.21c-1.59-.17-3.18-.34-4.77-.49,1.59-.09,3.19-.15,4.78-.2a206,206,0,0,0-39.71,1.75,192.09,192.09,0,0,0-29.44,6.38l-1.1.34C102.88,39.26,98.6,40.73,94.39,42.38Z" transform="translate(0.01 0.06)"/><path class="cls-1" d="M266.21,34a8.5,8.5,0,0,0,4.87,1,19.49,19.49,0,0,0,8.38-3c-1.48.13-2.89.41-4.3.53a25.66,25.66,0,0,1-4.11.18,7.48,7.48,0,0,1-3.43-.92,3.38,3.38,0,0,1-1.51-2.39v-.2a1.32,1.32,0,0,0-2.61-.05,68,68,0,0,0-.09,11.59l.35.1a57.87,57.87,0,0,0,1.74-7.36A4.46,4.46,0,0,0,266.21,34Z" transform="translate(0.01 0.06)"/><path class="cls-1" d="M279.31,117c3.16,1,6.45,2,10.6,1.46a10.34,10.34,0,0,0,5.48-3,33.2,33.2,0,0,0,3.21-4.07c3.74-5.28,7-10.68,10.71-15.66,7.35-9.9,16.26-19.19,24.24-29.11l3-3.72L338,61a10.92,10.92,0,0,0,1.57-2.6,9.55,9.55,0,0,0,.52-6.19A13.32,13.32,0,0,0,337.5,47c-5-5.69-12.13-7.54-18.66-8-12.34-.87-24.5.86-36.34,2.31-.2.51-.4,1-.61,1.52V41.41l-1.33.16c-5.63.53-11.51.9-16.85-.69l-.35-.1c-.39-.12-.77-.25-1.15-.4a8.66,8.66,0,0,1-5.76-6.3,11.65,11.65,0,0,1-.2-2.28,16.25,16.25,0,0,1,.32-2.31,16.73,16.73,0,0,1,1.6-4.44,16.87,16.87,0,0,0-2,4.33,15.79,15.79,0,0,0-.53,2.36,12.64,12.64,0,0,0,0,2.46,6.92,6.92,0,0,0,.66,2.4c.18.38.33.78.54,1.15l.79,1a6.63,6.63,0,0,0,1.87,1.67l1,.75,1.12.52c6.09,2.75,12.76,2.7,19.14,2.54,12.74-.87,25.32-2.21,37.67-1A30.85,30.85,0,0,1,327,45.31,17.22,17.22,0,0,1,333.74,50c1.6,2,2.26,4.47,1.3,6.33a2.1,2.1,0,0,1-.39.7,7.67,7.67,0,0,1-.53.74l-1.51,1.82-3,3.63c-4.06,4.83-8.2,9.57-12.4,14.36s-8.46,9.54-12.31,14.82-7.11,10.72-10.67,15.81a29.14,29.14,0,0,1-2.63,3.43,5,5,0,0,1-2.65,1.57c-2.19.35-5.21-.35-8.07-1.21-11.72-3.74-23-9.74-34.76-14.67A254.59,254.59,0,0,0,210,84.71c-10.81-2.65-22-4.7-33.1-4.3-1.59.06-3.19.17-4.78.33,1.6,0,3.19,0,4.78.11,11.06.54,21.89,3.07,32.36,6.44a293.4,293.4,0,0,1,35.11,14l17.12,8.23A163.47,163.47,0,0,0,279.31,117Z" transform="translate(0.01 0.06)"/><path class="cls-1" d="M253,26.21a12.75,12.75,0,0,1,.91-1.5c.32-.43.74-.77,1.09-1.16A9.14,9.14,0,0,1,258,22.09a19.88,19.88,0,0,1,7.64-.53,32.4,32.4,0,0,1,7.91,1.6,19.13,19.13,0,0,1,3.55,1.51A11.52,11.52,0,0,1,279.83,27a10.52,10.52,0,0,1,2.44,6.9c-.17,2.48-.35,5-.4,7.47v1.45c.21-.51.41-1,.61-1.52.89-2.28,1.66-4.58,2.43-6.88a12.63,12.63,0,0,0-1.58-9.86,13.32,13.32,0,0,0-3.53-3.87,24.29,24.29,0,0,0-4.37-2.37,34.38,34.38,0,0,0-9.26-2.26,23.9,23.9,0,0,0-9.83,1.1,14,14,0,0,0-4.6,2.82A16.13,16.13,0,0,0,250,22.2a18,18,0,0,0-1,2.45,55.15,55.15,0,0,0-2.63,14.51l1.09.36C249.16,34.91,251,30.51,253,26.21Z" transform="translate(0.01 0.06)"/><path class="cls-1" d="M177.44,30.16a364.48,364.48,0,0,1,38.87,6.13c7.16,1.56,14.24,3.38,21.21,5.54a195.17,195.17,0,0,1,20.55,7.42q5,2.09,9.9,4.51c1.62.82,3.22,1.65,4.79,2.54s3.09,1.84,4.83,2.76a72.94,72.94,0,0,0,10.52,4.52A84.28,84.28,0,0,0,299,66.69,51.5,51.5,0,0,0,310.43,68c3.84-.1,7.92-.62,11.41-2.78a13.48,13.48,0,0,0,2.38-1.79,14.4,14.4,0,0,0,2.08-2A9.71,9.71,0,0,0,329,56a7.28,7.28,0,0,0-1.78-5.57,13.81,13.81,0,0,0-4.5-3.29,13.68,13.68,0,0,1,3.8,3.78,6.07,6.07,0,0,1,1,4.82,8.51,8.51,0,0,1-2.73,4.13,13.06,13.06,0,0,1-2,1.63,12.56,12.56,0,0,1-2.27,1.32c-3,1.52-6.57,1.75-10,1.55A53.9,53.9,0,0,1,300,62.54a92,92,0,0,1-19.91-8l-4.73-2.83c-1.64-1-3.3-1.84-5-2.71q-5-2.58-10.2-4.79c-4.18-1.75-8.42-3.31-12.71-4.73l-1.07-.32a193.82,193.82,0,0,0-29.29-7,206.07,206.07,0,0,0-39.61-2.7c-1.59.05-3.19.11-4.78.2Z" transform="translate(0.01 0.06)"/><text class="cls-5" transform="translate(81.08 93.56) rotate(-16.98)">W</text><text class="cls-5" transform="matrix(0.96, -0.27, 0.27, 0.96, 120.28, 81.75)">I</text><text class="cls-5" transform="translate(138.63 75.92) rotate(-9.43)">N</text><text class="cls-5" transform="translate(171.7 71.08) rotate(4.32)">N</text><text class="cls-5" transform="matrix(0.98, 0.21, -0.21, 0.98, 205.79, 74.08)">E</text><text class="cls-5" transform="translate(235.24 81.54) rotate(17.29)">R</text><text class="cls-5" transform="translate(266.99 91.82)"> </text></svg>