<svg width="273" height="215" viewBox="0 0 273 215" fill="none" xmlns="http://www.w3.org/2000/svg">
<g opacity="0.08">
<path opacity="0.08" d="M272.122 90.7623C272.122 127.33 211.206 156.973 136.061 156.973C60.9166 156.973 0 127.33 0 90.7623C0 54.195 60.9166 24.5513 136.061 24.5513C211.206 24.5513 272.122 54.195 272.122 90.7623Z" fill="#2D9CDB"/>
<path opacity="0.08" d="M272.122 90.7623C272.122 127.33 211.206 156.973 136.061 156.973C60.9166 156.973 0 127.33 0 90.7623C0 54.195 60.9166 24.5513 136.061 24.5513C211.206 24.5513 272.122 54.195 272.122 90.7623Z" fill="url(#paint0_linear)"/>
</g>
<g opacity="0.07">
<path opacity="0.07" d="M228.408 18.5532C228.408 23.3752 224.493 27.2842 219.665 27.2842C214.836 27.2842 210.922 23.3752 210.922 18.5532C210.922 13.7312 214.836 9.82227 219.665 9.82227C224.493 9.82227 228.408 13.7312 228.408 18.5532Z" fill="#2D9CDB"/>
<path opacity="0.07" d="M228.408 18.5532C228.408 23.3752 224.493 27.2842 219.665 27.2842C214.836 27.2842 210.922 23.3752 210.922 18.5532C210.922 13.7312 214.836 9.82227 219.665 9.82227C224.493 9.82227 228.408 13.7312 228.408 18.5532Z" fill="url(#paint1_linear)"/>
</g>
<g opacity="0.07">
<path opacity="0.07" d="M121.044 8.55536C121.044 13.2804 117.227 17.1107 112.517 17.1107C107.808 17.1107 103.99 13.2804 103.99 8.55536C103.99 3.83036 107.808 0 112.517 0C117.227 0 121.044 3.83036 121.044 8.55536Z" fill="#2D9CDB"/>
<path opacity="0.07" d="M121.044 8.55536C121.044 13.2804 117.227 17.1107 112.517 17.1107C107.808 17.1107 103.99 13.2804 103.99 8.55536C103.99 3.83036 107.808 0 112.517 0C117.227 0 121.044 3.83036 121.044 8.55536Z" fill="url(#paint2_linear)"/>
</g>
<path d="M244.129 149.533C244.129 157.339 237.822 163.668 230.041 163.668C222.26 163.668 215.953 157.339 215.953 149.533C215.953 141.726 222.26 135.398 230.041 135.398C237.822 135.398 244.129 141.726 244.129 149.533Z" fill="#090909"/>
<path d="M86.9367 140.977C86.9367 151.865 78.1395 160.692 67.2876 160.692C56.4356 160.692 47.6384 151.865 47.6384 140.977C47.6384 130.089 56.4356 121.263 67.2876 121.263C78.1395 121.263 86.9367 130.089 86.9367 140.977Z" fill="#090909"/>
<path d="M250.061 106.012C250.061 109.504 247.239 112.335 243.758 112.335C240.278 112.335 237.456 109.504 237.456 106.012C237.456 102.519 240.278 99.688 243.758 99.688C247.239 99.688 250.061 102.519 250.061 106.012Z" fill="#090909"/>
<path fill-rule="evenodd" clip-rule="evenodd" d="M132.391 17.9343C133.545 17.8813 134.706 17.8545 135.874 17.8545C137.041 17.8545 138.202 17.8813 139.356 17.9343C140.174 17.9719 140.807 18.6678 140.77 19.4887C140.732 20.3096 140.039 20.9446 139.221 20.907C138.111 20.856 136.996 20.8303 135.874 20.8303C134.752 20.8303 133.636 20.856 132.527 20.907C131.708 20.9446 131.015 20.3096 130.977 19.4887C130.94 18.6678 131.573 17.9719 132.391 17.9343ZM126.378 19.9377C126.5 20.7504 125.941 21.5078 125.131 21.6295C122.909 21.9633 120.721 22.3991 118.57 22.932C117.775 23.129 116.971 22.642 116.775 21.8442C116.579 21.0464 117.064 20.24 117.859 20.043C120.099 19.488 122.378 19.0342 124.692 18.6866C125.502 18.5649 126.257 19.125 126.378 19.9377ZM145.369 19.9377C145.49 19.125 146.245 18.5649 147.055 18.6866C149.369 19.0342 151.648 19.488 153.888 20.043C154.683 20.24 155.169 21.0464 154.972 21.8442C154.776 22.642 153.972 23.129 153.177 22.932C151.027 22.3991 148.838 21.9633 146.616 21.6295C145.806 21.5078 145.248 20.7504 145.369 19.9377ZM112.353 23.1884C112.631 23.9614 112.232 24.8141 111.461 25.0929C109.355 25.8555 107.294 26.7139 105.284 27.663C104.543 28.0129 103.659 27.6938 103.311 26.9503C102.962 26.2068 103.28 25.3204 104.021 24.9705C106.114 23.982 108.261 23.088 110.455 22.2938C111.225 22.0149 112.075 22.4154 112.353 23.1884ZM159.394 23.1884C159.672 22.4154 160.522 22.0149 161.293 22.2938C163.486 23.088 165.633 23.982 167.726 24.9705C168.467 25.3204 168.785 26.2068 168.436 26.9503C168.088 27.6938 167.204 28.0129 166.463 27.663C164.453 26.7139 162.392 25.8555 160.286 25.0929C159.516 24.8141 159.116 23.9614 159.394 23.1884ZM99.2374 29.1393C99.6609 29.8427 99.436 30.7573 98.735 31.1823C96.8225 32.3416 94.9681 33.5877 93.1772 34.9154C92.5185 35.4037 91.5899 35.2638 91.1032 34.6029C90.6165 33.9419 90.756 33.0103 91.4147 32.522C93.2792 31.1398 95.2099 29.8424 97.2012 28.6352C97.9022 28.2103 98.8139 28.436 99.2374 29.1393ZM172.51 29.1393C172.933 28.436 173.845 28.2103 174.546 28.6353C176.537 29.8424 178.468 31.1398 180.332 32.522C180.991 33.0103 181.131 33.942 180.644 34.6029C180.157 35.2638 179.229 35.4037 178.57 34.9154C176.779 33.5877 174.925 32.3416 173.012 31.1823C172.311 30.7573 172.086 29.8427 172.51 29.1393ZM87.5325 37.5464C88.0843 38.1537 88.0409 39.0948 87.4356 39.6483C85.7871 41.1561 84.2087 42.7397 82.706 44.3937C82.1542 45.001 81.2163 45.0446 80.611 44.491C80.0057 43.9374 79.9623 42.9963 80.5141 42.389C82.0784 40.6672 83.7215 39.0187 85.4376 37.4492C86.0428 36.8956 86.9808 36.9391 87.5325 37.5464ZM184.215 37.5464C184.766 36.9391 185.704 36.8956 186.31 37.4492C188.026 39.0187 189.669 40.6672 191.233 42.389C191.785 42.9963 191.741 43.9374 191.136 44.491C190.531 45.0446 189.593 45.001 189.041 44.3937C187.538 42.7397 185.96 41.1561 184.312 39.6483C183.706 39.0948 183.663 38.1537 184.215 37.5464ZM77.6772 48.0736C78.3359 48.5619 78.4754 49.4935 77.9887 50.1544C76.6655 51.9513 75.4234 53.8118 74.268 55.7307C73.8444 56.434 72.9328 56.6597 72.2318 56.2348C71.5308 55.8098 71.3059 54.8952 71.7294 54.1918C72.9325 52.1939 74.2257 50.2567 75.6032 48.3861C76.0899 47.7251 77.0185 47.5852 77.6772 48.0736ZM194.07 48.0736C194.729 47.5852 195.657 47.7252 196.144 48.3861C197.521 50.2567 198.815 52.1939 200.018 54.1919C200.441 54.8952 200.216 55.8098 199.515 56.2348C198.814 56.6597 197.903 56.434 197.479 55.7307C196.324 53.8118 195.082 51.9513 193.758 50.1544C193.272 49.4935 193.411 48.5619 194.07 48.0736ZM70.05 60.3217C70.7911 60.6716 71.1091 61.558 70.7603 62.3015C69.8144 64.3182 68.9588 66.3858 68.1988 68.4993C67.9209 69.2722 67.071 69.6728 66.3006 69.3939C65.5302 69.115 65.131 68.2623 65.4089 67.4893C66.2005 65.2881 67.0916 63.1346 68.0768 61.0343C68.4255 60.2908 69.309 59.9718 70.05 60.3217ZM201.697 60.3217C202.438 59.9718 203.322 60.2908 203.67 61.0343C204.656 63.1346 205.547 65.2881 206.338 67.4893C206.616 68.2623 206.217 69.115 205.447 69.3939C204.676 69.6728 203.826 69.2722 203.548 68.4993C202.788 66.3858 201.933 64.3182 200.987 62.3015C200.638 61.558 200.956 60.6716 201.697 60.3217ZM64.9608 73.8306C65.756 74.0277 66.2414 74.8341 66.045 75.6319C65.5139 77.7894 65.0796 79.9854 64.7469 82.2148C64.6256 83.0275 63.8707 83.5877 63.0607 83.466C62.2507 83.3443 61.6924 82.5868 61.8137 81.7742C62.1601 79.4526 62.6125 77.1656 63.1656 74.9184C63.362 74.1206 64.1657 73.6336 64.9608 73.8306ZM206.786 73.8306C207.581 73.6336 208.385 74.1206 208.582 74.9184C209.135 77.1656 209.587 79.4526 209.933 81.7742C210.055 82.5868 209.496 83.3443 208.686 83.466C207.876 83.5877 207.122 83.0275 207 82.2148C206.668 79.9854 206.233 77.7894 205.702 75.6319C205.506 74.8341 205.991 74.0277 206.786 73.8306ZM62.6132 88.0804C63.4313 88.1179 64.0642 88.8139 64.0268 89.6347C63.976 90.7476 63.9503 91.8672 63.9503 92.9929C63.9503 94.1185 63.976 95.2381 64.0268 96.351C64.0642 97.1718 63.4313 97.8678 62.6132 97.9053C61.795 97.9429 61.1014 97.308 61.0639 96.4871C61.0111 95.3289 60.9844 94.1639 60.9844 92.9929C60.9844 91.8218 61.0111 90.6568 61.0639 89.4986C61.1014 88.6777 61.795 88.0428 62.6132 88.0804ZM209.134 88.0804C209.952 88.0428 210.646 88.6777 210.683 89.4986C210.736 90.6568 210.763 91.8218 210.763 92.9929C210.763 94.1639 210.736 95.3289 210.683 96.4871C210.646 97.308 209.952 97.9429 209.134 97.9053C208.316 97.8678 207.683 97.1718 207.72 96.351C207.771 95.2381 207.797 94.1185 207.797 92.9929C207.797 91.8672 207.771 90.7476 207.72 89.6347C207.683 88.8139 208.316 88.1179 209.134 88.0804ZM63.0607 102.52C63.8707 102.398 64.6256 102.958 64.7469 103.771C65.0796 106 65.5139 108.196 66.045 110.354C66.2414 111.152 65.756 111.958 64.9608 112.155C64.1657 112.352 63.362 111.865 63.1656 111.067C62.6125 108.82 62.1601 106.533 61.8137 104.212C61.6924 103.399 62.2507 102.641 63.0607 102.52ZM208.686 102.52C209.496 102.641 210.055 103.399 209.933 104.212C209.587 106.533 209.135 108.82 208.582 111.067C208.385 111.865 207.581 112.352 206.786 112.155C205.991 111.958 205.506 111.152 205.702 110.354C206.233 108.196 206.668 106 207 103.771C207.122 102.958 207.876 102.398 208.686 102.52ZM66.3006 116.592C67.071 116.313 67.9209 116.713 68.1988 117.486C68.9588 119.6 69.8144 121.668 70.7603 123.684C71.1091 124.428 70.7911 125.314 70.05 125.664C69.309 126.014 68.4255 125.695 68.0768 124.951C67.0916 122.851 66.2005 120.698 65.4089 118.496C65.131 117.723 65.5302 116.871 66.3006 116.592ZM205.447 116.592C206.217 116.871 206.616 117.723 206.338 118.496C205.547 120.698 204.656 122.851 203.67 124.951C203.322 125.695 202.438 126.014 201.697 125.664C200.956 125.314 200.638 124.428 200.987 123.684C201.933 121.668 202.788 119.6 203.548 117.486C203.826 116.713 204.676 116.313 205.447 116.592ZM72.2318 129.751C72.9328 129.326 73.8444 129.552 74.268 130.255C75.4234 132.174 76.6654 134.034 77.9887 135.831C78.4754 136.492 78.3359 137.424 77.6772 137.912C77.0185 138.4 76.0899 138.261 75.6032 137.6C74.2257 135.729 72.9325 133.792 71.7294 131.794C71.3059 131.091 71.5308 130.176 72.2318 129.751ZM199.515 129.751C200.216 130.176 200.441 131.091 200.018 131.794C198.815 133.792 197.521 135.729 196.144 137.6C195.657 138.261 194.729 138.4 194.07 137.912C193.411 137.424 193.272 136.492 193.758 135.831C195.082 134.034 196.324 132.174 197.479 130.255C197.903 129.552 198.814 129.326 199.515 129.751ZM80.611 141.495C81.2163 140.941 82.1542 140.985 82.706 141.592C84.2087 143.246 85.7871 144.83 87.4356 146.337C88.0409 146.891 88.0843 147.832 87.5325 148.439C86.9808 149.047 86.0428 149.09 85.4376 148.537C83.7215 146.967 82.0784 145.318 80.5141 143.597C79.9623 142.989 80.0057 142.048 80.611 141.495ZM191.136 141.495C191.741 142.048 191.785 142.989 191.233 143.597C189.669 145.318 188.026 146.967 186.31 148.537C185.704 149.09 184.766 149.047 184.215 148.439C183.663 147.832 183.706 146.891 184.312 146.337C185.96 144.83 187.538 143.246 189.041 141.592C189.593 140.985 190.531 140.941 191.136 141.495ZM91.1032 151.383C91.5899 150.722 92.5185 150.582 93.1772 151.07C94.9681 152.398 96.8225 153.644 98.735 154.803C99.436 155.228 99.6609 156.143 99.2374 156.846C98.8139 157.55 97.9022 157.775 97.2012 157.35C95.2099 156.143 93.2792 154.846 91.4147 153.464C90.756 152.975 90.6165 152.044 91.1032 151.383ZM180.644 151.383C181.131 152.044 180.991 152.975 180.332 153.464C178.468 154.846 176.537 156.143 174.546 157.35C173.845 157.775 172.933 157.55 172.51 156.846C172.086 156.143 172.311 155.228 173.012 154.803C174.925 153.644 176.779 152.398 178.57 151.07C179.229 150.582 180.157 150.722 180.644 151.383ZM103.311 159.035C103.659 158.292 104.543 157.973 105.284 158.323C107.294 159.272 109.355 160.13 111.461 160.893C112.232 161.172 112.631 162.024 112.353 162.797C112.075 163.57 111.225 163.971 110.455 163.692C108.261 162.898 106.114 162.004 104.021 161.015C103.28 160.665 102.962 159.779 103.311 159.035ZM168.436 159.035C168.785 159.779 168.467 160.665 167.726 161.015C165.633 162.004 163.486 162.898 161.293 163.692C160.522 163.971 159.672 163.57 159.394 162.797C159.116 162.024 159.516 161.172 160.286 160.893C162.392 160.13 164.453 159.272 166.463 158.323C167.204 157.973 168.088 158.292 168.436 159.035ZM116.775 164.142C116.971 163.344 117.775 162.857 118.57 163.054C120.721 163.587 122.909 164.022 125.131 164.356C125.941 164.478 126.5 165.235 126.378 166.048C126.257 166.861 125.502 167.421 124.692 167.299C122.378 166.952 120.099 166.498 117.859 165.943C117.064 165.746 116.579 164.939 116.775 164.142ZM154.972 164.142C155.169 164.939 154.683 165.746 153.888 165.943C151.648 166.498 149.369 166.952 147.055 167.299C146.245 167.421 145.49 166.861 145.369 166.048C145.248 165.235 145.806 164.478 146.616 164.356C148.838 164.022 151.027 163.587 153.177 163.054C153.972 162.857 154.776 163.344 154.972 164.142ZM130.977 166.497C131.015 165.676 131.708 165.041 132.527 165.079C133.636 165.13 134.752 165.155 135.874 165.155C136.996 165.155 138.111 165.13 139.221 165.079C140.039 165.041 140.732 165.676 140.77 166.497C140.807 167.318 140.174 168.014 139.356 168.051C138.202 168.104 137.041 168.131 135.874 168.131C134.706 168.131 133.545 168.104 132.391 168.051C131.573 168.014 130.94 167.318 130.977 166.497Z" fill="#090909"/>
<path d="M171.465 92.994C171.465 112.716 155.53 128.703 135.874 128.703C116.217 128.703 100.283 112.716 100.283 92.994C100.283 73.2723 116.217 57.2847 135.874 57.2847C155.53 57.2847 171.465 73.2723 171.465 92.994Z" fill="#090909" fill-opacity="0.4"/>
<path d="M132.166 76.2548C132.166 73.995 133.992 72.1631 136.244 72.1631C138.497 72.1631 140.323 73.995 140.323 76.2548V97.8292C140.323 100.089 138.497 101.921 136.244 101.921C133.992 101.921 132.166 100.089 132.166 97.8292V76.2548Z" fill="white"/>
<path d="M132.166 109.731C132.166 107.472 133.992 105.64 136.244 105.64C138.497 105.64 140.323 107.472 140.323 109.731C140.323 111.991 138.497 113.823 136.244 113.823C133.992 113.823 132.166 111.991 132.166 109.731Z" fill="white"/>
<path d="M102.448 151.01C102.448 160.877 94.4939 168.876 84.6822 168.876C74.8705 168.876 66.9165 160.877 66.9165 151.01C66.9165 141.143 74.8705 133.145 84.6822 133.145C94.4939 133.145 102.448 141.143 102.448 151.01Z" fill="#090909"/>
<path d="M104.646 148.801C104.646 158.667 96.6916 166.666 86.8799 166.666C77.0682 166.666 69.1143 158.667 69.1143 148.801C69.1143 138.934 77.0682 130.935 86.8799 130.935C96.6916 130.935 104.646 138.934 104.646 148.801Z" fill="#090909"/>
<path d="M104.646 149.801C104.646 159.667 96.6916 167.666 86.8799 167.666C77.0682 167.666 69.1143 159.667 69.1143 149.801C69.1143 139.934 77.0682 131.935 86.8799 131.935C96.6916 131.935 104.646 139.934 104.646 149.801Z" fill="url(#paint3_linear)"/>
<path fill-rule="evenodd" clip-rule="evenodd" d="M86.9358 156.973C91.3882 156.973 95.0921 153.196 95.0921 148.417C95.0921 143.639 91.3882 139.862 86.9358 139.862C82.4835 139.862 78.7796 143.639 78.7796 148.417C78.7796 153.196 82.4835 156.973 86.9358 156.973ZM86.9358 158.461C92.2594 158.461 96.575 153.964 96.575 148.417C96.575 142.871 92.2594 138.374 86.9358 138.374C81.6123 138.374 77.2966 142.871 77.2966 148.417C77.2966 153.964 81.6123 158.461 86.9358 158.461Z" fill="white"/>
<path d="M79.4618 69.9202C79.4618 79.787 71.5078 87.7857 61.6961 87.7857C51.8844 87.7857 43.9304 79.787 43.9304 69.9202C43.9304 60.0533 51.8844 52.0547 61.6961 52.0547C71.5078 52.0547 79.4618 60.0533 79.4618 69.9202Z" fill="#090909"/>
<path d="M81.66 67.7088C81.66 77.5756 73.706 85.5742 63.8943 85.5742C54.0826 85.5742 46.1287 77.5756 46.1287 67.7088C46.1287 57.8419 54.0826 49.8433 63.8943 49.8433C73.706 49.8433 81.66 57.8419 81.66 67.7088Z" fill="#090909"/>
<path d="M81.66 67.7088C81.66 77.5756 73.706 85.5742 63.8943 85.5742C54.0826 85.5742 46.1287 77.5756 46.1287 67.7088C46.1287 57.8419 54.0826 49.8433 63.8943 49.8433C73.706 49.8433 81.66 57.8419 81.66 67.7088Z" fill="url(#paint4_linear)"/>
<path fill-rule="evenodd" clip-rule="evenodd" d="M64.2242 55.0015L53.3105 74.0641H75.1378L64.2242 55.0015ZM64.2242 57.9886L55.8726 72.5762H72.5758L64.2242 57.9886Z" fill="white"/>
<path d="M149.902 21.5642C149.902 31.4311 141.948 39.4297 132.137 39.4297C122.325 39.4297 114.371 31.4311 114.371 21.5642C114.371 11.6974 122.325 3.69873 132.137 3.69873C141.948 3.69873 149.902 11.6974 149.902 21.5642Z" fill="#090909"/>
<path d="M152.1 19.3528C152.1 29.2196 144.146 37.2183 134.335 37.2183C124.523 37.2183 116.569 29.2196 116.569 19.3528C116.569 9.48596 124.523 1.4873 134.335 1.4873C144.146 1.4873 152.1 9.48596 152.1 19.3528Z" fill="#090909"/>
<path d="M152.1 19.3528C152.1 29.2196 144.146 37.2183 134.335 37.2183C124.523 37.2183 116.569 29.2196 116.569 19.3528C116.569 9.48596 124.523 1.4873 134.335 1.4873C144.146 1.4873 152.1 9.48596 152.1 19.3528Z" fill="url(#paint5_linear)"/>
<path fill-rule="evenodd" clip-rule="evenodd" d="M141.063 12.6471H127.717V26.782H141.063V12.6471ZM126.234 11.1592V28.2699H142.546V11.1592H126.234Z" fill="white"/>
<path d="M221.825 69.9202C221.825 79.787 213.871 87.7857 204.06 87.7857C194.248 87.7857 186.294 79.787 186.294 69.9202C186.294 60.0533 194.248 52.0547 204.06 52.0547C213.871 52.0547 221.825 60.0533 221.825 69.9202Z" fill="#090909"/>
<path d="M224.023 67.7088C224.023 77.5756 216.069 85.5742 206.257 85.5742C196.446 85.5742 188.492 77.5756 188.492 67.7088C188.492 57.8419 196.446 49.8433 206.257 49.8433C216.069 49.8433 224.023 57.8419 224.023 67.7088Z" fill="#090909"/>
<path d="M224.023 67.7088C224.023 77.5756 216.069 85.5742 206.257 85.5742C196.446 85.5742 188.492 77.5756 188.492 67.7088C188.492 57.8419 196.446 49.8433 206.257 49.8433C216.069 49.8433 224.023 57.8419 224.023 67.7088Z" fill="url(#paint6_linear)"/>
<path fill-rule="evenodd" clip-rule="evenodd" d="M208.357 64.7384L205.943 57.2847L203.529 64.7384H195.718L202.037 69.3451L199.623 76.7989L205.943 72.1922L212.263 76.7989L209.849 69.3451L216.168 64.7384H208.357ZM211.604 66.2263H207.279L205.943 62.0996L204.607 66.2263H200.282L203.781 68.7768L202.444 72.9035L205.943 70.3531L209.442 72.9035L208.105 68.7768L211.604 66.2263Z" fill="white"/>
<path d="M198.098 151.01C198.098 160.877 190.144 168.876 180.332 168.876C170.52 168.876 162.566 160.877 162.566 151.01C162.566 141.143 170.52 133.145 180.332 133.145C190.144 133.145 198.098 141.143 198.098 151.01Z" fill="#090909"/>
<path d="M200.296 148.801C200.296 158.667 192.342 166.666 182.531 166.666C172.719 166.666 164.765 158.667 164.765 148.801C164.765 138.934 172.719 130.935 182.531 130.935C192.342 130.935 200.296 138.934 200.296 148.801Z" fill="#090909"/>
<path d="M200.296 148.801C200.296 158.667 192.342 166.666 182.531 166.666C172.719 166.666 164.765 158.667 164.765 148.801C164.765 138.934 172.719 130.935 182.531 130.935C192.342 130.935 200.296 138.934 200.296 148.801Z" fill="url(#paint7_linear)"/>
<path fill-rule="evenodd" clip-rule="evenodd" d="M192.178 149.161L182.216 139.166L172.254 149.161L182.216 159.156L192.178 149.161ZM182.216 137.062L170.157 149.161L182.216 161.26L194.275 149.161L182.216 137.062Z" fill="white"/>
<path opacity="0.6" d="M192.226 208.304C192.226 212.002 166.166 215 134.02 215C101.874 215 75.814 212.002 75.814 208.304C75.814 204.607 101.874 201.609 134.02 201.609C166.166 201.609 192.226 204.607 192.226 208.304Z" fill="#090909" fill-opacity="0.7"/>
<defs>
<linearGradient id="paint0_linear" x1="136.061" y1="24.5513" x2="136.061" y2="156.973" gradientUnits="userSpaceOnUse">
<stop stop-color="#56CCF2"/>
<stop offset="1" stop-color="white" stop-opacity="0"/>
</linearGradient>
<linearGradient id="paint1_linear" x1="219.665" y1="9.82227" x2="219.665" y2="27.2842" gradientUnits="userSpaceOnUse">
<stop stop-color="#56CCF2"/>
<stop offset="1" stop-color="white" stop-opacity="0"/>
</linearGradient>
<linearGradient id="paint2_linear" x1="112.517" y1="0" x2="112.517" y2="17.1107" gradientUnits="userSpaceOnUse">
<stop stop-color="#56CCF2"/>
<stop offset="1" stop-color="white" stop-opacity="0"/>
</linearGradient>
<linearGradient id="paint3_linear" x1="86.8799" y1="131.935" x2="86.8799" y2="167.666" gradientUnits="userSpaceOnUse">
<stop stop-color="white" stop-opacity="0.3"/>
<stop offset="1" stop-color="white" stop-opacity="0.3"/>
</linearGradient>
<linearGradient id="paint4_linear" x1="63.8943" y1="49.8433" x2="63.8943" y2="85.5742" gradientUnits="userSpaceOnUse">
<stop stop-color="white" stop-opacity="0.3"/>
<stop offset="1" stop-color="white" stop-opacity="0.3"/>
</linearGradient>
<linearGradient id="paint5_linear" x1="134.335" y1="1.4873" x2="134.335" y2="37.2183" gradientUnits="userSpaceOnUse">
<stop stop-color="white" stop-opacity="0.3"/>
<stop offset="1" stop-color="white" stop-opacity="0.3"/>
</linearGradient>
<linearGradient id="paint6_linear" x1="206.257" y1="49.8433" x2="206.257" y2="85.5742" gradientUnits="userSpaceOnUse">
<stop stop-color="white" stop-opacity="0.3"/>
<stop offset="1" stop-color="white" stop-opacity="0.3"/>
</linearGradient>
<linearGradient id="paint7_linear" x1="182.531" y1="130.935" x2="182.531" y2="166.666" gradientUnits="userSpaceOnUse">
<stop stop-color="white" stop-opacity="0.3"/>
<stop offset="1" stop-color="white" stop-opacity="0.3"/>
</linearGradient>
</defs>
</svg>
